<?xml version="1.0" standalone="no"?>
<!DOCTYPE svg PUBLIC "-//W3C//DTD SVG 1.1//EN" "http://www.w3.org/Graphics/SVG/1.1/DTD/svg11.dtd" >
<svg xmlns="http://www.w3.org/2000/svg" xmlns:xlink="http://www.w3.org/1999/xlink" version="1.1">
<metadata>
Created by FontForge 20201107 at Wed Sep  4 23:30:08 2024
 By 
Copyright (c) 2018 by Indra Renov. All rights reserved.
</metadata>
<defs>
<font id="MidnightMinutesRegular" horiz-adv-x="0" >
  <font-face 
    font-family="Midnight Minutes"
    font-weight="400"
    font-stretch="normal"
    units-per-em="2048"
    panose-1="0 0 0 0 0 0 0 0 0 0"
    ascent="1638"
    descent="-410"
    x-height="1185"
    cap-height="1847"
    bbox="-539 -664 1437 1931.56"
    underline-thickness="0"
    underline-position="0"
    unicode-range="U+000A-00AD"
  />
<missing-glyph horiz-adv-x="1079" 
d="M102 1434h875v-1434h-875v1434zM160 1393l379 -633l381 633h-760zM514 717l-369 614v-1231zM541 674l-379 -631h758zM565 717l371 -621v1239z" />
    <glyph glyph-name=".notdef" horiz-adv-x="1079" 
d="M102 1434h875v-1434h-875v1434zM160 1393l379 -633l381 633h-760zM514 717l-369 614v-1231zM541 674l-379 -631h758zM565 717l371 -621v1239z" />
    <glyph glyph-name=".null" 
 />
    <glyph glyph-name=".null" 
 />
    <glyph glyph-name="nonmarkingreturn" horiz-adv-x="682" 
 />
    <glyph glyph-name="controlLF" unicode="&#xa;" 
 />
    <glyph glyph-name="controlCR" unicode="&#xd;" 
 />
    <glyph glyph-name="space" unicode=" " horiz-adv-x="536" 
 />
    <glyph glyph-name="exclam" unicode="!" horiz-adv-x="430" 
d="M179 217l117 -98q14 -12 14 -31v-80q0 -19 -14 -31l-116 -97l-1 -1l-115 96q-15 13 -15 32v80q0 18 15 31l115 96v3zM355 1780q18 5 23 -8q6 -17 -28 -49q-22 -21 -45 -293.5t-35 -534.5l-12 -262q15 -78 0.5 -161.5t-39 -149t-36.5 -64.5q1 86 -19.5 183t-42.5 148
q-5 12 -7 29q-47 924 -47 949q0 28 37 63.5t74 57.5l37 22q122 65 140 70z" />
    <glyph glyph-name="ampersand" unicode="&#x26;" horiz-adv-x="1361" 
d="M1339 -10q1 -10 4 -30.5t5 -30.5v-11q-6 -2 -9 -4q-13 -8 -47.5 -31.5t-54.5 -35.5q-19 -12 -63 -40t-69 -43t-62 -37t-71.5 -38.5t-68.5 -30.5h-15q-52 73 -56 81q-78 140 -179 327l-6 12q-8 -6 -9 -7q-148 -125 -175 -147q-3 -2 -88 -64q-15 -10 -29 0q-4 3 -20.5 14
t-24.5 18q-33 29 -99.5 87.5t-100.5 87.5q-10 9 -12 23q-4 33 -14 99q-4 28 -12.5 85t-12.5 86l-24 171q-4 28 -13 86t-13 87q-2 9 -4 26t-4 25v9l234 135q-57 124 -169 368l30 24q64 52 192.5 156.5t192.5 156.5q8 6 49 42h4l18 -12q55 -53 67 -67q69 -80 187 -252
q12 -19 26.5 -39.5t31.5 -46l27 -40.5l-387 -216l234 -552q27 23 66 64.5t56 66.5q15 22 23 50q8 29 -3 75q-10 36 -16 56q63 -30 187 -90q-9 -44 -26.5 -133.5t-26.5 -133.5q-1 -5 -6 -10q-22 -20 -65.5 -60t-64.5 -60q-6 -6 -17.5 -16.5t-17.5 -16.5q35 -72 99 -204
t85 -175l3 1q105 74 155 130q32 36 29 67q-2 18 -8 46q-17 76 -73 205q-1 3 -3.5 8.5t-3.5 8.5q31 22 92 68t92 68q3 -23 8.5 -70t8.5 -71q3 -25 9 -75.5t9 -75.5q3 -26 9.5 -77t9.5 -77zM490 1526q-165 -130 -195 -154l153 -297q6 -11 16 -2q22 21 66.5 63t66.5 63l30 30
q-24 52 -70 151.5t-67 145.5zM575 214q9 9 4 21q-45 99 -241 538q-5 11 -14.5 32.5t-14.5 32.5h-3l-2 -1l-90 -51q-3 -2 -3 -8q1 -8 3.5 -25.5t3.5 -26.5q5 -38 14.5 -114.5t14.5 -114.5q6 -44 17.5 -131.5t16.5 -131.5q4 -27 10 -38q15 -27 45.5 -81t45.5 -81q1 -2 7 -12
q4 5 12 13q29 30 87 89.5t87 89.5z" />
    <glyph glyph-name="comma" unicode="," horiz-adv-x="385" 
d="M314 188l21 -103v-5l-36 -147q0 -2 -3 -5l-202 -214q-5 -5 -10 -1.5t-3 11.5l54 195l2 81q0 6 -4 9l-80 67q-4 4 -4 8v109q0 4 4 8l126 105v3l128 -107q3 -3 3 -8q2 -1 4 -6z" />
    <glyph glyph-name="period" unicode="." horiz-adv-x="315" 
d="M157 280l96 -81q12 -9 12 -26v-66q0 -17 -12 -26l-95 -80l-1 -1l-96 80q-12 9 -12 26v66q0 17 12 26l96 80v2z" />
    <glyph glyph-name="zero" unicode="0" horiz-adv-x="921" 
d="M845 336v-44q-12 -13 -36 -38t-36 -38q-1 -1 -3 -2.5t-2 -2.5q-8 -8 -33 -33.5t-38 -39.5q-14 -15 -42 -44.5t-42 -44.5l-60 -66q-6 -6 -16 -6q-19 -1 -57 -2.5t-57 -2.5q-28 -1 -89 -5h-3q-13 -2 -19.5 -3.5t-15 5t-12 10.5t-11.5 14q-4 5 -27 31q-18 19 -52.5 57
t-51.5 57l-33 39q-4 5 -4 15v484v126q1 70 1 210.5t1 210.5q0 9 7 18q20 24 58 68.5t42 49.5q11 13 34 39t34 39q13 15 39 46.5t40 47.5q4 4 8 4q21 3 63.5 8.5t63.5 7.5q11 2 34 3.5t35 3.5q12 1 24 -8q7 -6 106 -85q16 -12 47.5 -37t46.5 -37q7 -6 21.5 -17.5t21.5 -17.5
q2 -1 3 -5t2 -5l1 -2v-2q0 -95 1 -285t1 -285l3 -426q0 -4 2 -10zM614 1376q-16 15 -93 82q-7 -5 -20 -15t-23 -18.5t-18 -16.5q-50 -53 -146 -163q-7 -7 -7 -15q-2 -64 -4.5 -192.5t-3.5 -192.5q-1 -50 -3.5 -150.5t-3.5 -151.5q-1 -48 -2.5 -144t-2.5 -145q0 -10 5 -17
l93 -114q8 -9 22 -26t21 -25q9 10 25 28.5t23 26.5q146 166 152 173q8 8 8 20q-3 225 -11 664q-1 63 -3 188.5t-3 188.5q0 11 -5 15z" />
    <glyph glyph-name="one" unicode="1" horiz-adv-x="585" 
d="M8 1113q0 5 0.5 14t0.5 14q6 1 13 5q19 11 72 39t82 44q59 35 92 118q8 20 29 89q4 12 11 14q81 19 200 50q4 0 6 -1q-5 -3 -21.5 -29.5t-20.5 -33.5q-38 -103 -55 -221q-13 -83 -14 -135q-7 -239 -17 -707v-220q0 -33 30 -49q39 -20 105 -31q20 -3 55 -7
q-1 -11 -1.5 -33.5t-0.5 -34.5q-270 22 -495 -84q-3 3 -3 4q-4 11 -12 31.5t-12 30.5q46 30 69 46q31 21 56 42q53 44 56 120q1 33 -1 147q-1 31 -2.5 93t-1.5 93q-1 42 -3 124t-3 124q0 30 -1 89.5t-2 89.5q-1 26 -2 77.5t-1 77.5q0 1 -2 5q-35 -4 -103 -10.5t-100 -9.5
q-1 4 -2 12.5t-1 12.5z" />
    <glyph glyph-name="two" unicode="2" horiz-adv-x="815" 
d="M757 435q-44 -116 -52 -186q-5 -46 -3 -138q0 -16 2 -34.5t5.5 -41t4.5 -35.5q-306 118 -614 -8q-32 -14 -55 -29t-30 -23l-7 -8q3 9 8.5 64t15 152.5t17.5 168.5q14 120 55 253t65 169q26 37 74 58q157 90 248 167q25 21 57 55q58 58 42 147q-20 113 -102 249
q-5 7 -12 5q-88 -19 -262 -59q-7 -2 -9 -9q-25 -72 -24 -124q1 -42 49 -92q4 -4 11 0q26 14 39 22q-4 21 -12 59.5t-11 55.5q44 21 91 30q14 3 27 3q33 -1 41 -31q9 -33 10 -59q0 -18 -2 -107q0 -9 -6 -11q-144 -65 -211 -81q-21 -5 -42 -6q-65 -5 -83 56q-11 41 -20 97
q-12 87 -3 153q5 37 20 81q13 38 52 64q46 32 116 40q40 4 85 9.5t100 12.5t85 11l88 11q25 5 38 -26l152 -343q7 -12 0 -35q-13 -43 -47 -142t-42 -107q-3 -3 -38.5 -18.5t-93 -41.5t-100.5 -48l-1 -1h-1q-32 -19 -92 -63q-34 -24 -45 -59q-1 -2 -5 -7t-5 -7q-2 -3 -15 -38
l-2.5 -7.5t-2.5 -6.5q-49 -124 -61 -262q-5 -45 -10 -115v-21q18 5 38 9.5t34.5 7t39.5 4.5t35.5 3t40 1.5t35 0.5h40h36.5q18 78 22 95q30 112 73 172q48 65 120 75q29 4 58 -8q-34 -82 -49 -123z" />
    <glyph glyph-name="three" unicode="3" horiz-adv-x="755" 
d="M732 1038q-1 -13 -5.5 -22.5t-8.5 -12.5l-4 -3l-244 -148l246 -109l4 -566l-388 -269q-1 -1 -4 -3.5t-5 -3.5q-1 0 -3 -1q-26 22 -80 66q-142 118 -214 177q-16 12 -15 34q4 59 10 167l12 216q1 9 2 26.5t1 26.5q2 40 41 38q36 -1 81 -8q38 -6 116 -19t116 -19
q16 -3 19 -18q11 -56 44 -212v-3q-90 -28 -183 -57v193q-12 3 -34.5 9.5t-41 11.5t-35.5 9q0 -3 0.5 -8.5t0.5 -7.5q3 -59 8 -175t7 -175q0 -9 5 -12q20 -16 68.5 -55t74.5 -60q13 11 40 32.5t41 32.5q84 68 127 102q11 9 10 22q-2 37 -7 111.5t-8 111.5q-2 36 -7.5 107
t-8.5 107q0 7 -7 11q-163 70 -289 90q-11 2 -66 4q-12 0 -26 3q-17 3 -4 13q3 3 10.5 7.5t10.5 6.5q59 42 177.5 126.5t178.5 126.5l5 5q5 4 8 5q25 11 23 45q-2 31 -4.5 87.5t-3.5 74.5q0 9 -5 14q-82 72 -161 140h-2t-2 1q-9 -9 -28.5 -26t-29.5 -25q-20 -17 -42.5 -37
t-49 -44t-41.5 -37q-7 -7 -6 -10q32 -78 49 -117q8 1 24.5 4.5t24.5 5.5q-21 74 -23 80q-3 12 6 18q15 10 31 21.5t36 26t32 22.5q8 -34 24.5 -101.5t24.5 -101.5q-10 -3 -31.5 -8.5t-31.5 -8.5q-28 -8 -83.5 -22.5t-82.5 -21.5q-13 -3 -20 5q-66 76 -85 148q-17 61 -43 97
q43 36 71 58q13 11 190 151q7 5 14 5l156 -6q38 0 46 -3q6 -2 71 -62.5t128 -119.5l62 -59q-11 -195 -14 -225z" />
    <glyph glyph-name="four" unicode="4" horiz-adv-x="835" 
d="M823 11q1 -20 5 -60q-92 9 -114 13q-141 22 -303 -27q-25 -7 -70 -22.5t-59 -20.5q-2 -1 -8 -3q-14 30 -27 57q91 42 117 55q39 20 66 45q18 32 23.5 67t2.5 55l-4 19l14 239q-40 11 -109 13q-112 3 -258 -18q-11 -2 -39 -6.5t-44 -6.5q-6 44 -8 70q0 5 3 8
q12 15 23.5 31t24 37t19 32.5t21.5 38t19 34.5q127 224 197 541q9 42 18.5 90t20.5 105.5t18 90.5q0 2 1 5.5t2 5.5q164 -26 317 37l-18 -990q15 -3 48.5 -8.5t51.5 -8.5q-2 -24 -6.5 -75.5t-6.5 -78.5q-16 4 -55.5 14t-62.5 16q-2 -71 -2 -84q4 -106 9 -157q7 -73 83 -114
q12 -7 27 -13t33.5 -13.5t29.5 -12.5zM214 573q39 -1 82.5 -2t96.5 -2t82 -2l48 808q-1 0 -2 -0.5t-2 -0.5q-11 0 -14 -12q-32 -166 -44 -215q-46 -195 -98 -295q-21 -41 -142 -265z" />
    <glyph glyph-name="five" unicode="5" horiz-adv-x="802" 
d="M262 1347q0 1 -2 1.5t-3 1.5q-6 -57 -18 -171.5t-18 -172.5q6 2 16 6q162 62 242 94q12 5 20 -5q37 -47 111 -139.5t111 -138.5q5 -7 5 -17q-5 -81 -17 -260q-2 -38 -6.5 -112t-7.5 -112q-1 -25 -5 -70q0 -3 -5 -13l-195 -291q-6 -8 -15 -8q-40 0 -119.5 -1t-119.5 -2
q-13 0 -17 11q-130 319 -163 397q-5 11 1 19q32 53 96.5 159.5t97.5 159.5q5 8 14 10q76 12 115 18l27 -84q27 -81 47 -145q4 -10 -1 -16q-20 -33 -60.5 -99t-60.5 -99q0 -1 -2.5 -3t-3.5 -4q-5 40 -16 119.5t-17 119.5q-5 -9 -13 -21q-14 -25 -42 -73t-42 -73
q-6 -10 -2 -16q32 -52 90 -148t74 -121l5 -5q40 73 86 154q13 22 37.5 66t36.5 66l-15 496q-16 20 -46.5 60.5t-45.5 60.5q-9 12 -21 4q-77 -49 -89 -59q-31 -27 -65 -58.5t-75 -70.5t-64 -60q-2 -1 -4.5 -4t-3.5 -5l-1 1h-2l-83 111l81 692l102 16v-2q1 0 4 0.5t4 0.5
q5 0 12 -5q118 -86 222 -119q183 -59 352 72l2 2t3 2t4 3l-4 -12q-17 -43 -50.5 -129.5t-49.5 -129.5q-7 -17 -24 -16q-10 1 -52 4.5t-65 6.5q-141 20 -273 142z" />
    <glyph glyph-name="six" unicode="6" horiz-adv-x="772" 
d="M762 471q1 -16 -51 -127.5t-104 -215.5l-52 -103l-111 -52q-6 -6 -14 -9q-25 -11 -75.5 -31.5t-75.5 -31.5q-9 -4 -16 4l-249 276q-6 6 -6 18q1 136 5 403q2 110 4.5 330.5t3.5 331.5q0 10 7 17q128 132 192 197q6 6 16 6q97 -5 291 -17q51 -3 53 -3q11 0 15 -9l81 -156
q3 -5 3 -17q-4 -127 -7 -187q0 -8 -5 -11q-21 -13 -67.5 -43t-71.5 -46l-35 -24l-2 333l-46 77q-25 -1 -75.5 -1t-75.5 -1q-6 0 -11 -7q-52 -78 -77 -118q-3 -4 -3 -14l12 -231q2 -31 4.5 -89t3.5 -86q5 4 10 9q64 64 95 96q7 7 18 3q6 -2 16 -6t16 -6l299 -79
q83 -343 85 -380zM348 49l4 6q42 76 124.5 229t124.5 229q4 8 1 16q-56 148 -85 221q-4 9 -13 13q-18 8 -54.5 22t-54.5 22q-1 0 -4.5 1.5t-5.5 2.5l-66 -55q-66 -54 -64 -61q2 -9 81 -126.5t96 -138.5q9 11 15.5 75t15.5 75q3 -4 3 -6q5 -26 17 -78t17 -78q2 -11 -3 -19
q-10 -17 -80 -131q0 -1 -2.5 -5t-4.5 -6q-58 90 -172 268q-3 -16 -5 -48l-9 -171q-6 -106 -8 -159q0 -9 5 -12q22 -15 127 -86z" />
    <glyph glyph-name="seven" unicode="7" horiz-adv-x="808" 
d="M789 1235q-20 -18 -94.5 -95t-89.5 -97q-10 -11 -27 -32t-61.5 -84.5t-81.5 -127.5t-73.5 -154t-50.5 -171.5t1 -171t67 -161.5q-34 -47 -77 -159q-7 -18 -18.5 -52.5t-16.5 -48.5q-1 0 -3 1q-37 27 -62 58q-4 2 -8 5q-19 22 -36 64q-24 50 -30 113q-42 252 48 560
q24 82 69 167t92 149t104 127.5t94.5 99t74.5 67.5q4 24 12 74h-8q-4 0 -12 -2l-12 -3q-191 -82 -298 -96q-68 -8 -115.5 -7.5t-72.5 4.5l-25 5l1 3q-9 4 -13 20l-57 186l-2 6q54 -6 81 -10q141 -21 249 -22q77 -1 184 29q26 7 73 22.5t64 20.5q21 7 38 7q2 0 98 -3
q3 0 5 -1l-3 -123q-1 -50 -5 -145q0 -1 -3 -22z" />
    <glyph glyph-name="eight" unicode="8" horiz-adv-x="804" 
d="M53 716q46 55 140 165q-26 30 -75.5 87.5t-54.5 63.5q-12 15 -7 31q75 282 125 473q2 10 14 10q158 -9 449 -25q10 0 13 -12q11 -46 33.5 -138t33.5 -138q1 -8 -5 -19q-65 -98 -90 -133q-8 -10 0 -21q87 -130 161 -245q6 -10 6 -19q-2 -93 -6.5 -279.5t-6.5 -279.5
q-1 -40 -5 -51.5t-30 -39.5q-35 -39 -105 -116.5t-105 -116.5q-12 -13 -28 -13q-40 1 -120.5 3t-120.5 3q-6 0 -14 8q-154 184 -232 275q-17 20 -14 46q6 77 19 233t19 233q0 7 6 15zM369 833q51 -47 81 -74q6 19 19 55.5t20 55.5q6 -8 7 -9q6 -9 29.5 -46t36.5 -57
q6 -9 1 -20q-21 -38 -63.5 -114.5t-64.5 -114.5q-1 -2 -7 -12q-48 83 -144 247q-39 -37 -49 -48q-9 -9 -9 -20q-16 -303 -23 -466q0 -9 8 -19q26 -27 79.5 -81t80.5 -81q17 -17 35 -11q4 1 11 2t13 3t10 7q25 27 74.5 80t73.5 80q6 6 6 16q0 13 1 38.5t1 38.5q2 88 5.5 265
t5.5 265q0 7 -6 17q-33 47 -59 82q-20 28 -31 42q-128 -109 -142 -121zM206 1062q27 -37 72 -94q34 37 100 109q33 37 99 109.5t99 108.5q8 10 3 18l-66 108q-5 9 -17 8q-73 -13 -188 -31q-10 -1 -13 -11q-15 -52 -45.5 -155.5t-45.5 -155.5q-2 -8 2 -14z" />
    <glyph glyph-name="nine" unicode="9" horiz-adv-x="802" 
d="M794 1300v-1037q0 -10 -7 -19q-47 -60 -142.5 -181t-143.5 -182q-7 -8 -17 -8q-30 2 -52 17q-49 35 -148.5 103t-149.5 103q-10 7 -10 16q0 58 1 175.5t1 176.5q0 1 0.5 4t0.5 5q66 1 201 3.5t206 3.5q-3 -2 -5.5 -4.5l-3.5 -3.5q-59 -43 -179 -129q-10 -7 -10 -20v-182
q0 -9 5 -14q22 -17 123 -94q8 10 23.5 30.5t23.5 30.5q15 19 45 57.5t45 57.5q7 8 8 17l-8 501l-103.5 -103.5t-104.5 -103.5q-37 25 -107 73q-28 19 -84 56.5t-84 56.5q-10 7 -10 18q0 2 -6 538q0 16 11 27l243 255q8 8 21 8q159 3 161 3q10 0 17 -7q78 -76 232 -230
q7 -7 7 -18zM392 642q138 146 207 220l-6 386l-139 205q-1 1 -2 2.5t-2 2.5l-8 -8q-86 -98 -129 -146l-23 -525z" />
    <glyph glyph-name="A" unicode="A" horiz-adv-x="952" 
d="M977 45q6 -5 16.5 -12t14.5 -10q-19 -28 -53 -36q-41 -9 -55 -13l-240 -60q-17 -4 -49 -10q-12 11 0 23q10 10 20 24t14 21.5t15 28t13 23.5q26 48 14 106q-16 77 -30 235q-2 20 -6 58.5t-6 53.5q-2 -1 -9 -4t-10 -5q-11 -8 -122 -89q-11 -9 -29 -20q-10 9 -138 118
q-1 -7 -4 -20.5t-4 -19.5q-4 -30 -13 -92t-14 -92q0 -2 -1 -6.5t-1.5 -8t-0.5 -6.5q0 -36 -11 -75q-8 -28 -2 -46q11 -36 50 -40q25 -3 26 -3q8 -1 14 -7.5t5 -12.5q-1 -14 -15 -18q-126 -47 -180 -62q-74 -20 -220 -64q-8 -2 -23 -8.5t-21 -8.5q-18 15 -18 25.5t17 23.5
q21 16 60.5 48t60.5 48q19 15 30 40q8 16 14.5 36.5t10.5 35t10 39t9 35.5q5 18 13.5 55t13.5 56q14 53 27 113t27.5 133.5t23.5 113.5q15 73 50 245t55 265q12 56 37 157.5t35 142.5q12 52 23 130q6 39 -13 62t-67 22h-56q-9 0 -17 3q-9 4 -10.5 15.5t6.5 16.5q14 9 27 13
q144 47 272 72q30 6 80 19q43 12 100 29q15 4 45.5 12.5t45.5 13.5q8 2 14.5 -2t7.5 -12q3 -25 -21 -36q-3 -1 -8 -3.5t-8 -3.5q-85 -34 -108 -134q-9 -35 -5 -101q1 -26 13 -122l15 -126q16 -132 23 -198q3 -22 6 -67t5 -68q6 -60 19 -179t20 -179q3 -21 7 -63l6 -63
q5 -40 15 -121.5t15 -122.5q2 -17 7 -52t7 -53q6 -61 50 -105q8 -8 18.5 -16.5t24 -18.5t20.5 -16zM395 619q43 -39 62 -55q11 8 40.5 29.5t42.5 31.5t34.5 28.5t40.5 36.5q0 31 -4 63q-14 138 -15 207q0 6 -0.5 12t-1.5 14t-1 12q-8 99 -13 155q-5 53 -15 158.5t-15 157.5
l-1 1q-1 1 -3 1.5t-3 1.5l-3.5 -7t-3.5 -8q-4 -16 -9.5 -47.5t-9.5 -47.5q-18 -88 -54.5 -265t-54.5 -265q-4 -18 -14.5 -71.5t-17.5 -82.5q-9 -37 19 -60z" />
    <glyph glyph-name="A" unicode="&#xc5;" horiz-adv-x="952" 
d="M977 45q6 -5 16.5 -12t14.5 -10q-19 -28 -53 -36q-41 -9 -55 -13l-240 -60q-17 -4 -49 -10q-12 11 0 23q10 10 20 24t14 21.5t15 28t13 23.5q26 48 14 106q-16 77 -30 235q-2 20 -6 58.5t-6 53.5q-2 -1 -9 -4t-10 -5q-11 -8 -122 -89q-11 -9 -29 -20q-10 9 -138 118
q-1 -7 -4 -20.5t-4 -19.5q-4 -30 -13 -92t-14 -92q0 -2 -1 -6.5t-1.5 -8t-0.5 -6.5q0 -36 -11 -75q-8 -28 -2 -46q11 -36 50 -40q25 -3 26 -3q8 -1 14 -7.5t5 -12.5q-1 -14 -15 -18q-126 -47 -180 -62q-74 -20 -220 -64q-8 -2 -23 -8.5t-21 -8.5q-18 15 -18 25.5t17 23.5
q21 16 60.5 48t60.5 48q19 15 30 40q8 16 14.5 36.5t10.5 35t10 39t9 35.5q5 18 13.5 55t13.5 56q14 53 27 113t27.5 133.5t23.5 113.5q15 73 50 245t55 265q12 56 37 157.5t35 142.5q12 52 23 130q6 39 -13 62t-67 22h-56q-9 0 -17 3q-9 4 -10.5 15.5t6.5 16.5q14 9 27 13
q144 47 272 72q30 6 80 19q43 12 100 29q15 4 45.5 12.5t45.5 13.5q8 2 14.5 -2t7.5 -12q3 -25 -21 -36q-3 -1 -8 -3.5t-8 -3.5q-85 -34 -108 -134q-9 -35 -5 -101q1 -26 13 -122l15 -126q16 -132 23 -198q3 -22 6 -67t5 -68q6 -60 19 -179t20 -179q3 -21 7 -63l6 -63
q5 -40 15 -121.5t15 -122.5q2 -17 7 -52t7 -53q6 -61 50 -105q8 -8 18.5 -16.5t24 -18.5t20.5 -16zM395 619q43 -39 62 -55q11 8 40.5 29.5t42.5 31.5t34.5 28.5t40.5 36.5q0 31 -4 63q-14 138 -15 207q0 6 -0.5 12t-1.5 14t-1 12q-8 99 -13 155q-5 53 -15 158.5t-15 157.5
l-1 1q-1 1 -3 1.5t-3 1.5l-3.5 -7t-3.5 -8q-4 -16 -9.5 -47.5t-9.5 -47.5q-18 -88 -54.5 -265t-54.5 -265q-4 -18 -14.5 -71.5t-17.5 -82.5q-9 -37 19 -60z" />
    <glyph glyph-name="A" unicode="&#xc4;" horiz-adv-x="952" 
d="M977 45q6 -5 16.5 -12t14.5 -10q-19 -28 -53 -36q-41 -9 -55 -13l-240 -60q-17 -4 -49 -10q-12 11 0 23q10 10 20 24t14 21.5t15 28t13 23.5q26 48 14 106q-16 77 -30 235q-2 20 -6 58.5t-6 53.5q-2 -1 -9 -4t-10 -5q-11 -8 -122 -89q-11 -9 -29 -20q-10 9 -138 118
q-1 -7 -4 -20.5t-4 -19.5q-4 -30 -13 -92t-14 -92q0 -2 -1 -6.5t-1.5 -8t-0.5 -6.5q0 -36 -11 -75q-8 -28 -2 -46q11 -36 50 -40q25 -3 26 -3q8 -1 14 -7.5t5 -12.5q-1 -14 -15 -18q-126 -47 -180 -62q-74 -20 -220 -64q-8 -2 -23 -8.5t-21 -8.5q-18 15 -18 25.5t17 23.5
q21 16 60.5 48t60.5 48q19 15 30 40q8 16 14.5 36.5t10.5 35t10 39t9 35.5q5 18 13.5 55t13.5 56q14 53 27 113t27.5 133.5t23.5 113.5q15 73 50 245t55 265q12 56 37 157.5t35 142.5q12 52 23 130q6 39 -13 62t-67 22h-56q-9 0 -17 3q-9 4 -10.5 15.5t6.5 16.5q14 9 27 13
q144 47 272 72q30 6 80 19q43 12 100 29q15 4 45.5 12.5t45.5 13.5q8 2 14.5 -2t7.5 -12q3 -25 -21 -36q-3 -1 -8 -3.5t-8 -3.5q-85 -34 -108 -134q-9 -35 -5 -101q1 -26 13 -122l15 -126q16 -132 23 -198q3 -22 6 -67t5 -68q6 -60 19 -179t20 -179q3 -21 7 -63l6 -63
q5 -40 15 -121.5t15 -122.5q2 -17 7 -52t7 -53q6 -61 50 -105q8 -8 18.5 -16.5t24 -18.5t20.5 -16zM395 619q43 -39 62 -55q11 8 40.5 29.5t42.5 31.5t34.5 28.5t40.5 36.5q0 31 -4 63q-14 138 -15 207q0 6 -0.5 12t-1.5 14t-1 12q-8 99 -13 155q-5 53 -15 158.5t-15 157.5
l-1 1q-1 1 -3 1.5t-3 1.5l-3.5 -7t-3.5 -8q-4 -16 -9.5 -47.5t-9.5 -47.5q-18 -88 -54.5 -265t-54.5 -265q-4 -18 -14.5 -71.5t-17.5 -82.5q-9 -37 19 -60z" />
    <glyph glyph-name="A" unicode="&#xc3;" horiz-adv-x="952" 
d="M977 45q6 -5 16.5 -12t14.5 -10q-19 -28 -53 -36q-41 -9 -55 -13l-240 -60q-17 -4 -49 -10q-12 11 0 23q10 10 20 24t14 21.5t15 28t13 23.5q26 48 14 106q-16 77 -30 235q-2 20 -6 58.5t-6 53.5q-2 -1 -9 -4t-10 -5q-11 -8 -122 -89q-11 -9 -29 -20q-10 9 -138 118
q-1 -7 -4 -20.5t-4 -19.5q-4 -30 -13 -92t-14 -92q0 -2 -1 -6.5t-1.5 -8t-0.5 -6.5q0 -36 -11 -75q-8 -28 -2 -46q11 -36 50 -40q25 -3 26 -3q8 -1 14 -7.5t5 -12.5q-1 -14 -15 -18q-126 -47 -180 -62q-74 -20 -220 -64q-8 -2 -23 -8.5t-21 -8.5q-18 15 -18 25.5t17 23.5
q21 16 60.5 48t60.5 48q19 15 30 40q8 16 14.5 36.5t10.5 35t10 39t9 35.5q5 18 13.5 55t13.5 56q14 53 27 113t27.5 133.5t23.5 113.5q15 73 50 245t55 265q12 56 37 157.5t35 142.5q12 52 23 130q6 39 -13 62t-67 22h-56q-9 0 -17 3q-9 4 -10.5 15.5t6.5 16.5q14 9 27 13
q144 47 272 72q30 6 80 19q43 12 100 29q15 4 45.5 12.5t45.5 13.5q8 2 14.5 -2t7.5 -12q3 -25 -21 -36q-3 -1 -8 -3.5t-8 -3.5q-85 -34 -108 -134q-9 -35 -5 -101q1 -26 13 -122l15 -126q16 -132 23 -198q3 -22 6 -67t5 -68q6 -60 19 -179t20 -179q3 -21 7 -63l6 -63
q5 -40 15 -121.5t15 -122.5q2 -17 7 -52t7 -53q6 -61 50 -105q8 -8 18.5 -16.5t24 -18.5t20.5 -16zM395 619q43 -39 62 -55q11 8 40.5 29.5t42.5 31.5t34.5 28.5t40.5 36.5q0 31 -4 63q-14 138 -15 207q0 6 -0.5 12t-1.5 14t-1 12q-8 99 -13 155q-5 53 -15 158.5t-15 157.5
l-1 1q-1 1 -3 1.5t-3 1.5l-3.5 -7t-3.5 -8q-4 -16 -9.5 -47.5t-9.5 -47.5q-18 -88 -54.5 -265t-54.5 -265q-4 -18 -14.5 -71.5t-17.5 -82.5q-9 -37 19 -60z" />
    <glyph glyph-name="A" unicode="&#xc2;" horiz-adv-x="952" 
d="M977 45q6 -5 16.5 -12t14.5 -10q-19 -28 -53 -36q-41 -9 -55 -13l-240 -60q-17 -4 -49 -10q-12 11 0 23q10 10 20 24t14 21.5t15 28t13 23.5q26 48 14 106q-16 77 -30 235q-2 20 -6 58.5t-6 53.5q-2 -1 -9 -4t-10 -5q-11 -8 -122 -89q-11 -9 -29 -20q-10 9 -138 118
q-1 -7 -4 -20.5t-4 -19.5q-4 -30 -13 -92t-14 -92q0 -2 -1 -6.5t-1.5 -8t-0.5 -6.5q0 -36 -11 -75q-8 -28 -2 -46q11 -36 50 -40q25 -3 26 -3q8 -1 14 -7.5t5 -12.5q-1 -14 -15 -18q-126 -47 -180 -62q-74 -20 -220 -64q-8 -2 -23 -8.5t-21 -8.5q-18 15 -18 25.5t17 23.5
q21 16 60.5 48t60.5 48q19 15 30 40q8 16 14.5 36.5t10.5 35t10 39t9 35.5q5 18 13.5 55t13.5 56q14 53 27 113t27.5 133.5t23.5 113.5q15 73 50 245t55 265q12 56 37 157.5t35 142.5q12 52 23 130q6 39 -13 62t-67 22h-56q-9 0 -17 3q-9 4 -10.5 15.5t6.5 16.5q14 9 27 13
q144 47 272 72q30 6 80 19q43 12 100 29q15 4 45.5 12.5t45.5 13.5q8 2 14.5 -2t7.5 -12q3 -25 -21 -36q-3 -1 -8 -3.5t-8 -3.5q-85 -34 -108 -134q-9 -35 -5 -101q1 -26 13 -122l15 -126q16 -132 23 -198q3 -22 6 -67t5 -68q6 -60 19 -179t20 -179q3 -21 7 -63l6 -63
q5 -40 15 -121.5t15 -122.5q2 -17 7 -52t7 -53q6 -61 50 -105q8 -8 18.5 -16.5t24 -18.5t20.5 -16zM395 619q43 -39 62 -55q11 8 40.5 29.5t42.5 31.5t34.5 28.5t40.5 36.5q0 31 -4 63q-14 138 -15 207q0 6 -0.5 12t-1.5 14t-1 12q-8 99 -13 155q-5 53 -15 158.5t-15 157.5
l-1 1q-1 1 -3 1.5t-3 1.5l-3.5 -7t-3.5 -8q-4 -16 -9.5 -47.5t-9.5 -47.5q-18 -88 -54.5 -265t-54.5 -265q-4 -18 -14.5 -71.5t-17.5 -82.5q-9 -37 19 -60z" />
    <glyph glyph-name="A" unicode="&#xc1;" horiz-adv-x="952" 
d="M977 45q6 -5 16.5 -12t14.5 -10q-19 -28 -53 -36q-41 -9 -55 -13l-240 -60q-17 -4 -49 -10q-12 11 0 23q10 10 20 24t14 21.5t15 28t13 23.5q26 48 14 106q-16 77 -30 235q-2 20 -6 58.5t-6 53.5q-2 -1 -9 -4t-10 -5q-11 -8 -122 -89q-11 -9 -29 -20q-10 9 -138 118
q-1 -7 -4 -20.5t-4 -19.5q-4 -30 -13 -92t-14 -92q0 -2 -1 -6.5t-1.5 -8t-0.5 -6.5q0 -36 -11 -75q-8 -28 -2 -46q11 -36 50 -40q25 -3 26 -3q8 -1 14 -7.5t5 -12.5q-1 -14 -15 -18q-126 -47 -180 -62q-74 -20 -220 -64q-8 -2 -23 -8.5t-21 -8.5q-18 15 -18 25.5t17 23.5
q21 16 60.5 48t60.5 48q19 15 30 40q8 16 14.5 36.5t10.5 35t10 39t9 35.5q5 18 13.5 55t13.5 56q14 53 27 113t27.5 133.5t23.5 113.5q15 73 50 245t55 265q12 56 37 157.5t35 142.5q12 52 23 130q6 39 -13 62t-67 22h-56q-9 0 -17 3q-9 4 -10.5 15.5t6.5 16.5q14 9 27 13
q144 47 272 72q30 6 80 19q43 12 100 29q15 4 45.5 12.5t45.5 13.5q8 2 14.5 -2t7.5 -12q3 -25 -21 -36q-3 -1 -8 -3.5t-8 -3.5q-85 -34 -108 -134q-9 -35 -5 -101q1 -26 13 -122l15 -126q16 -132 23 -198q3 -22 6 -67t5 -68q6 -60 19 -179t20 -179q3 -21 7 -63l6 -63
q5 -40 15 -121.5t15 -122.5q2 -17 7 -52t7 -53q6 -61 50 -105q8 -8 18.5 -16.5t24 -18.5t20.5 -16zM395 619q43 -39 62 -55q11 8 40.5 29.5t42.5 31.5t34.5 28.5t40.5 36.5q0 31 -4 63q-14 138 -15 207q0 6 -0.5 12t-1.5 14t-1 12q-8 99 -13 155q-5 53 -15 158.5t-15 157.5
l-1 1q-1 1 -3 1.5t-3 1.5l-3.5 -7t-3.5 -8q-4 -16 -9.5 -47.5t-9.5 -47.5q-18 -88 -54.5 -265t-54.5 -265q-4 -18 -14.5 -71.5t-17.5 -82.5q-9 -37 19 -60z" />
    <glyph glyph-name="A" unicode="&#xc0;" horiz-adv-x="952" 
d="M977 45q6 -5 16.5 -12t14.5 -10q-19 -28 -53 -36q-41 -9 -55 -13l-240 -60q-17 -4 -49 -10q-12 11 0 23q10 10 20 24t14 21.5t15 28t13 23.5q26 48 14 106q-16 77 -30 235q-2 20 -6 58.5t-6 53.5q-2 -1 -9 -4t-10 -5q-11 -8 -122 -89q-11 -9 -29 -20q-10 9 -138 118
q-1 -7 -4 -20.5t-4 -19.5q-4 -30 -13 -92t-14 -92q0 -2 -1 -6.5t-1.5 -8t-0.5 -6.5q0 -36 -11 -75q-8 -28 -2 -46q11 -36 50 -40q25 -3 26 -3q8 -1 14 -7.5t5 -12.5q-1 -14 -15 -18q-126 -47 -180 -62q-74 -20 -220 -64q-8 -2 -23 -8.5t-21 -8.5q-18 15 -18 25.5t17 23.5
q21 16 60.5 48t60.5 48q19 15 30 40q8 16 14.5 36.5t10.5 35t10 39t9 35.5q5 18 13.5 55t13.5 56q14 53 27 113t27.5 133.5t23.5 113.5q15 73 50 245t55 265q12 56 37 157.5t35 142.5q12 52 23 130q6 39 -13 62t-67 22h-56q-9 0 -17 3q-9 4 -10.5 15.5t6.5 16.5q14 9 27 13
q144 47 272 72q30 6 80 19q43 12 100 29q15 4 45.5 12.5t45.5 13.5q8 2 14.5 -2t7.5 -12q3 -25 -21 -36q-3 -1 -8 -3.5t-8 -3.5q-85 -34 -108 -134q-9 -35 -5 -101q1 -26 13 -122l15 -126q16 -132 23 -198q3 -22 6 -67t5 -68q6 -60 19 -179t20 -179q3 -21 7 -63l6 -63
q5 -40 15 -121.5t15 -122.5q2 -17 7 -52t7 -53q6 -61 50 -105q8 -8 18.5 -16.5t24 -18.5t20.5 -16zM395 619q43 -39 62 -55q11 8 40.5 29.5t42.5 31.5t34.5 28.5t40.5 36.5q0 31 -4 63q-14 138 -15 207q0 6 -0.5 12t-1.5 14t-1 12q-8 99 -13 155q-5 53 -15 158.5t-15 157.5
l-1 1q-1 1 -3 1.5t-3 1.5l-3.5 -7t-3.5 -8q-4 -16 -9.5 -47.5t-9.5 -47.5q-18 -88 -54.5 -265t-54.5 -265q-4 -18 -14.5 -71.5t-17.5 -82.5q-9 -37 19 -60z" />
    <glyph glyph-name="B" unicode="B" horiz-adv-x="909" 
d="M669 1872q6 -24 66 -242.5t60 -219.5q-30 -58 -88 -108q-62 -52 -124 -122q30 -33 36 -37q21 -16 65 -47t65 -47q42 -32 91 -70q6 -264 7 -388q1 -43 -2 -254q-1 -43 -6.5 -55.5t-39.5 -41.5q-73 -63 -150 -99q-346 -158 -401 -184q-16 -8 -46 -20.5t-36 -15.5
q-178 -75 -221 -92q-20 -8 -29 -11q-17 7 -14 25t24 28q65 31 121 116q28 41 31 89q8 120 9 178q2 93 6.5 622.5t3.5 607.5q0 10 0.5 30t0.5 30q0 27 -26 30l-39 6q-29 3 -56 -9q-18 -8 -27 -10q-22 -6 -23 12q-1 12 0 24q1 28 30 44q29 17 53 25q42 16 329.5 120t306.5 111
q17 -2 23 -25zM282 290q0 -15 10 -128q10 4 43 15.5t50 18.5q125 51 207 109q32 23 31 56q-1 42 -1.5 119t-0.5 101l-3 144q2 67 0 101q-1 26 -26 44q-96 68 -143 102l-54 42q-21 -15 -101 -83q-13 -12 -13 -28v-28q0 -8 2 -34.5t2 -41.5q0 -27 -0.5 -81.5t-0.5 -81.5
q0 -33 0.5 -99.5t0.5 -99.5q0 -21 -2 -71t-1 -76zM417 1191q60 61 132 138q-2 15 -6 47q-19 125 -36 175q-7 21 -14 45.5t-15 53.5t-13 46q-1 4 -3.5 11t-3.5 9q-69 -17 -144 -60q-1 -3 -2.5 -8t-1.5 -8q-8 -64 -13 -139t-6.5 -127.5t-4 -139t-3.5 -129.5v-29q0 -3 1 -4h2
q2 0 4 -1q49 40 127 120z" />
    <glyph glyph-name="C" unicode="C" horiz-adv-x="899" 
d="M871 397v-61.5v-71.5v-59q0 -16 -10 -25q-3 -3 -22.5 -21t-28.5 -27q-46 -45 -147.5 -129t-124.5 -100q-14 -10 -56 -46q-21 -18 -41 -3l-1 1q-32 26 -46 40q-41 42 -122 125t-121 125q-22 24 -41 39q-28 22 -31 59q-5 65 -5 79q0 37 -7.5 528.5t-7.5 511.5q0 24 2 67.5
t2 57.5q0 18 20 36q195 171 297 261q50 45 107 76q19 11 38 -4l12 -12q32 -33 95.5 -94.5t115.5 -110.5t56 -53q9 -9 27 -28t28 -29t10 -24v-158h-1l-1 -125q0 -17 -13 -27l-183 -143q-12 -10 -27.5 -6.5t-23.5 17.5q-26 46 -52.5 94t-60 108.5t-53.5 98.5t-18 38
q8 0 171 -128q17 -13 36 -3.5t19 30.5l1 74v6v88q0 15 -9 25l-143 146q-10 10 -24.5 10t-24.5 -10l-159 -161q-8 -8 -10 -21q-5 -75 -9 -218.5t-3 -185.5v-347q-1 -36 -2 -108.5t-2 -108.5q-1 -21 4 -107t5 -98q0 -32 20 -53q19 -20 40 -43t46.5 -51.5t39.5 -43.5q2 -3 7 -8
q10 -10 24.5 -10t24.5 11q22 23 63 63t50 49q24 24 66 78q3 4 3 20q2 176 1 264q-1 28 9 141l7 9q1 -1 6 -3.5t7 -4.5q11 -13 76 -122t87 -148q8 -15 8 -36z" />
    <glyph glyph-name="C" unicode="&#xc7;" horiz-adv-x="899" 
d="M871 397v-61.5v-71.5v-59q0 -16 -10 -25q-3 -3 -22.5 -21t-28.5 -27q-46 -45 -147.5 -129t-124.5 -100q-14 -10 -56 -46q-21 -18 -41 -3l-1 1q-32 26 -46 40q-41 42 -122 125t-121 125q-22 24 -41 39q-28 22 -31 59q-5 65 -5 79q0 37 -7.5 528.5t-7.5 511.5q0 24 2 67.5
t2 57.5q0 18 20 36q195 171 297 261q50 45 107 76q19 11 38 -4l12 -12q32 -33 95.5 -94.5t115.5 -110.5t56 -53q9 -9 27 -28t28 -29t10 -24v-158h-1l-1 -125q0 -17 -13 -27l-183 -143q-12 -10 -27.5 -6.5t-23.5 17.5q-26 46 -52.5 94t-60 108.5t-53.5 98.5t-18 38
q8 0 171 -128q17 -13 36 -3.5t19 30.5l1 74v6v88q0 15 -9 25l-143 146q-10 10 -24.5 10t-24.5 -10l-159 -161q-8 -8 -10 -21q-5 -75 -9 -218.5t-3 -185.5v-347q-1 -36 -2 -108.5t-2 -108.5q-1 -21 4 -107t5 -98q0 -32 20 -53q19 -20 40 -43t46.5 -51.5t39.5 -43.5q2 -3 7 -8
q10 -10 24.5 -10t24.5 11q22 23 63 63t50 49q24 24 66 78q3 4 3 20q2 176 1 264q-1 28 9 141l7 9q1 -1 6 -3.5t7 -4.5q11 -13 76 -122t87 -148q8 -15 8 -36z" />
    <glyph glyph-name="D" unicode="D" horiz-adv-x="878" 
d="M51 -121q-38 -20 -70 -11q-2 5 -5 14.5t-5.5 17.5t-5.5 16q21 16 25 18q61 28 63 105q1 13 2 38.5t1 38.5q8 167 10 188q8 72 8 163q0 12 -1 34.5t-1 33.5q-1 70 11 206q2 26 2 39q-1 58 -2 173.5t-1 173.5q0 24 -1 72.5t-2 73.5q-5 142 -5 172q0 84 -20 187q0 1 -2 4
t-3 6q-4 1 -14.5 4t-16.5 5q-42 14 -62 21q-6 2 -7 10t5 12q39 22 70 35q9 3 63 19q72 22 216.5 65.5t216.5 65.5q6 1 17.5 5t16.5 5q31 8 48 0q6 -9 7 -11q52 -148 61 -178q51 -181 139 -479q4 -14 13.5 -43t13.5 -43q5 -18 5 -34q5 -120 13 -373q2 -55 5.5 -165.5
t5.5 -165.5q1 -36 -33 -61q-103 -75 -149 -98q-152 -75 -365 -209q-17 -11 -190 -108q-58 -33 -77 -42zM490 1588q-5 18 -12 38.5t-16 46.5t-14 41q-10 -4 -60 -22.5t-76 -27.5q-27 -10 -27 -39q1 -30 0 -85.5t-1 -73.5q0 -38 1 -116t1 -116q0 -50 -2 -141.5t-2 -120.5
q0 -23 2 -34q6 -36 6 -104.5t1 -79.5v-180q0 -57 0.5 -171.5t0.5 -171.5q0 -16 5 -17q46 26 149 86.5t158 91.5q4 22 4 28q3 115 3 116q4 83 0 249q-2 0 -1 169l1 170q0 26 -3 38q-56 224 -118 426z" />
    <glyph glyph-name="E" unicode="E" horiz-adv-x="804" 
d="M756 332q16 -3 17 -15q9 -87 9 -88q0 -72 -4 -224q-18 -22 -62 -30q-4 -1 -107 -15q-51 -6 -152.5 -18.5t-152.5 -19.5q-42 -5 -125 -15.5t-124 -15.5q-10 -1 -69 -4q-13 5 -13 23q0 13 14 18q10 3 30 7q41 10 74 38q17 16 31 45q17 38 17 129v480v252v461q0 15 -2 43
q-1 18 -11 92q-1 13 -10 29q-15 30 -40.5 55.5t-51.5 25.5q-31 6 -31 23q0 16 11 26.5t27 10.5q781 191 823 191q20 0 -34.5 -94t-124 -187.5t-86.5 -93.5q-10 0 -10.5 19t6 46.5t14.5 55.5t14.5 50.5t6.5 25.5q0 7 -77 -14t-170 -50q-9 -12 -12 -28q-6 -31 -9 -65
q-2 -26 -5 -76.5t-5 -76.5q-6 -76 -8 -110q16 0 52 0.5t40 0.5q10 0 23 39.5t13 60.5q0 24 10 50.5t27 26.5q29 0 29 -217q0 -41 -13 -106t-26 -109l-13 -45q-39 99 -39 179l-108 -5q0 -5 -0.5 -16t-0.5 -17q-1 -50 -3 -151t-3 -151q0 -100 -3 -229.5t-5 -212t-2 -90.5
q0 -19 -1 -57.5t-1 -57.5q0 -15 -1 -23q-2 -10 13 -31q8 -13 26 -11l51 6q89 8 167 25q24 5 49 23q81 61 85 146q2 28 4 42q1 6 6 14q8 14 26 10z" />
    <glyph glyph-name="E" unicode="&#xcb;" horiz-adv-x="804" 
d="M756 332q16 -3 17 -15q9 -87 9 -88q0 -72 -4 -224q-18 -22 -62 -30q-4 -1 -107 -15q-51 -6 -152.5 -18.5t-152.5 -19.5q-42 -5 -125 -15.5t-124 -15.5q-10 -1 -69 -4q-13 5 -13 23q0 13 14 18q10 3 30 7q41 10 74 38q17 16 31 45q17 38 17 129v480v252v461q0 15 -2 43
q-1 18 -11 92q-1 13 -10 29q-15 30 -40.5 55.5t-51.5 25.5q-31 6 -31 23q0 16 11 26.5t27 10.5q781 191 823 191q20 0 -34.5 -94t-124 -187.5t-86.5 -93.5q-10 0 -10.5 19t6 46.5t14.5 55.5t14.5 50.5t6.5 25.5q0 7 -77 -14t-170 -50q-9 -12 -12 -28q-6 -31 -9 -65
q-2 -26 -5 -76.5t-5 -76.5q-6 -76 -8 -110q16 0 52 0.5t40 0.5q10 0 23 39.5t13 60.5q0 24 10 50.5t27 26.5q29 0 29 -217q0 -41 -13 -106t-26 -109l-13 -45q-39 99 -39 179l-108 -5q0 -5 -0.5 -16t-0.5 -17q-1 -50 -3 -151t-3 -151q0 -100 -3 -229.5t-5 -212t-2 -90.5
q0 -19 -1 -57.5t-1 -57.5q0 -15 -1 -23q-2 -10 13 -31q8 -13 26 -11l51 6q89 8 167 25q24 5 49 23q81 61 85 146q2 28 4 42q1 6 6 14q8 14 26 10z" />
    <glyph glyph-name="E" unicode="&#xca;" horiz-adv-x="804" 
d="M756 332q16 -3 17 -15q9 -87 9 -88q0 -72 -4 -224q-18 -22 -62 -30q-4 -1 -107 -15q-51 -6 -152.5 -18.5t-152.5 -19.5q-42 -5 -125 -15.5t-124 -15.5q-10 -1 -69 -4q-13 5 -13 23q0 13 14 18q10 3 30 7q41 10 74 38q17 16 31 45q17 38 17 129v480v252v461q0 15 -2 43
q-1 18 -11 92q-1 13 -10 29q-15 30 -40.5 55.5t-51.5 25.5q-31 6 -31 23q0 16 11 26.5t27 10.5q781 191 823 191q20 0 -34.5 -94t-124 -187.5t-86.5 -93.5q-10 0 -10.5 19t6 46.5t14.5 55.5t14.5 50.5t6.5 25.5q0 7 -77 -14t-170 -50q-9 -12 -12 -28q-6 -31 -9 -65
q-2 -26 -5 -76.5t-5 -76.5q-6 -76 -8 -110q16 0 52 0.5t40 0.5q10 0 23 39.5t13 60.5q0 24 10 50.5t27 26.5q29 0 29 -217q0 -41 -13 -106t-26 -109l-13 -45q-39 99 -39 179l-108 -5q0 -5 -0.5 -16t-0.5 -17q-1 -50 -3 -151t-3 -151q0 -100 -3 -229.5t-5 -212t-2 -90.5
q0 -19 -1 -57.5t-1 -57.5q0 -15 -1 -23q-2 -10 13 -31q8 -13 26 -11l51 6q89 8 167 25q24 5 49 23q81 61 85 146q2 28 4 42q1 6 6 14q8 14 26 10z" />
    <glyph glyph-name="E" unicode="&#xc9;" horiz-adv-x="804" 
d="M756 332q16 -3 17 -15q9 -87 9 -88q0 -72 -4 -224q-18 -22 -62 -30q-4 -1 -107 -15q-51 -6 -152.5 -18.5t-152.5 -19.5q-42 -5 -125 -15.5t-124 -15.5q-10 -1 -69 -4q-13 5 -13 23q0 13 14 18q10 3 30 7q41 10 74 38q17 16 31 45q17 38 17 129v480v252v461q0 15 -2 43
q-1 18 -11 92q-1 13 -10 29q-15 30 -40.5 55.5t-51.5 25.5q-31 6 -31 23q0 16 11 26.5t27 10.5q781 191 823 191q20 0 -34.5 -94t-124 -187.5t-86.5 -93.5q-10 0 -10.5 19t6 46.5t14.5 55.5t14.5 50.5t6.5 25.5q0 7 -77 -14t-170 -50q-9 -12 -12 -28q-6 -31 -9 -65
q-2 -26 -5 -76.5t-5 -76.5q-6 -76 -8 -110q16 0 52 0.5t40 0.5q10 0 23 39.5t13 60.5q0 24 10 50.5t27 26.5q29 0 29 -217q0 -41 -13 -106t-26 -109l-13 -45q-39 99 -39 179l-108 -5q0 -5 -0.5 -16t-0.5 -17q-1 -50 -3 -151t-3 -151q0 -100 -3 -229.5t-5 -212t-2 -90.5
q0 -19 -1 -57.5t-1 -57.5q0 -15 -1 -23q-2 -10 13 -31q8 -13 26 -11l51 6q89 8 167 25q24 5 49 23q81 61 85 146q2 28 4 42q1 6 6 14q8 14 26 10z" />
    <glyph glyph-name="E" unicode="&#xc8;" horiz-adv-x="804" 
d="M756 332q16 -3 17 -15q9 -87 9 -88q0 -72 -4 -224q-18 -22 -62 -30q-4 -1 -107 -15q-51 -6 -152.5 -18.5t-152.5 -19.5q-42 -5 -125 -15.5t-124 -15.5q-10 -1 -69 -4q-13 5 -13 23q0 13 14 18q10 3 30 7q41 10 74 38q17 16 31 45q17 38 17 129v480v252v461q0 15 -2 43
q-1 18 -11 92q-1 13 -10 29q-15 30 -40.5 55.5t-51.5 25.5q-31 6 -31 23q0 16 11 26.5t27 10.5q781 191 823 191q20 0 -34.5 -94t-124 -187.5t-86.5 -93.5q-10 0 -10.5 19t6 46.5t14.5 55.5t14.5 50.5t6.5 25.5q0 7 -77 -14t-170 -50q-9 -12 -12 -28q-6 -31 -9 -65
q-2 -26 -5 -76.5t-5 -76.5q-6 -76 -8 -110q16 0 52 0.5t40 0.5q10 0 23 39.5t13 60.5q0 24 10 50.5t27 26.5q29 0 29 -217q0 -41 -13 -106t-26 -109l-13 -45q-39 99 -39 179l-108 -5q0 -5 -0.5 -16t-0.5 -17q-1 -50 -3 -151t-3 -151q0 -100 -3 -229.5t-5 -212t-2 -90.5
q0 -19 -1 -57.5t-1 -57.5q0 -15 -1 -23q-2 -10 13 -31q8 -13 26 -11l51 6q89 8 167 25q24 5 49 23q81 61 85 146q2 28 4 42q1 6 6 14q8 14 26 10z" />
    <glyph glyph-name="F" unicode="F" horiz-adv-x="788" 
d="M889 1877q20 0 -34.5 -95.5t-124 -191.5t-86.5 -96q-10 0 -10.5 19.5t5.5 47.5t14 56.5t14.5 51.5t6.5 26q0 7 -79 -15.5t-167 -50.5q-9 -12 -12 -28q-6 -33 -9 -66q-2 -26 -5.5 -78t-5.5 -78q-3 -35 -7 -112q15 0 52 0.5t40 0.5q10 0 23 39.5t13 61.5q0 25 10 52t27 27
q29 0 29 -221q0 -41 -13 -107.5t-26 -111.5l-13 -46q-39 101 -39 183l-109 -6v-34q-1 -51 -3 -153.5t-3 -153.5q0 -102 -3 -234t-5 -216t-2 -93q0 -13 -1 -39t-1 -39q1 -26 4.5 -54.5t18 -66t38.5 -49.5q26 -13 56 -14t49 -0.5t26 -11.5q6 -14 2 -20.5t-12 -8.5l-8 -2
q-1 0 -3 -0.5t-7 -1t-9.5 -1l-9 -1t-6.5 -0.5l-3 -1q-27 -4 -81 -10t-81 -10q-156 -21 -250 -32q-11 -1 -68 -4q-13 5 -13 24q0 13 14 18q10 3 30 7q42 10 74 39q18 17 31 46q5 10 8 22t4.5 20.5t2.5 23.5t1 20v23.5v21.5v489q0 43 0.5 128.5t0.5 128.5v471q0 14 -2 44
q-1 16 -11 93q-1 15 -10 30q-15 31 -40.5 57t-51.5 26q-32 6 -32 23q0 16 11.5 27t27.5 11q781 195 823 195z" />
    <glyph glyph-name="G" unicode="G" horiz-adv-x="874" 
d="M522 521q-10 0 -47 108t-65 216t-17 108q10 0 126 45.5t227 91.5l110 46q-8 -818 -8 -857q0 -19 -84.5 -112.5t-177.5 -180t-114 -86.5t-128 85t-206 176.5t-99 107.5q0 17 3.5 625t3.5 622q0 20 198.5 176t217.5 156q10 0 55.5 -34t86.5 -68l40 -35l166 -127
q-5 -75 -1.5 -131t12.5 -95t18.5 -63.5t16.5 -35.5l8 -11l-347 -120q44 43 67 103.5t25 120t-1 94t-8 60.5v1q-1 1 -1 2v3q0 17 -61 74.5t-95 57.5q-23 0 -64 -34t-71 -68l-29 -34q6 -1175 6 -1211q0 -25 85 -119.5t102 -94.5q14 0 89 95t75 109l1 44q-5 526 -5 543
q-2 4 -6.5 4t-16.5 -5t-22 -10t-22.5 -11.5t-17.5 -8.5q-7 -3 -9 -84t-4.5 -159.5t-11.5 -78.5z" />
    <glyph glyph-name="H" unicode="H" horiz-adv-x="888" 
d="M871 -97q13 -16 36 -45t30 -37q-2 -11 -14 -7q-14 4 -32 11q-125 52 -162 76q-3 2 -16 7q-21 9 -65 27t-65 27q-15 6 -17 22q-2 26 -2 39q0 22 0.5 63.5t1 75t1.5 63.5q11 283 11 416v115v30l-193 -203l-75 63q-7 -441 -5 -479t16 -65q12 -24 37 -31q16 -5 45 -11
q-24 -16 -30 -19q-129 -67 -284 -128q-24 -10 -37 -13q-10 -2 -19 4q-12 8 1 21q19 19 35 54q21 49 23 136q2 83 2 250l-3 297q-1 127 -0.5 340t1.5 226q3 42 3 44q0 30 0.5 91t0.5 91v75q0 26 -37 61q-4 4 -19 6q-2 0 -10 0.5t-12 1.5q-6 1 -9 8.5t1 11.5q18 20 33 31
q70 48 106 69q95 55 172 83q28 11 56 8q11 -21 -2 -36q-46 -51 -53 -136q-10 -50 -10 -281q-1 -75 0 -209t1 -179l2 -2q1 -26 1.5 -72t0.5 -61l63 -53l197 191q1 12 3.5 118.5t2.5 118.5q0 28 -2 128.5t-1 112.5q3 46 -6 119q-31 25 -58 13q-7 -3 -13.5 3.5t-4.5 13.5
q5 15 9 18q2 1 28 19q165 110 207 137q13 9 38 23t31 18q12 7 23 11q24 9 35 -4q19 -23 4 -40q-18 -20 -38 -38q-49 -47 -50 -96q-2 -149 -5 -193v-60.5v-142v-118.5q4 -453 2 -618q-6 -290 -4 -323q0 -1 0.5 -17.5t1.5 -26t2.5 -30t4.5 -36t7.5 -36.5t11.5 -38.5t16 -36.5
t21.5 -36t27.5 -31z" />
    <glyph glyph-name="I" unicode="I" horiz-adv-x="487" 
d="M583 1847q6 -25 3.5 -33t-19.5 -18q-10 -6 -30 -16q-38 -21 -68 -55q-18 -21 -26 -26q-22 -17 -27 -44q-6 -32 -9 -67q-1 -17 -4.5 -72.5t-6.5 -85.5q-9 -107 -13 -277q-3 -159 -9 -474.5t-9 -474.5q0 -32 15 -77.5t43 -60.5q14 -11 49 -20q11 -3 36 -6t39.5 -7t14.5 -12
v-34q-35 -5 -109.5 -14.5t-113.5 -14.5q-156 -21 -250 -32q-11 -1 -68 -4q-13 5 -13 24q0 13 14 18q10 3 30 7q41 10 74 40q18 17 31 46q5 10 8 22.5t4.5 20.5t2.5 23.5t1 20.5v24v22v496q0 111 1 333t1 333q0 58 -3 115q-1 17 -11 94q-2 16 -10 31q-29 61 -82 55
q-7 5 -9 9.5t-1.5 13.5t0.5 11q25 15 74 27q29 7 57.5 15.5t61.5 19.5t54 19t61 22.5t55 20.5q4 1 16.5 6t19.5 7q33 9 101 25q8 2 24 4z" />
    <glyph glyph-name="I" unicode="&#xcf;" horiz-adv-x="487" 
d="M583 1847q6 -25 3.5 -33t-19.5 -18q-10 -6 -30 -16q-38 -21 -68 -55q-18 -21 -26 -26q-22 -17 -27 -44q-6 -32 -9 -67q-1 -17 -4.5 -72.5t-6.5 -85.5q-9 -107 -13 -277q-3 -159 -9 -474.5t-9 -474.5q0 -32 15 -77.5t43 -60.5q14 -11 49 -20q11 -3 36 -6t39.5 -7t14.5 -12
v-34q-35 -5 -109.5 -14.5t-113.5 -14.5q-156 -21 -250 -32q-11 -1 -68 -4q-13 5 -13 24q0 13 14 18q10 3 30 7q41 10 74 40q18 17 31 46q5 10 8 22.5t4.5 20.5t2.5 23.5t1 20.5v24v22v496q0 111 1 333t1 333q0 58 -3 115q-1 17 -11 94q-2 16 -10 31q-29 61 -82 55
q-7 5 -9 9.5t-1.5 13.5t0.5 11q25 15 74 27q29 7 57.5 15.5t61.5 19.5t54 19t61 22.5t55 20.5q4 1 16.5 6t19.5 7q33 9 101 25q8 2 24 4z" />
    <glyph glyph-name="I" unicode="&#xce;" horiz-adv-x="487" 
d="M583 1847q6 -25 3.5 -33t-19.5 -18q-10 -6 -30 -16q-38 -21 -68 -55q-18 -21 -26 -26q-22 -17 -27 -44q-6 -32 -9 -67q-1 -17 -4.5 -72.5t-6.5 -85.5q-9 -107 -13 -277q-3 -159 -9 -474.5t-9 -474.5q0 -32 15 -77.5t43 -60.5q14 -11 49 -20q11 -3 36 -6t39.5 -7t14.5 -12
v-34q-35 -5 -109.5 -14.5t-113.5 -14.5q-156 -21 -250 -32q-11 -1 -68 -4q-13 5 -13 24q0 13 14 18q10 3 30 7q41 10 74 40q18 17 31 46q5 10 8 22.5t4.5 20.5t2.5 23.5t1 20.5v24v22v496q0 111 1 333t1 333q0 58 -3 115q-1 17 -11 94q-2 16 -10 31q-29 61 -82 55
q-7 5 -9 9.5t-1.5 13.5t0.5 11q25 15 74 27q29 7 57.5 15.5t61.5 19.5t54 19t61 22.5t55 20.5q4 1 16.5 6t19.5 7q33 9 101 25q8 2 24 4z" />
    <glyph glyph-name="I" unicode="&#xcd;" horiz-adv-x="487" 
d="M583 1847q6 -25 3.5 -33t-19.5 -18q-10 -6 -30 -16q-38 -21 -68 -55q-18 -21 -26 -26q-22 -17 -27 -44q-6 -32 -9 -67q-1 -17 -4.5 -72.5t-6.5 -85.5q-9 -107 -13 -277q-3 -159 -9 -474.5t-9 -474.5q0 -32 15 -77.5t43 -60.5q14 -11 49 -20q11 -3 36 -6t39.5 -7t14.5 -12
v-34q-35 -5 -109.5 -14.5t-113.5 -14.5q-156 -21 -250 -32q-11 -1 -68 -4q-13 5 -13 24q0 13 14 18q10 3 30 7q41 10 74 40q18 17 31 46q5 10 8 22.5t4.5 20.5t2.5 23.5t1 20.5v24v22v496q0 111 1 333t1 333q0 58 -3 115q-1 17 -11 94q-2 16 -10 31q-29 61 -82 55
q-7 5 -9 9.5t-1.5 13.5t0.5 11q25 15 74 27q29 7 57.5 15.5t61.5 19.5t54 19t61 22.5t55 20.5q4 1 16.5 6t19.5 7q33 9 101 25q8 2 24 4z" />
    <glyph glyph-name="I" unicode="&#xcc;" horiz-adv-x="487" 
d="M583 1847q6 -25 3.5 -33t-19.5 -18q-10 -6 -30 -16q-38 -21 -68 -55q-18 -21 -26 -26q-22 -17 -27 -44q-6 -32 -9 -67q-1 -17 -4.5 -72.5t-6.5 -85.5q-9 -107 -13 -277q-3 -159 -9 -474.5t-9 -474.5q0 -32 15 -77.5t43 -60.5q14 -11 49 -20q11 -3 36 -6t39.5 -7t14.5 -12
v-34q-35 -5 -109.5 -14.5t-113.5 -14.5q-156 -21 -250 -32q-11 -1 -68 -4q-13 5 -13 24q0 13 14 18q10 3 30 7q41 10 74 40q18 17 31 46q5 10 8 22.5t4.5 20.5t2.5 23.5t1 20.5v24v22v496q0 111 1 333t1 333q0 58 -3 115q-1 17 -11 94q-2 16 -10 31q-29 61 -82 55
q-7 5 -9 9.5t-1.5 13.5t0.5 11q25 15 74 27q29 7 57.5 15.5t61.5 19.5t54 19t61 22.5t55 20.5q4 1 16.5 6t19.5 7q33 9 101 25q8 2 24 4z" />
    <glyph glyph-name="J" unicode="J" horiz-adv-x="913" 
d="M951 1862h14q-10 -12 -32 -38.5t-33 -40.5q-8 -9 -21.5 -27t-21.5 -27q-9 -10 -13 -187q0 -27 -3 -81t-4 -81q-1 -38 -0.5 -82.5t1 -95.5t1 -91.5t1 -69.5t0.5 -30q-1 -67 3.5 -188.5t4.5 -167.5q0 -23 5.5 -66t6.5 -57q3 -49 1 -83q-1 -20 -15 -40
q-20 -31 -120.5 -155.5t-155.5 -189.5q-30 -36 -96 -108q-27 -30 -56 -3q-154 136 -230 205q-25 23 -74 70t-74 70q-22 21 -25 44q0 5 -1 14.5t-1.5 17.5t-0.5 15q-2 53 -4 155q0 21 2 31q3 15 19 30q43 36 125 110q42 38 42 105q0 41 -11 58q-3 5 -1 9.5t8 6.5q9 4 15 -2
q21 -20 34 -36q35 -45 103 -135.5t102 -135.5q17 -22 16 -46q-16 9 -20 12q-7 5 -39.5 30.5t-51.5 39.5q-2 -1 -9.5 -4t-11.5 -5q-22 -12 -66 -38q-33 -19 -35 -56q-4 -132 -4 -162t21 -51q14 -14 38 -39.5t43.5 -46.5t37.5 -39q14 -16 36 -29q18 -12 28 -10.5t22 18.5
l81 108q34 44 62 76q36 41 30 93q-1 13 -0.5 156t-1.5 172q-4 49 -14.5 365t-13.5 351q-2 26 -4.5 73t-3.5 62q0 2 -3 23q-15 11 -42 7q-11 -1 -34 -5t-35 -6q-23 -4 -29 10q15 37 55 51q51 18 188 70q9 3 51 20t65 25q49 18 149 52z" />
    <glyph glyph-name="K" unicode="K" horiz-adv-x="888" 
d="M321 1789q26 10 56 7q11 -21 -2 -36q-46 -51 -53 -135q0 -5 -1.5 -89.5t-5.5 -104.5q-4 -22 -4 -87q-1 0 -1 -198l1 -198q0 -3 5 -13q13 7 15 8q5 3 30 19.5t37 25.5q27 20 57 43t67 51t58 44q2 46 3 70q0 28 -2 128.5t-1 112.5q3 46 -6 119q-31 25 -58 13
q-7 -3 -13.5 3.5t-4.5 13.5q4 13 9 17q10 8 27 20q138 92 208 137q13 9 38 23t31 18q12 7 23 11q24 9 35 -4q19 -23 4 -40q-18 -20 -38 -38q-22 -21 -35 -63.5t-15.5 -76.5t-3 -87t-1.5 -62q-1 0 0 -18v-18v-286q-19 -18 -57.5 -55t-56.5 -54q17 -35 70 -96q28 -31 33 -37
q23 -28 21 -66q-7 -172 -8 -309q-2 -108 9 -281q0 -2 12 -127q2 -18 2 -27q0 -101 66 -177q35 -40 66 -81q-2 -11 -14 -7q-14 4 -32 11q-125 52 -162 76q-3 2 -9 4t-7 2q-22 9 -65.5 27.5t-64.5 27.5q-16 6 -17 21q-2 26 -2 40q0 22 0.5 63.5t1 75t1.5 63.5q11 283 11 416
v115q0 49 -28 80q-7 7 -27 32.5t-34 38.5q-17 -14 -76.5 -53.5t-85.5 -67.5q-24 -25 -25 -53q-1 -24 -1.5 -129.5t-1.5 -123.5q-3 -64 6 -313q2 -39 16 -66q11 -23 37 -30q16 -5 45 -11l-10 -7.5t-11 -7.5t-9 -5q-121 -63 -284 -127q-24 -10 -37 -13q-10 -2 -19 4
q-12 8 1 21q19 19 35 54q21 49 23 136q2 83 2 249q0 1 -3 298q-1 127 -0.5 340t1.5 226q3 42 3 43q0 31 0.5 92t0.5 91v75q0 25 -37 60q-4 4 -19 6q-1 0 -9.5 1t-12.5 2q-6 1 -9 8t1 11q21 23 33 32q66 45 106 68q99 58 172 84z" />
    <glyph glyph-name="L" unicode="L" horiz-adv-x="833" 
d="M821 252q0 -75 -4 -231q-17 -22 -62 -30q-35 -6 -107 -16q-51 -7 -152.5 -20.5t-152.5 -19.5q-166 -22 -249 -32q-10 -1 -22 -1.5t-26 -1t-21 -0.5q-13 5 -13 23q0 13 14 18q10 3 30 7q41 10 74 40q17 16 31 47q5 10 8 22t4.5 20.5t2.5 23.5t1 20.5v24v21.5v496
q0 111 1 333t1 333q0 58 -3 115q-1 19 -11 95q-1 13 -10 30q-30 62 -82 56q-7 5 -9 9.5t-1.5 13.5t0.5 11q25 15 74 27q29 7 57.5 15.5t61.5 19.5t54 19t61 22.5t55 20.5q4 1 11.5 4t13.5 5t11 3q33 9 101 25q16 4 24 5q6 -25 3.5 -33.5t-19.5 -18.5q-10 -6 -30 -16
q-40 -22 -68 -54q-18 -21 -26 -26q-22 -17 -27 -44q-6 -32 -9 -67q-2 -26 -5.5 -79t-5.5 -79q-9 -107 -13 -277q-3 -163 -9.5 -490t-9.5 -490v-23q-2 -12 13 -33q8 -13 25 -11q5 1 23.5 3.5t28.5 3.5q89 8 167 25q26 6 49 24q81 63 85 150q2 32 4 44q1 6 6 14q7 15 26 11
q16 -3 17 -16q9 -90 9 -91z" />
    <glyph glyph-name="M" unicode="M" horiz-adv-x="1415" 
d="M1382 74q9 -10 27.5 -28t27.5 -28q-1 -4 -3.5 -5.5t-8 -1.5h-6.5q-91 -11 -134 -11q-159 5 -295 13q4 22 22 30q50 26 74 99q12 37 21 73q5 23 5 42q10 563 10 841q0 17 0.5 57.5t0.5 62.5v33h-10q-6 -23 -24.5 -87.5t-27.5 -100.5q-19 -76 -68 -295.5t-62 -290.5
q0 -1 -5.5 -33.5t-10.5 -60.5t-13.5 -61t-17.5 -48q-23 -40 -83 -89q-12 3 -5 131q8 171 -32 331q-8 32 -23.5 96.5t-23.5 96.5l-9 42q-11 59 -42 168t-35 126q-31 123 -48 173q-4 -42 -4 -44q-4 -228 -4 -630q-6 -363 -6 -365q0 -3 -5 -32.5t-11 -64.5t-8 -46
q-6 -45 -23.5 -127.5t-24.5 -127.5q-6 -43 -22 -129l-6 -21q-11 -58 -25 -80q-15 -24 -546 324q-14 11 -6 26q5 9 15 29t17.5 34t9.5 18l22 37q19 33 57.5 98t57.5 98q3 5 9 14t9 15q16 -9 42 -25q25 -16 80.5 -57t88.5 -60q2 -1 4 -2.5t4.5 -3.5t3.5 -3q19 -12 18 -24
q0 -2 -3 -3q-3 -5 -7 -6q-38 -10 -55 -5q-71 -7 -133 -7q-19 -30 -55 -86q-7 -12 -8 -14q-15 -33 13 -57q14 -12 20 -16q94 -63 109 -72q43 -28 71 -34q19 5 38 85q30 140 42 253l6 48v32q5 111 1 200q-4 110 -5 165l-3 273q10 796 9 836q-1 27 1.5 76.5t2.5 59.5
q12 8 22 -2l36 -35q35 -35 73.5 -70.5t61.5 -53.5q64 -50 84 -156q2 -14 47.5 -190.5t51.5 -206.5q11 -52 40 -147t34 -113q7 -26 19 -74.5t16 -64.5q1 -6 3 -12.5t4.5 -15t4.5 -15.5q2 4 7 11.5t6 11.5q2 8 15.5 66t20.5 89q4 20 19.5 96t26.5 117q25 92 65 311
q19 100 28 157q3 18 16 31q45 45 66 68q89 97 163 165q29 27 44 35q5 -3 6.5 -6.5t1 -8.5t-0.5 -7q1 -5 -3 -65.5t-4 -64.5q0 -129 -1 -386.5t-1 -386.5l-3 -738q0 -36 12 -106.5t27 -86.5z" />
    <glyph glyph-name="N" unicode="N" horiz-adv-x="872" 
d="M577 563q1 0 3.5 -1t3.5 -1q2 12 2 20l3 162q-1 32 -3.5 90.5t-3.5 76.5q-2 58 -4 178q-2 81 0 162q1 47 3.5 140t3.5 138q0 7 1 26t0 29q-1 39 -42 48q-11 3 -34 5q-4 0 -12 0.5t-12 1.5q-4 12 11 21q98 55 119 65q33 15 95.5 40l82.5 33q48 21 83 50q2 2 6.5 2t5.5 -1
q6 -8 4 -13q-6 -12 -15 -24q-5 -7 -17 -22.5t-18 -23.5q-58 -79 -58 -171q-2 -480 -4 -718q-3 -249 -3 -250q1 -123 7 -369q1 -37 -19 -71q-22 -37 -75 -142q-26 -52 -48 -87q-12 -1 -16 12q-56 147 -106 335q-25 95 -73 269.5t-67 245.5q-15 57 -40.5 160.5t-33.5 136.5
l-10 35q-8 -4 -8 -18q0 -153 1 -167q6 -69 7.5 -145t1.5 -172t1 -146q2 -117 7 -175q8 -85 24 -132q21 -63 72 -79q1 -1 6 -5q1 -1 1 -3q-1 -1 -2 -3.5t-2 -3.5q-52 -28 -72 -37q-93 -43 -167 -66q-51 -16 -149 -54q-29 -11 -46 8q-2 13 14 23q38 27 79 88q7 11 15 37
q21 71 19 169q-3 282 -7 832q0 89 -1 268t-2 268q0 147 4 235q35 -19 76 -54t86 -79t62 -58q14 -34 58 -228q19 -83 40 -176t46.5 -206.5t39.5 -175.5l66 -291q1 -7 5 -21t5 -21z" />
    <glyph glyph-name="N" unicode="&#xd1;" horiz-adv-x="872" 
d="M577 563q1 0 3.5 -1t3.5 -1q2 12 2 20l3 162q-1 32 -3.5 90.5t-3.5 76.5q-2 58 -4 178q-2 81 0 162q1 47 3.5 140t3.5 138q0 7 1 26t0 29q-1 39 -42 48q-11 3 -34 5q-4 0 -12 0.5t-12 1.5q-4 12 11 21q98 55 119 65q33 15 95.5 40l82.5 33q48 21 83 50q2 2 6.5 2t5.5 -1
q6 -8 4 -13q-6 -12 -15 -24q-5 -7 -17 -22.5t-18 -23.5q-58 -79 -58 -171q-2 -480 -4 -718q-3 -249 -3 -250q1 -123 7 -369q1 -37 -19 -71q-22 -37 -75 -142q-26 -52 -48 -87q-12 -1 -16 12q-56 147 -106 335q-25 95 -73 269.5t-67 245.5q-15 57 -40.5 160.5t-33.5 136.5
l-10 35q-8 -4 -8 -18q0 -153 1 -167q6 -69 7.5 -145t1.5 -172t1 -146q2 -117 7 -175q8 -85 24 -132q21 -63 72 -79q1 -1 6 -5q1 -1 1 -3q-1 -1 -2 -3.5t-2 -3.5q-52 -28 -72 -37q-93 -43 -167 -66q-51 -16 -149 -54q-29 -11 -46 8q-2 13 14 23q38 27 79 88q7 11 15 37
q21 71 19 169q-3 282 -7 832q0 89 -1 268t-2 268q0 147 4 235q35 -19 76 -54t86 -79t62 -58q14 -34 58 -228q19 -83 40 -176t46.5 -206.5t39.5 -175.5l66 -291q1 -7 5 -21t5 -21z" />
    <glyph glyph-name="O" unicode="O" horiz-adv-x="940" 
d="M755 160q-61 -47 -135 -112q-151 -120 -168 -120q-22 0 -207 173t-185 192v65h2q-4 58 -5 87q-1 28 -2.5 502t-0.5 487l-1 -1l7 112q5 4 13.5 12t34.5 32t52 47.5t62 55t68 59t66 55t60 47t46.5 32t29.5 12.5q24 0 120.5 -99.5t181.5 -199.5l84 -100l-12 -1185
q0 -9 -3 -17q2 -12 -30.5 -54.5t-77.5 -81.5zM666 1332v103q0 5 1 16.5t1 19.5t-3 15q-4 10 -18 25.5t-17 20.5q-56 76 -126 148q-1 1 -4 4.5t-4.5 5t-5.5 3t-9 1.5q-2 -1 -9.5 -6t-10.5 -8q-126 -120 -187 -179q-14 -110 -6 -232v-16l3 -123q3 -78 -3 -487q0 -20 0.5 -52.5
t1 -60t1.5 -50t1 -23.5q0 -22 2 -65t2 -65q0 -27 17 -44l120 -123q23 -23 44 -26l88 69q88 69 113 94q6 12 6 38q0 1 -3 55q-1 8 0.5 362.5t2.5 389.5q2 63 2 190z" />
    <glyph glyph-name="O" unicode="&#xd8;" horiz-adv-x="940" 
d="M755 160q-61 -47 -135 -112q-151 -120 -168 -120q-22 0 -207 173t-185 192v65h2q-4 58 -5 87q-1 28 -2.5 502t-0.5 487l-1 -1l7 112q5 4 13.5 12t34.5 32t52 47.5t62 55t68 59t66 55t60 47t46.5 32t29.5 12.5q24 0 120.5 -99.5t181.5 -199.5l84 -100l-12 -1185
q0 -9 -3 -17q2 -12 -30.5 -54.5t-77.5 -81.5zM666 1332v103q0 5 1 16.5t1 19.5t-3 15q-4 10 -18 25.5t-17 20.5q-56 76 -126 148q-1 1 -4 4.5t-4.5 5t-5.5 3t-9 1.5q-2 -1 -9.5 -6t-10.5 -8q-126 -120 -187 -179q-14 -110 -6 -232v-16l3 -123q3 -78 -3 -487q0 -20 0.5 -52.5
t1 -60t1.5 -50t1 -23.5q0 -22 2 -65t2 -65q0 -27 17 -44l120 -123q23 -23 44 -26l88 69q88 69 113 94q6 12 6 38q0 1 -3 55q-1 8 0.5 362.5t2.5 389.5q2 63 2 190z" />
    <glyph glyph-name="O" unicode="&#xd6;" horiz-adv-x="940" 
d="M755 160q-61 -47 -135 -112q-151 -120 -168 -120q-22 0 -207 173t-185 192v65h2q-4 58 -5 87q-1 28 -2.5 502t-0.5 487l-1 -1l7 112q5 4 13.5 12t34.5 32t52 47.5t62 55t68 59t66 55t60 47t46.5 32t29.5 12.5q24 0 120.5 -99.5t181.5 -199.5l84 -100l-12 -1185
q0 -9 -3 -17q2 -12 -30.5 -54.5t-77.5 -81.5zM666 1332v103q0 5 1 16.5t1 19.5t-3 15q-4 10 -18 25.5t-17 20.5q-56 76 -126 148q-1 1 -4 4.5t-4.5 5t-5.5 3t-9 1.5q-2 -1 -9.5 -6t-10.5 -8q-126 -120 -187 -179q-14 -110 -6 -232v-16l3 -123q3 -78 -3 -487q0 -20 0.5 -52.5
t1 -60t1.5 -50t1 -23.5q0 -22 2 -65t2 -65q0 -27 17 -44l120 -123q23 -23 44 -26l88 69q88 69 113 94q6 12 6 38q0 1 -3 55q-1 8 0.5 362.5t2.5 389.5q2 63 2 190z" />
    <glyph glyph-name="O" unicode="&#xd5;" horiz-adv-x="940" 
d="M755 160q-61 -47 -135 -112q-151 -120 -168 -120q-22 0 -207 173t-185 192v65h2q-4 58 -5 87q-1 28 -2.5 502t-0.5 487l-1 -1l7 112q5 4 13.5 12t34.5 32t52 47.5t62 55t68 59t66 55t60 47t46.5 32t29.5 12.5q24 0 120.5 -99.5t181.5 -199.5l84 -100l-12 -1185
q0 -9 -3 -17q2 -12 -30.5 -54.5t-77.5 -81.5zM666 1332v103q0 5 1 16.5t1 19.5t-3 15q-4 10 -18 25.5t-17 20.5q-56 76 -126 148q-1 1 -4 4.5t-4.5 5t-5.5 3t-9 1.5q-2 -1 -9.5 -6t-10.5 -8q-126 -120 -187 -179q-14 -110 -6 -232v-16l3 -123q3 -78 -3 -487q0 -20 0.5 -52.5
t1 -60t1.5 -50t1 -23.5q0 -22 2 -65t2 -65q0 -27 17 -44l120 -123q23 -23 44 -26l88 69q88 69 113 94q6 12 6 38q0 1 -3 55q-1 8 0.5 362.5t2.5 389.5q2 63 2 190z" />
    <glyph glyph-name="O" unicode="&#xd4;" horiz-adv-x="940" 
d="M755 160q-61 -47 -135 -112q-151 -120 -168 -120q-22 0 -207 173t-185 192v65h2q-4 58 -5 87q-1 28 -2.5 502t-0.5 487l-1 -1l7 112q5 4 13.5 12t34.5 32t52 47.5t62 55t68 59t66 55t60 47t46.5 32t29.5 12.5q24 0 120.5 -99.5t181.5 -199.5l84 -100l-12 -1185
q0 -9 -3 -17q2 -12 -30.5 -54.5t-77.5 -81.5zM666 1332v103q0 5 1 16.5t1 19.5t-3 15q-4 10 -18 25.5t-17 20.5q-56 76 -126 148q-1 1 -4 4.5t-4.5 5t-5.5 3t-9 1.5q-2 -1 -9.5 -6t-10.5 -8q-126 -120 -187 -179q-14 -110 -6 -232v-16l3 -123q3 -78 -3 -487q0 -20 0.5 -52.5
t1 -60t1.5 -50t1 -23.5q0 -22 2 -65t2 -65q0 -27 17 -44l120 -123q23 -23 44 -26l88 69q88 69 113 94q6 12 6 38q0 1 -3 55q-1 8 0.5 362.5t2.5 389.5q2 63 2 190z" />
    <glyph glyph-name="O" unicode="&#xd3;" horiz-adv-x="940" 
d="M755 160q-61 -47 -135 -112q-151 -120 -168 -120q-22 0 -207 173t-185 192v65h2q-4 58 -5 87q-1 28 -2.5 502t-0.5 487l-1 -1l7 112q5 4 13.5 12t34.5 32t52 47.5t62 55t68 59t66 55t60 47t46.5 32t29.5 12.5q24 0 120.5 -99.5t181.5 -199.5l84 -100l-12 -1185
q0 -9 -3 -17q2 -12 -30.5 -54.5t-77.5 -81.5zM666 1332v103q0 5 1 16.5t1 19.5t-3 15q-4 10 -18 25.5t-17 20.5q-56 76 -126 148q-1 1 -4 4.5t-4.5 5t-5.5 3t-9 1.5q-2 -1 -9.5 -6t-10.5 -8q-126 -120 -187 -179q-14 -110 -6 -232v-16l3 -123q3 -78 -3 -487q0 -20 0.5 -52.5
t1 -60t1.5 -50t1 -23.5q0 -22 2 -65t2 -65q0 -27 17 -44l120 -123q23 -23 44 -26l88 69q88 69 113 94q6 12 6 38q0 1 -3 55q-1 8 0.5 362.5t2.5 389.5q2 63 2 190z" />
    <glyph glyph-name="O" unicode="&#xd2;" horiz-adv-x="940" 
d="M755 160q-61 -47 -135 -112q-151 -120 -168 -120q-22 0 -207 173t-185 192v65h2q-4 58 -5 87q-1 28 -2.5 502t-0.5 487l-1 -1l7 112q5 4 13.5 12t34.5 32t52 47.5t62 55t68 59t66 55t60 47t46.5 32t29.5 12.5q24 0 120.5 -99.5t181.5 -199.5l84 -100l-12 -1185
q0 -9 -3 -17q2 -12 -30.5 -54.5t-77.5 -81.5zM666 1332v103q0 5 1 16.5t1 19.5t-3 15q-4 10 -18 25.5t-17 20.5q-56 76 -126 148q-1 1 -4 4.5t-4.5 5t-5.5 3t-9 1.5q-2 -1 -9.5 -6t-10.5 -8q-126 -120 -187 -179q-14 -110 -6 -232v-16l3 -123q3 -78 -3 -487q0 -20 0.5 -52.5
t1 -60t1.5 -50t1 -23.5q0 -22 2 -65t2 -65q0 -27 17 -44l120 -123q23 -23 44 -26l88 69q88 69 113 94q6 12 6 38q0 1 -3 55q-1 8 0.5 362.5t2.5 389.5q2 63 2 190z" />
    <glyph glyph-name="P" unicode="P" horiz-adv-x="903" 
d="M892 971q0 -8 0.5 -22.5t0.5 -20.5q-11 -11 -23 -21.5t-26.5 -21.5t-23.5 -18t-26.5 -19.5t-23.5 -16.5t-27.5 -18t-24.5 -16q-36 -23 -122 -75q-36 16 -91 57t-80 54q-9 -3 -9 -14q-6 -71 -8 -150.5t-2.5 -177t-1.5 -150.5q-2 -91 5 -135q17 -104 106 -144l2 -4
q0 -6 -13 -13q-27 -13 -79 -40t-94 -48t-80 -38q-6 -3 -25.5 -12t-29.5 -13t-26.5 -9t-31.5 -6l-16 2q1 2 3 9t4 9q27 27 60 89q17 34 17 63q1 75 2 245t0 200q-9 296 -14 425q-1 8 0 240.5t2 269.5q2 37 -16 134q-2 9 -10 27q-29 57 -95 51q-6 0 -22 -2t-25 -2
q-16 0 -19 13q-3 12 11 21q17 8 19 9q120 43 557 180q45 15 59.5 12t47.5 -33q51 -47 149 -143q15 -15 35 -47q6 -11 6 -23q2 -50 1.5 -245t-3.5 -257q-1 -26 1 -155zM567 1681q-16 -7 -73.5 -25t-84.5 -38v-75q-1 -79 -2 -236.5t-1 -236.5q0 -22 1 -33q3 -23 19 -35
q10 -6 13 -10q16 -21 55.5 -51.5t47.5 -38.5q35 25 36 25q8 6 22.5 18.5t26.5 22.5t24 17q41 25 38 72v21l-9 444q0 4 -1.5 15.5t-0.5 17.5q1 18 -17 36l-74 74q-4 4 -20 16z" />
    <glyph glyph-name="Q" unicode="Q" horiz-adv-x="952" 
d="M937 -81q12 -17 0 -30q-40 8 -169 80q-8 5 -141 82q-150 -120 -166 -120q-22 0 -204.5 173t-182.5 192v65h2q-4 58 -5 87q-1 28 -2.5 502t-0.5 487v-1l6 112q5 4 13.5 12t34.5 32t51.5 47.5t61 55t67 59t65 55t59.5 47t46 32t29 12.5q24 0 119 -100t178 -200l83 -99
l-12 -1185q0 -12 -2 -17q2 -11 -30.5 -54t-76.5 -82q8 -17 19 -33.5t30 -39t25 -30.5q13 -17 103 -141zM673 1335v103q0 5 1 16.5t1 19.5t-3 15q-3 10 -17.5 25.5t-17.5 20.5q-56 78 -124 148q-1 1 -4 4.5t-4.5 5t-5.5 3t-9 1.5q-2 -1 -9.5 -6t-10.5 -8q-62 -59 -185 -180
q-14 -110 -6 -231v-16q1 -20 2 -61t2 -62q2 -59 -4 -487q0 -20 0.5 -52.5t1.5 -60t2 -50t1 -23.5q0 -22 1 -65t2 -65q0 -28 17 -45q40 -42 118 -122q23 -23 44 -26q6 6 20.5 19t20.5 19q-5 27 -19.5 53t-35.5 55.5t-31 47.5q32 37 116 79q19 10 39 -12q12 -14 37 -42.5
t37 -42.5q2 -2 6.5 -6t7.5 -7q6 12 6 38q0 1 -3 55q-1 8 0.5 362.5t2.5 389.5q3 95 3 190z" />
    <glyph glyph-name="R" unicode="R" horiz-adv-x="862" 
d="M802 1432v-280q-20 -19 -58.5 -56t-57.5 -55q10 -20 16 -28q20 -26 62 -78q4 -5 12.5 -14.5t9.5 -10.5q27 -31 25 -75q-2 -52 -4.5 -148t-3.5 -126q0 -12 -1.5 -35t-2.5 -34q-1 -19 -2 -56.5t-1 -56.5q-5 -170 -7 -206q-3 -51 1 -65.5t35 -53.5q60 -76 126 -127
q3 -2 5.5 -4.5t5 -5.5t4.5 -5q1 -1 1.5 -4.5t1.5 -5.5q-13 -2 -15 -2q-7 1 -21 5q-36 13 -73.5 22t-94.5 20.5t-75 15.5q-30 6 -101 25q0 3 -1.5 8.5t-1.5 8.5q-2 205 6 307q2 18 2 28q1 49 3.5 137.5t4.5 161.5t4 137q1 27 -16 49q-15 19 -43.5 55.5t-33.5 42.5
q-11 -8 -56 -38.5t-68 -47.5q-24 -18 -51 -50q-12 -14 -14 -33q-1 -11 -3 -37t-2.5 -40.5t0 -36t3.5 -39.5q2 -13 0 -56q-8 -191 1 -299q1 -12 1.5 -36t1.5 -36q4 -35 10 -60q10 -36 55 -46q7 -1 34 -5q-26 -20 -29 -21q-97 -51 -193.5 -93t-134.5 -49q5 10 8 14q4 6 8 10
q45 51 47 131q5 275 5 331q0 1 -6 169q0 18 -2 54.5t-2 54.5q0 26 -0.5 79t-1.5 79q-1 34 -5 97q-2 38 -2 56v303q0 34 0.5 72.5t1.5 85t1 72.5q0 43 -1 65q0 11 -1 16q-4 37 -23.5 51t-58.5 9q-10 -1 -27.5 -4.5t-27.5 -4.5q-14 -2 -29 5q-9 4 -9 14.5t9 15.5l15 6
q43 18 125.5 41t105.5 30q160 53 398 97q18 3 28 -5l27 -21l126 -123q17 -16 20 -42q11 -93 3 -186q-1 -7 0.5 -21t1.5 -19zM334 1645q0 -76 -2 -340t1 -338q11 -2 29 11q39 29 116.5 87.5t116.5 87.5l3 3q15 11 14 28v20l-9 351q0 22 -15 36q-14 14 -41.5 42t-41.5 41
q-4 4 -13 11.5t-10 8.5q-7 -3 -64 -18t-84 -31z" />
    <glyph glyph-name="S" unicode="S" horiz-adv-x="860" 
d="M817 818q7 -6 7 -15q-5 -468 -5 -532q0 -12 -2 -17q2 -12 -28.5 -55.5t-72.5 -83.5h-1q-52 -45 -126 -115q-141 -123 -158 -123q-8 0 -53 40v-2q-84 77 -191 190.5t-107 127.5v67h2q-4 61 -5 89q0 2 -0.5 18.5t-0.5 44v56.5q3 37 1 103q-2 59 -24 135t-44 99
q-1 4 -0.5 21.5t6.5 35t15 14.5q8 -2 47 -30t103.5 -74t116.5 -79t103 -63q23 -16 23 -18q-6 -4 -35 -4q-32 6 -69 -31q-41 -42 -35 -128q0 -81 -3 -164q0 -9 0.5 -28t0.5 -29q0 -27 17 -45q56 -62 79 -89v-1q2 -3 7.5 -9t8.5 -9q18 -18 27 -22q13 -5 23 3q6 5 48.5 41
t78 67.5t51.5 48.5l3 6q5 13 5 35q0 8 -0.5 17.5t-1.5 21t-1 17.5l-1 18v48t-0.5 71.5t-0.5 90.5v106q0 10 -8 15l-294 201l-258 190q-7 4 -7 15v315l-1 -1l6 109q0 6 5 11q27 28 76 76t120.5 116.5t130 116t74.5 47.5q17 0 69 -53.5t117.5 -134.5t105 -130.5t66.5 -85.5
q4 -6 4 -10q0 -9 -0.5 -36t-1 -79t-0.5 -94v-1q0 -13 1 -27q-5 -89 -101 -123l-202 127q-11 7 -9 18.5t15 14.5q19 5 45 15q24 9 36.5 47t14 64.5t0.5 50.5q0 6 -3 10l-155 203q-5 7 -15 8t-16 -6q-64 -66 -172 -180q-5 -5 -5 -10q-13 -112 -5 -232v-16q0 -4 0.5 -11.5
t0.5 -11.5q0 -10 8 -15l75 -49l273 -191q164 -112 202 -139z" />
    <glyph glyph-name="T" unicode="T" horiz-adv-x="966" 
d="M770 1487q-7 16 8.5 104t24.5 124q0 1 -12 1t-30.5 -0.5l-37 -1t-35 -1t-21.5 -0.5q-3 0 -19 0.5t-29 0.5q-2 -26 -5 -80t-5 -81q-6 -80 -8 -112l-6 -155q0 -6 -0.5 -19t-0.5 -19q-1 -57 -3 -171.5t-3 -171.5q0 -114 -3 -260.5t-5.5 -241t-2.5 -103.5q-1 -15 -1 -44.5
v-43.5q4 -157 63 -189q27 -15 59 -16t52 -0.5t27 -12.5q6 -15 2 -23t-12 -10l-8 -2q-3 0 -7 -0.5t-13.5 -1.5t-14.5 -2l-6 -1q-28 -4 -84.5 -11.5t-85.5 -11.5l-261 -36q-11 -1 -72 -4q-14 7 -14 27q0 14 15 19q5 1 15.5 4t15.5 4q34 8 65 33q16 12 32 37q6 9 10 18t7.5 20
t6 18t3.5 20.5t2 18t1.5 20.5t0.5 18v20v19v546v287v525q0 17 -2 49q-1 15 1.5 42t-0.5 42q0 2 0.5 15.5t-0.5 20.5q-18 0 -40.5 -0.5t-25.5 -0.5q-5 0 -21.5 0.5t-35 1l-37 1t-30.5 0.5t-12 -1q9 -36 24.5 -124t8.5 -104q-15 -34 -81 74q-69 114 -104 222q-20 61 -6 65
q26 7 474 7q447 0 473 -7q23 -6 -34 -138q-62 -142 -116 -207q-31 -37 -41 -16z" />
    <glyph glyph-name="U" unicode="U" horiz-adv-x="993" 
d="M42 1639q-5 1 -14 2.5t-13 2.5q-8 23 -6 29.5t19 14.5q12 6 19 8q35 10 71 25t81.5 37t67.5 32q68 31 122 53q6 3 29 5q4 0 6.5 -4.5t0.5 -7.5q-1 -1 -2.5 -4.5t-3.5 -5.5l-19.5 -19.5t-23 -22.5t-20.5 -18q-31 -27 -36 -70l-6 -63q-8 -180 -8 -523q-2 -92 -1 -397.5
t5 -367.5q2 -15 8 -22q11 -15 32 -43.5t34.5 -46t33 -41t38.5 -42.5q1 -1 2 -1.5t3 -2t3 -2.5q3 3 11 9t11 9q76 69 127 145q28 41 33 47q23 29 23 66q0 184 2 548q0 2 3.5 190.5t4.5 321t-4 214.5q-7 1 -24 7t-23.5 6t-24.5 -4q-4 12 9 19q101 51 126 61q13 6 61.5 27.5
t80.5 34t64 22.5q26 9 40 1q0 -1 -0.5 -6.5t-1.5 -7.5q-3 -6 -13 -26.5t-18 -33t-17 -23.5q-27 -32 -33 -67q-9 -57 -15 -467q-1 -63 -1.5 -133.5t-1 -157t-0.5 -133.5q-1 -159 -1 -476q0 -28 -19 -47q-47 -47 -140 -141.5t-139 -141.5q-8 -8 -22 -24t-26 -28t-25 -21
q-2 -1 -6.5 -4.5t-6.5 -5.5q-12 -8 -25 0q-18 12 -30 22q-37 33 -107 103q-6 6 -54 59.5t-78 77.5q-48 39 -89 107q-11 18 -12 37q-3 31 -6.5 103.5t-5.5 144t-3 81.5q-2 40 -2 59q-7 851 -11 883q-3 31 -33 38z" />
    <glyph glyph-name="U" unicode="&#xdc;" horiz-adv-x="993" 
d="M42 1639q-5 1 -14 2.5t-13 2.5q-8 23 -6 29.5t19 14.5q12 6 19 8q35 10 71 25t81.5 37t67.5 32q68 31 122 53q6 3 29 5q4 0 6.5 -4.5t0.5 -7.5q-1 -1 -2.5 -4.5t-3.5 -5.5l-19.5 -19.5t-23 -22.5t-20.5 -18q-31 -27 -36 -70l-6 -63q-8 -180 -8 -523q-2 -92 -1 -397.5
t5 -367.5q2 -15 8 -22q11 -15 32 -43.5t34.5 -46t33 -41t38.5 -42.5q1 -1 2 -1.5t3 -2t3 -2.5q3 3 11 9t11 9q76 69 127 145q28 41 33 47q23 29 23 66q0 184 2 548q0 2 3.5 190.5t4.5 321t-4 214.5q-7 1 -24 7t-23.5 6t-24.5 -4q-4 12 9 19q101 51 126 61q13 6 61.5 27.5
t80.5 34t64 22.5q26 9 40 1q0 -1 -0.5 -6.5t-1.5 -7.5q-3 -6 -13 -26.5t-18 -33t-17 -23.5q-27 -32 -33 -67q-9 -57 -15 -467q-1 -63 -1.5 -133.5t-1 -157t-0.5 -133.5q-1 -159 -1 -476q0 -28 -19 -47q-47 -47 -140 -141.5t-139 -141.5q-8 -8 -22 -24t-26 -28t-25 -21
q-2 -1 -6.5 -4.5t-6.5 -5.5q-12 -8 -25 0q-18 12 -30 22q-37 33 -107 103q-6 6 -54 59.5t-78 77.5q-48 39 -89 107q-11 18 -12 37q-3 31 -6.5 103.5t-5.5 144t-3 81.5q-2 40 -2 59q-7 851 -11 883q-3 31 -33 38z" />
    <glyph glyph-name="U" unicode="&#xdb;" horiz-adv-x="993" 
d="M42 1639q-5 1 -14 2.5t-13 2.5q-8 23 -6 29.5t19 14.5q12 6 19 8q35 10 71 25t81.5 37t67.5 32q68 31 122 53q6 3 29 5q4 0 6.5 -4.5t0.5 -7.5q-1 -1 -2.5 -4.5t-3.5 -5.5l-19.5 -19.5t-23 -22.5t-20.5 -18q-31 -27 -36 -70l-6 -63q-8 -180 -8 -523q-2 -92 -1 -397.5
t5 -367.5q2 -15 8 -22q11 -15 32 -43.5t34.5 -46t33 -41t38.5 -42.5q1 -1 2 -1.5t3 -2t3 -2.5q3 3 11 9t11 9q76 69 127 145q28 41 33 47q23 29 23 66q0 184 2 548q0 2 3.5 190.5t4.5 321t-4 214.5q-7 1 -24 7t-23.5 6t-24.5 -4q-4 12 9 19q101 51 126 61q13 6 61.5 27.5
t80.5 34t64 22.5q26 9 40 1q0 -1 -0.5 -6.5t-1.5 -7.5q-3 -6 -13 -26.5t-18 -33t-17 -23.5q-27 -32 -33 -67q-9 -57 -15 -467q-1 -63 -1.5 -133.5t-1 -157t-0.5 -133.5q-1 -159 -1 -476q0 -28 -19 -47q-47 -47 -140 -141.5t-139 -141.5q-8 -8 -22 -24t-26 -28t-25 -21
q-2 -1 -6.5 -4.5t-6.5 -5.5q-12 -8 -25 0q-18 12 -30 22q-37 33 -107 103q-6 6 -54 59.5t-78 77.5q-48 39 -89 107q-11 18 -12 37q-3 31 -6.5 103.5t-5.5 144t-3 81.5q-2 40 -2 59q-7 851 -11 883q-3 31 -33 38z" />
    <glyph glyph-name="U" unicode="&#xda;" horiz-adv-x="993" 
d="M42 1639q-5 1 -14 2.5t-13 2.5q-8 23 -6 29.5t19 14.5q12 6 19 8q35 10 71 25t81.5 37t67.5 32q68 31 122 53q6 3 29 5q4 0 6.5 -4.5t0.5 -7.5q-1 -1 -2.5 -4.5t-3.5 -5.5l-19.5 -19.5t-23 -22.5t-20.5 -18q-31 -27 -36 -70l-6 -63q-8 -180 -8 -523q-2 -92 -1 -397.5
t5 -367.5q2 -15 8 -22q11 -15 32 -43.5t34.5 -46t33 -41t38.5 -42.5q1 -1 2 -1.5t3 -2t3 -2.5q3 3 11 9t11 9q76 69 127 145q28 41 33 47q23 29 23 66q0 184 2 548q0 2 3.5 190.5t4.5 321t-4 214.5q-7 1 -24 7t-23.5 6t-24.5 -4q-4 12 9 19q101 51 126 61q13 6 61.5 27.5
t80.5 34t64 22.5q26 9 40 1q0 -1 -0.5 -6.5t-1.5 -7.5q-3 -6 -13 -26.5t-18 -33t-17 -23.5q-27 -32 -33 -67q-9 -57 -15 -467q-1 -63 -1.5 -133.5t-1 -157t-0.5 -133.5q-1 -159 -1 -476q0 -28 -19 -47q-47 -47 -140 -141.5t-139 -141.5q-8 -8 -22 -24t-26 -28t-25 -21
q-2 -1 -6.5 -4.5t-6.5 -5.5q-12 -8 -25 0q-18 12 -30 22q-37 33 -107 103q-6 6 -54 59.5t-78 77.5q-48 39 -89 107q-11 18 -12 37q-3 31 -6.5 103.5t-5.5 144t-3 81.5q-2 40 -2 59q-7 851 -11 883q-3 31 -33 38z" />
    <glyph glyph-name="U" unicode="&#xd9;" horiz-adv-x="993" 
d="M42 1639q-5 1 -14 2.5t-13 2.5q-8 23 -6 29.5t19 14.5q12 6 19 8q35 10 71 25t81.5 37t67.5 32q68 31 122 53q6 3 29 5q4 0 6.5 -4.5t0.5 -7.5q-1 -1 -2.5 -4.5t-3.5 -5.5l-19.5 -19.5t-23 -22.5t-20.5 -18q-31 -27 -36 -70l-6 -63q-8 -180 -8 -523q-2 -92 -1 -397.5
t5 -367.5q2 -15 8 -22q11 -15 32 -43.5t34.5 -46t33 -41t38.5 -42.5q1 -1 2 -1.5t3 -2t3 -2.5q3 3 11 9t11 9q76 69 127 145q28 41 33 47q23 29 23 66q0 184 2 548q0 2 3.5 190.5t4.5 321t-4 214.5q-7 1 -24 7t-23.5 6t-24.5 -4q-4 12 9 19q101 51 126 61q13 6 61.5 27.5
t80.5 34t64 22.5q26 9 40 1q0 -1 -0.5 -6.5t-1.5 -7.5q-3 -6 -13 -26.5t-18 -33t-17 -23.5q-27 -32 -33 -67q-9 -57 -15 -467q-1 -63 -1.5 -133.5t-1 -157t-0.5 -133.5q-1 -159 -1 -476q0 -28 -19 -47q-47 -47 -140 -141.5t-139 -141.5q-8 -8 -22 -24t-26 -28t-25 -21
q-2 -1 -6.5 -4.5t-6.5 -5.5q-12 -8 -25 0q-18 12 -30 22q-37 33 -107 103q-6 6 -54 59.5t-78 77.5q-48 39 -89 107q-11 18 -12 37q-3 31 -6.5 103.5t-5.5 144t-3 81.5q-2 40 -2 59q-7 851 -11 883q-3 31 -33 38z" />
    <glyph glyph-name="V" unicode="V" horiz-adv-x="745" 
d="M957 1845q1 -14 -11 -24q-26 -18 -76 -56q-56 -59 -67 -108l-291 -1481l-58 -199q-43 -136 -56 -135q-2 0 -3 6l-105 210l-1 1q-60 196 -68 237q-30 158 -43 238q-8 47 -22 141l-21 141q-3 16 -48 289q-31 201 -33 212q-6 34 -18.5 99.5t-14.5 73.5q-4 19 -10 57
q-9 61 -64 104q-9 7 -56 37q-5 4 -16 9.5t-16 9.5q17 25 47 34q7 2 21 5t21 5q44 12 133 35t133 34q28 8 41 6q1 -9 2 -10.5t-5 -7.5t-6 -7q-31 -40 -53 -88q-2 -34 4 -73q2 -13 9 -61t19 -133.5t23 -159.5q22 -117 51 -331q1 -11 4 -33t4 -33q1 -5 2 -15.5t2 -16.5
q11 -76 26.5 -185.5t26 -179.5t15.5 -108q9 16 10 22q6 32 17.5 98t17.5 98q8 44 23.5 132.5t23.5 132.5q3 14 16.5 87t19.5 112q6 35 15.5 106t15.5 106q20 112 34 223q14 101 14 127q0 51 -57 55q-23 2 -34 6q-9 3 -9.5 12t7.5 14t11 6q10 4 61 23t79 28q39 13 136 41
q13 4 40.5 11.5t41.5 11.5q30 9 78 27q15 -2 17 -18z" />
    <glyph glyph-name="W" unicode="W" horiz-adv-x="1114" 
d="M470 1800q-98 -56 -117 -92q-8 -54 -3.5 -282t17 -485.5t20.5 -257.5q12 0 77 117.5t65 137.5q0 12 -20.5 223.5t-20.5 228.5q0 24 16.5 45.5t33.5 21.5q10 0 65 -271t105 -542l51 -271q97 1056 108 1137q14 105 -67 136q-19 7 -26 19t-3.5 22t12.5 16q16 11 180 69
t198 59q36 1 21 -23q-12 -22 -43 -38q-16 -8 -29.5 -29.5t-19.5 -38.5l-5 -18q-211 -1772 -248 -1772q-16 0 -60 56.5t-80 113.5l-36 56l-132 492q-212 -671 -248 -671q-16 0 -34.5 95t-28.5 190l-10 96q-50 1074 -64 1167q-10 63 -33.5 84t-56.5 16q-17 -2 -29 3t-15 13
t0 15q8 14 204 103t237 88t31 -17q-4 -6 -12 -12z" />
    <glyph glyph-name="X" unicode="X" horiz-adv-x="925" 
d="M66 491q1 29 1.5 61.5t1 70t0.5 58.5q8 12 18 23.5t18 20.5t20.5 20.5t19.5 18.5t22 18.5t21 16.5t23.5 17.5t21.5 15.5t23.5 16.5t22.5 15.5q38 27 44 46q-1 6 -4.5 11.5t-6 8t-8.5 7.5t-8 7q-122 108 -184 161q-23 20 -22 48q2 45 4 133t4 133q4 111 5 169v25
q-2 24 -15 36t-39 17q-3 0 -10 0.5t-11 1t-10 3.5t-10 8q6 14 9 17q30 24 47 34q45 27 187 108q20 11 62 29q25 12 61 2q0 -15 -2 -21q-10 -29 -14 -35q-35 -52 -37 -142q0 -31 -5.5 -159.5t-5.5 -148.5v-182q-1 -21 -0.5 -36.5t10 -32.5t31.5 -39q51 -55 114 -88
q172 115 222 154q0 7 -2.5 31.5t-1.5 37.5q1 40 0.5 198.5t-1.5 168.5q-4 26 -9 37q-13 30 -42 26q-26 -3 -38 18q5 15 31 29q74 42 184 135q25 21 50 38q29 20 60 19q24 -2 17 -22q-3 -9 -8 -20q-40 -85 -41 -176q0 -36 -3.5 -105t-6 -120t-2.5 -54q4 -33 0.5 -139.5
t-3.5 -139.5q0 -3 -1.5 -9.5t-1.5 -8.5q-42 -27 -107.5 -73.5t-112 -81.5t-45.5 -36l222 -192q23 -20 23 -48q0 -17 0.5 -50.5t0.5 -50.5q0 -52 -3 -106q0 -5 -2 -17.5t-2 -19.5v-136q0 -49 -2 -147q-2 -122 40 -233q16 -43 44 -129q1 -4 1 -12q0 -5 -6.5 -9t-10.5 -1
q-9 6 -36.5 19.5t-40.5 24.5q-101 86 -194 210q-14 17 -14 47q0 18 2 93t3 139.5t1 84.5q0 9 -2.5 68.5t-6 136t-4.5 111.5q-46 55 -137 111q-19 11 -29 11.5t-28 -11.5q-23 -15 -68.5 -47t-68.5 -47q-17 -11 -21 -31q-10 -41 -7 -76q3 -24 1 -54q-6 -160 -10 -245
q-1 -20 0.5 -44.5t3 -41t6 -46t5.5 -41.5q2 -15 7 -24q16 -29 44 -25q23 3 37 -17q-3 -2 -7.5 -7.5t-6.5 -8.5q-4 -4 -18 -12q-69 -39 -179 -128q-21 -17 -74 -50q-27 -17 -58 -2q0 14 2 17q46 79 50 230q0 22 1 65.5t2 65.5q1 11 2 33.5t1 33.5q2 22 1 34q-5 67 -1 173z
" />
    <glyph glyph-name="Y" unicode="Y" horiz-adv-x="886" 
d="M306 941q67 -67 121 -100q13 6 40 23.5t51 34.5t46 33t23 17q54 36 52 124q-3 95 7 285q2 37 -1.5 116.5t-5.5 97.5q-3 23 -12 42q-11 26 -36 22q-20 -2 -38 16q8 13 9 14q29 24 33 26q66 42 141 111q27 26 67 57q34 27 67 18q12 -9 5 -25q-16 -40 -23 -60
q-20 -56 -22 -116q0 -3 -9 -262q0 -6 -1 -17.5t-1 -17.5q-1 -52 -2 -156.5t-1 -156.5q0 -23 -4 -83q-9 -9 -41 -36q-20 -20 -188 -159q-52 -43 -44 -101q2 -14 -5 -222q-4 -134 -2 -237q0 -10 1 -30t1 -30q-2 -107 62 -194l3 -6t3 -7q-11 1 -27 3q-17 2 -78.5 0t-67.5 -2
q-31 2 -43 -1q-10 -3 -139 1l-3 3q-3 2 -1.5 5.5t1.5 4t4 3.5l3 3q69 67 83 171q8 58 10 150q0 17 2 68t2 54q-2 106 -2 159q0 25 0.5 75t0.5 75q0 8 -5 15q-14 20 -20 26q-64 60 -98 89q-4 4 -139 115q0 1 -3.5 74t0.5 73q1 9 3 56.5t3 57.5q0 5 0.5 46.5t1.5 98.5t1 81
q0 21 2 58t2 49v12.5v15v12.5q-2 25 -15.5 37.5t-41.5 15.5q-11 0 -13 1q-15 7 -16 10q-3 8 6 17q22 22 35 30q90 58 196 124q22 13 55 25q26 10 50 -4q0 -31 -18 -60q-30 -49 -32 -126q-10 -351 -10 -352q1 -24 1 -71.5t1 -71.5q0 -1 0.5 -18t1.5 -41t1.5 -54t1 -56
t-0.5 -48q0 -21 9 -30z" />
    <glyph glyph-name="Y" unicode="&#x178;" horiz-adv-x="886" 
d="M306 941q67 -67 121 -100q13 6 40 23.5t51 34.5t46 33t23 17q54 36 52 124q-3 95 7 285q2 37 -1.5 116.5t-5.5 97.5q-3 23 -12 42q-11 26 -36 22q-20 -2 -38 16q8 13 9 14q29 24 33 26q66 42 141 111q27 26 67 57q34 27 67 18q12 -9 5 -25q-16 -40 -23 -60
q-20 -56 -22 -116q0 -3 -9 -262q0 -6 -1 -17.5t-1 -17.5q-1 -52 -2 -156.5t-1 -156.5q0 -23 -4 -83q-9 -9 -41 -36q-20 -20 -188 -159q-52 -43 -44 -101q2 -14 -5 -222q-4 -134 -2 -237q0 -10 1 -30t1 -30q-2 -107 62 -194l3 -6t3 -7q-11 1 -27 3q-17 2 -78.5 0t-67.5 -2
q-31 2 -43 -1q-10 -3 -139 1l-3 3q-3 2 -1.5 5.5t1.5 4t4 3.5l3 3q69 67 83 171q8 58 10 150q0 17 2 68t2 54q-2 106 -2 159q0 25 0.5 75t0.5 75q0 8 -5 15q-14 20 -20 26q-64 60 -98 89q-4 4 -139 115q0 1 -3.5 74t0.5 73q1 9 3 56.5t3 57.5q0 5 0.5 46.5t1.5 98.5t1 81
q0 21 2 58t2 49v12.5v15v12.5q-2 25 -15.5 37.5t-41.5 15.5q-11 0 -13 1q-15 7 -16 10q-3 8 6 17q22 22 35 30q90 58 196 124q22 13 55 25q26 10 50 -4q0 -31 -18 -60q-30 -49 -32 -126q-10 -351 -10 -352q1 -24 1 -71.5t1 -71.5q0 -1 0.5 -18t1.5 -41t1.5 -54t1 -56
t-0.5 -48q0 -21 9 -30z" />
    <glyph glyph-name="Y" unicode="&#xdd;" horiz-adv-x="886" 
d="M306 941q67 -67 121 -100q13 6 40 23.5t51 34.5t46 33t23 17q54 36 52 124q-3 95 7 285q2 37 -1.5 116.5t-5.5 97.5q-3 23 -12 42q-11 26 -36 22q-20 -2 -38 16q8 13 9 14q29 24 33 26q66 42 141 111q27 26 67 57q34 27 67 18q12 -9 5 -25q-16 -40 -23 -60
q-20 -56 -22 -116q0 -3 -9 -262q0 -6 -1 -17.5t-1 -17.5q-1 -52 -2 -156.5t-1 -156.5q0 -23 -4 -83q-9 -9 -41 -36q-20 -20 -188 -159q-52 -43 -44 -101q2 -14 -5 -222q-4 -134 -2 -237q0 -10 1 -30t1 -30q-2 -107 62 -194l3 -6t3 -7q-11 1 -27 3q-17 2 -78.5 0t-67.5 -2
q-31 2 -43 -1q-10 -3 -139 1l-3 3q-3 2 -1.5 5.5t1.5 4t4 3.5l3 3q69 67 83 171q8 58 10 150q0 17 2 68t2 54q-2 106 -2 159q0 25 0.5 75t0.5 75q0 8 -5 15q-14 20 -20 26q-64 60 -98 89q-4 4 -139 115q0 1 -3.5 74t0.5 73q1 9 3 56.5t3 57.5q0 5 0.5 46.5t1.5 98.5t1 81
q0 21 2 58t2 49v12.5v15v12.5q-2 25 -15.5 37.5t-41.5 15.5q-11 0 -13 1q-15 7 -16 10q-3 8 6 17q22 22 35 30q90 58 196 124q22 13 55 25q26 10 50 -4q0 -31 -18 -60q-30 -49 -32 -126q-10 -351 -10 -352q1 -24 1 -71.5t1 -71.5q0 -1 0.5 -18t1.5 -41t1.5 -54t1 -56
t-0.5 -48q0 -21 9 -30z" />
    <glyph glyph-name="Z" unicode="Z" horiz-adv-x="968" 
d="M933 134q42 -160 19 -167q-7 -2 -50.5 19t-76.5 17q-54 -7 -455 -108q-337 -89 -357 -90q-19 0 29 89l558 1741q-11 0 -35 -2q-50 -8 -176 -28t-137 -22q-31 -5 -78 -44.5t-51 -65.5q-1 -7 -3 -33.5t-4 -43t-10.5 -34t-22.5 -21.5t-23 3.5t-12.5 27t-4.5 30t-2 30.5v6
q0 2 -0.5 5.5t-0.5 5.5q-2 36 -4 216q-6 164 27 173q17 5 35.5 -14t39.5 -44t40 -29q34 -8 432 46q33 5 98.5 15.5t98.5 15.5q11 2 23 3t27 1.5t23 1.5q15 -6 15 -23q0 -9 -4 -13l-586 -1747l389 92q4 1 10 3t23 10t31.5 17.5t29.5 26t23 35.5q11 28 16 56t7 42t9 19
q10 8 44 -81.5t46 -136.5z" />
    <glyph glyph-name="a" unicode="a" horiz-adv-x="841" 
d="M811 308l6 -13q-63 -155 -111 -235q-11 -19 -22 -35t-18.5 -25.5t-14.5 -18t-10.5 -12t-8.5 -7.5l-4 -4l-10 -1l-103 237q-306 -211 -331 -229q-12 -7 -18.5 -3t-7.5 12l-2 9q-47 270 -77 441h-1q-12 55 -21 125q0 3 -0.5 6t-1 4.5t-0.5 2.5q-2 9 -2 24q-3 89 30.5 247
t75.5 187q59 41 379 166q8 4 12 5l2 1v-1q8 1 16.5 -1t13.5 -5l4 -3q25 -31 53 -67q27 79 43 86q38 16 57 -23q9 -19 32 -76.5t28 -69.5q15 -33 3 -44q-4 -5 -12 3q-7 7 -17 20.5t-17 24.5l-6 10q-16 -114 -26 -234l-13 -550q11 -14 23 -13q17 2 55 45l1 1q11 18 21 13z
M559 878q2 17 1 28.5t-4 16.5l-3 5q-22 31 -52 78q-8 12 -17.5 15t-15.5 0l-5 -3q-75 -52 -118 -76q-39 -22 -49 -82v-3l-1 -5q-10 -57 -17 -107l-1 -8v2q-8 -64 -9 -90q0 -43 13 -219q21 -212 40 -225q9 -6 48.5 21.5t74.5 57.5l36 31l66 462q10 86 13 101z" />
    <glyph glyph-name="a" unicode="&#xe5;" horiz-adv-x="841" 
d="M811 308l6 -13q-63 -155 -111 -235q-11 -19 -22 -35t-18.5 -25.5t-14.5 -18t-10.5 -12t-8.5 -7.5l-4 -4l-10 -1l-103 237q-306 -211 -331 -229q-12 -7 -18.5 -3t-7.5 12l-2 9q-47 270 -77 441h-1q-12 55 -21 125q0 3 -0.5 6t-1 4.5t-0.5 2.5q-2 9 -2 24q-3 89 30.5 247
t75.5 187q59 41 379 166q8 4 12 5l2 1v-1q8 1 16.5 -1t13.5 -5l4 -3q25 -31 53 -67q27 79 43 86q38 16 57 -23q9 -19 32 -76.5t28 -69.5q15 -33 3 -44q-4 -5 -12 3q-7 7 -17 20.5t-17 24.5l-6 10q-16 -114 -26 -234l-13 -550q11 -14 23 -13q17 2 55 45l1 1q11 18 21 13z
M559 878q2 17 1 28.5t-4 16.5l-3 5q-22 31 -52 78q-8 12 -17.5 15t-15.5 0l-5 -3q-75 -52 -118 -76q-39 -22 -49 -82v-3l-1 -5q-10 -57 -17 -107l-1 -8v2q-8 -64 -9 -90q0 -43 13 -219q21 -212 40 -225q9 -6 48.5 21.5t74.5 57.5l36 31l66 462q10 86 13 101z" />
    <glyph glyph-name="a" unicode="&#xe4;" horiz-adv-x="841" 
d="M811 308l6 -13q-63 -155 -111 -235q-11 -19 -22 -35t-18.5 -25.5t-14.5 -18t-10.5 -12t-8.5 -7.5l-4 -4l-10 -1l-103 237q-306 -211 -331 -229q-12 -7 -18.5 -3t-7.5 12l-2 9q-47 270 -77 441h-1q-12 55 -21 125q0 3 -0.5 6t-1 4.5t-0.5 2.5q-2 9 -2 24q-3 89 30.5 247
t75.5 187q59 41 379 166q8 4 12 5l2 1v-1q8 1 16.5 -1t13.5 -5l4 -3q25 -31 53 -67q27 79 43 86q38 16 57 -23q9 -19 32 -76.5t28 -69.5q15 -33 3 -44q-4 -5 -12 3q-7 7 -17 20.5t-17 24.5l-6 10q-16 -114 -26 -234l-13 -550q11 -14 23 -13q17 2 55 45l1 1q11 18 21 13z
M559 878q2 17 1 28.5t-4 16.5l-3 5q-22 31 -52 78q-8 12 -17.5 15t-15.5 0l-5 -3q-75 -52 -118 -76q-39 -22 -49 -82v-3l-1 -5q-10 -57 -17 -107l-1 -8v2q-8 -64 -9 -90q0 -43 13 -219q21 -212 40 -225q9 -6 48.5 21.5t74.5 57.5l36 31l66 462q10 86 13 101z" />
    <glyph glyph-name="a" unicode="&#xe3;" horiz-adv-x="841" 
d="M811 308l6 -13q-63 -155 -111 -235q-11 -19 -22 -35t-18.5 -25.5t-14.5 -18t-10.5 -12t-8.5 -7.5l-4 -4l-10 -1l-103 237q-306 -211 -331 -229q-12 -7 -18.5 -3t-7.5 12l-2 9q-47 270 -77 441h-1q-12 55 -21 125q0 3 -0.5 6t-1 4.5t-0.5 2.5q-2 9 -2 24q-3 89 30.5 247
t75.5 187q59 41 379 166q8 4 12 5l2 1v-1q8 1 16.5 -1t13.5 -5l4 -3q25 -31 53 -67q27 79 43 86q38 16 57 -23q9 -19 32 -76.5t28 -69.5q15 -33 3 -44q-4 -5 -12 3q-7 7 -17 20.5t-17 24.5l-6 10q-16 -114 -26 -234l-13 -550q11 -14 23 -13q17 2 55 45l1 1q11 18 21 13z
M559 878q2 17 1 28.5t-4 16.5l-3 5q-22 31 -52 78q-8 12 -17.5 15t-15.5 0l-5 -3q-75 -52 -118 -76q-39 -22 -49 -82v-3l-1 -5q-10 -57 -17 -107l-1 -8v2q-8 -64 -9 -90q0 -43 13 -219q21 -212 40 -225q9 -6 48.5 21.5t74.5 57.5l36 31l66 462q10 86 13 101z" />
    <glyph glyph-name="a" unicode="&#xe2;" horiz-adv-x="841" 
d="M811 308l6 -13q-63 -155 -111 -235q-11 -19 -22 -35t-18.5 -25.5t-14.5 -18t-10.5 -12t-8.5 -7.5l-4 -4l-10 -1l-103 237q-306 -211 -331 -229q-12 -7 -18.5 -3t-7.5 12l-2 9q-47 270 -77 441h-1q-12 55 -21 125q0 3 -0.5 6t-1 4.5t-0.5 2.5q-2 9 -2 24q-3 89 30.5 247
t75.5 187q59 41 379 166q8 4 12 5l2 1v-1q8 1 16.5 -1t13.5 -5l4 -3q25 -31 53 -67q27 79 43 86q38 16 57 -23q9 -19 32 -76.5t28 -69.5q15 -33 3 -44q-4 -5 -12 3q-7 7 -17 20.5t-17 24.5l-6 10q-16 -114 -26 -234l-13 -550q11 -14 23 -13q17 2 55 45l1 1q11 18 21 13z
M559 878q2 17 1 28.5t-4 16.5l-3 5q-22 31 -52 78q-8 12 -17.5 15t-15.5 0l-5 -3q-75 -52 -118 -76q-39 -22 -49 -82v-3l-1 -5q-10 -57 -17 -107l-1 -8v2q-8 -64 -9 -90q0 -43 13 -219q21 -212 40 -225q9 -6 48.5 21.5t74.5 57.5l36 31l66 462q10 86 13 101z" />
    <glyph glyph-name="a" unicode="&#xe1;" horiz-adv-x="841" 
d="M811 308l6 -13q-63 -155 -111 -235q-11 -19 -22 -35t-18.5 -25.5t-14.5 -18t-10.5 -12t-8.5 -7.5l-4 -4l-10 -1l-103 237q-306 -211 -331 -229q-12 -7 -18.5 -3t-7.5 12l-2 9q-47 270 -77 441h-1q-12 55 -21 125q0 3 -0.5 6t-1 4.5t-0.5 2.5q-2 9 -2 24q-3 89 30.5 247
t75.5 187q59 41 379 166q8 4 12 5l2 1v-1q8 1 16.5 -1t13.5 -5l4 -3q25 -31 53 -67q27 79 43 86q38 16 57 -23q9 -19 32 -76.5t28 -69.5q15 -33 3 -44q-4 -5 -12 3q-7 7 -17 20.5t-17 24.5l-6 10q-16 -114 -26 -234l-13 -550q11 -14 23 -13q17 2 55 45l1 1q11 18 21 13z
M559 878q2 17 1 28.5t-4 16.5l-3 5q-22 31 -52 78q-8 12 -17.5 15t-15.5 0l-5 -3q-75 -52 -118 -76q-39 -22 -49 -82v-3l-1 -5q-10 -57 -17 -107l-1 -8v2q-8 -64 -9 -90q0 -43 13 -219q21 -212 40 -225q9 -6 48.5 21.5t74.5 57.5l36 31l66 462q10 86 13 101z" />
    <glyph glyph-name="a" unicode="&#xe0;" horiz-adv-x="841" 
d="M811 308l6 -13q-63 -155 -111 -235q-11 -19 -22 -35t-18.5 -25.5t-14.5 -18t-10.5 -12t-8.5 -7.5l-4 -4l-10 -1l-103 237q-306 -211 -331 -229q-12 -7 -18.5 -3t-7.5 12l-2 9q-47 270 -77 441h-1q-12 55 -21 125q0 3 -0.5 6t-1 4.5t-0.5 2.5q-2 9 -2 24q-3 89 30.5 247
t75.5 187q59 41 379 166q8 4 12 5l2 1v-1q8 1 16.5 -1t13.5 -5l4 -3q25 -31 53 -67q27 79 43 86q38 16 57 -23q9 -19 32 -76.5t28 -69.5q15 -33 3 -44q-4 -5 -12 3q-7 7 -17 20.5t-17 24.5l-6 10q-16 -114 -26 -234l-13 -550q11 -14 23 -13q17 2 55 45l1 1q11 18 21 13z
M559 878q2 17 1 28.5t-4 16.5l-3 5q-22 31 -52 78q-8 12 -17.5 15t-15.5 0l-5 -3q-75 -52 -118 -76q-39 -22 -49 -82v-3l-1 -5q-10 -57 -17 -107l-1 -8v2q-8 -64 -9 -90q0 -43 13 -219q21 -212 40 -225q9 -6 48.5 21.5t74.5 57.5l36 31l66 462q10 86 13 101z" />
    <glyph glyph-name="b" unicode="b" horiz-adv-x="819" 
d="M777 946q4 -1 8.5 -6t13 -29.5t-0.5 -67.5q-14 -91 -52 -289t-67 -314q-38 -152 -60.5 -211t-55.5 -69q-4 -1 -10 0q-1 0 -1 -0.5t-1 -0.5t-1 1t-1 1q-33 10 -126 78t-122 99l-3 3q-4 3 -10.5 9t-13.5 13q-77 -193 -124 -246q-3 -7 -10 -10q-13 -10 -23 -5l-8 7
q-1 1 -3 2.5t-3 2.5q-34 32 -52 50q-8 8 -26 23t-27 25q-10 11 -63 64q0 3 -1 5q-6 14 -8 22q0 1 0.5 2t0.5 2l1 1h2q10 2 14 2q14 0 74 -10q12 -3 22 4q7 2 13 8t12 15q1 1 1 2.5t1 2.5q4 11 13.5 33.5t14.5 33.5q9 28 24 103l1 1v1q-3 3 9 60l-1 2v2q-1 17 -1 131
q-1 145 -1 1143q-2 36 -9 47q-5 7 -16.5 9.5t-20.5 1.5l-10 -2q-49 -4 -71 -18q-11 -6 -18 -3t-7 12t9 17q8 7 105.5 42t136.5 57q58 32 143 56t127 17q37 -6 36 -16q-2 -4 -11 -12q-2 -2 -12.5 -3.5t-27.5 -4t-30 -6.5q-24 -8 -43 -26t-24 -40q-1 -2 -1 -5t-1 -4h1
q-1 -1 -1.5 -3.5t-0.5 -3.5q-4 -21 -6 -47q-6 -119 -23 -576q10 8 50 35.5t53 35.5l212 -175zM516 343q4 20 11 53.5t22.5 123t23.5 162t6 142.5t-20 93q-29 36 -64.5 68.5t-56.5 46.5l-20 15l-73 -66l-24 -627q2 -5 5.5 -14t15.5 -32.5t25.5 -42.5t35.5 -38t46 -26
q16 -5 32.5 30.5t25.5 73.5z" />
    <glyph glyph-name="c" unicode="c" horiz-adv-x="745" 
d="M647 447q32 -15 62 -43t44 -49.5t11 -25.5q-2 -3 -8 -1.5t-14.5 3.5t-22.5 -3q-17 -7 -53 -47h1q-20 -30 -56.5 -77.5t-76 -97t-74 -92t-61.5 -75t-28 -33.5q-7 -8 -85 81.5t-154 186t-79 108.5q-5 16 0 362t14 360q11 17 143.5 115t168.5 110q1 1 6 3q23 6 122 -62.5
t163 -120.5q23 -14 26 -22l-5 -176q-105 -124 -117 -126q-40 -39 -77 -47q-27 -12 -39 -1q-3 3 -1 8q1 2 19.5 23t25.5 45q10 35 14 242l-114 92l-103 -106q-9 -19 -15 -37q-6 -526 -18 -623q14 -49 56.5 -118t54.5 -69t50.5 51t63.5 95q14 25 17 56q-10 50 -28 112
q-14 31 -35.5 72t-31.5 60.5t-7 21.5q9 7 29.5 -3.5t35.5 -33.5q31 -48 176 -118z" />
    <glyph glyph-name="c" unicode="&#xe7;" horiz-adv-x="745" 
d="M647 447q32 -15 62 -43t44 -49.5t11 -25.5q-2 -3 -8 -1.5t-14.5 3.5t-22.5 -3q-17 -7 -53 -47h1q-20 -30 -56.5 -77.5t-76 -97t-74 -92t-61.5 -75t-28 -33.5q-7 -8 -85 81.5t-154 186t-79 108.5q-5 16 0 362t14 360q11 17 143.5 115t168.5 110q1 1 6 3q23 6 122 -62.5
t163 -120.5q23 -14 26 -22l-5 -176q-105 -124 -117 -126q-40 -39 -77 -47q-27 -12 -39 -1q-3 3 -1 8q1 2 19.5 23t25.5 45q10 35 14 242l-114 92l-103 -106q-9 -19 -15 -37q-6 -526 -18 -623q14 -49 56.5 -118t54.5 -69t50.5 51t63.5 95q14 25 17 56q-10 50 -28 112
q-14 31 -35.5 72t-31.5 60.5t-7 21.5q9 7 29.5 -3.5t35.5 -33.5q31 -48 176 -118z" />
    <glyph glyph-name="d" unicode="d" horiz-adv-x="778" 
d="M758 94q35 -41 115 -31q-10 -11 -32 -32.5t-32 -32.5q-9 -10 -27 -26t-26 -23q0 -1 -52 -49q-1 -1 -3.5 -3t-3.5 -3l-7 -7q-9 -5 -23 6q-8 3 -11 10q-55 62 -136 277l-71 -58q-134 -139 -185 -154l-1 -1l-1 -1h-1l-1 1q-5 -1 -9 0q-33 10 -56 70t-61 210
q-29 115 -66.5 311.5t-51.5 291.5q-5 45 -1 67.5t13 28.5l8 7l123 67l154 84q10 7 20 11l87 48q35 -20 73 -60l1 58h1q2 77 5.5 195.5t5.5 191.5t3 111q0 35 -7 47q-4 7 -15.5 9.5t-20.5 1.5l-10 -1q-48 -3 -70 -16q-11 -5 -18 -2t-6.5 12t9.5 16q8 7 104.5 38.5t135.5 51.5
q58 30 141 51.5t124 12.5q34 -7 35 -16q0 -3 -11 -12q-2 -2 -12.5 -3t-26.5 -3t-29 -6q-24 -7 -43 -23.5t-25 -38.5q0 -2 -1 -5t-1 -4h1q-1 -1 -2 -3.5t-1 -3.5q-1 -7 -2.5 -15t-2.5 -17.5t-2 -13.5q-13 -180 -63 -925q-7 -100 -17 -282q-2 -84 3 -152q4 -13 8.5 -38.5
t2.5 -28.5v-2q13 -67 25 -103q4 -11 14 -33.5t14 -33.5q0 -1 1 -3t1 -3q4 -6 12 -14zM485 877l4 77h-1l1 12l-67 73q-10 -4 -25.5 -12t-56 -38t-69.5 -66q-18 -23 -22.5 -90.5t3 -147.5t18 -156.5t19.5 -128.5l9 -51q0 -2 1 -5t3 -13t4.5 -20t6.5 -23t8 -24t9.5 -22
t10.5 -18.5t11 -12t12 -3.5q16 3 46 30t52 52l21 26q-13 86 -15 178q1 19 4 91t5 116q5 102 8 176z" />
    <glyph glyph-name="e" unicode="e" horiz-adv-x="784" 
d="M718 383q72 -189 73 -220q0 -16 -78 -98t-166.5 -158.5t-111.5 -76.5q-7 0 -16 6l-1 -1l-5 5q-20 15 -45 40q-172 154 -249 250q-90 112 -77 121l19 725q30 28 77 71t142.5 117.5t132.5 82.5v-2q6 2 10 -1q23 -14 92 -72.5t136.5 -117.5t73.5 -64q12 -9 16 -19.5t2 -16.5
l-2 -5q-52 -308 -73 -340q-20 -31 -383 -125q-10 -3 -10 -13q-11 -246 -11 -252q1 -25 86.5 -120.5t105.5 -94.5q19 1 87 63.5t68 76.5q0 12 -42 102q-15 32 -19 42q-22 34 -46 34q-43 0 -126 -51q-15 -9 -25 1q-8 8 4 18q115 96 159 143q24 26 62 52t64 39l26 14
q21 6 25 -2q1 -3 -6 -14.5t-5 -26.5v-2q6 -24 16 -53zM486 1004q-47 66 -72 99q-9 11 -20 2q-108 -90 -110 -136q-9 -183 -11 -368q12 -12 75 1q32 7 63 19.5t46 21.5l15 9l52 289q-17 33 -38 63z" />
    <glyph glyph-name="e" unicode="&#xeb;" horiz-adv-x="784" 
d="M718 383q72 -189 73 -220q0 -16 -78 -98t-166.5 -158.5t-111.5 -76.5q-7 0 -16 6l-1 -1l-5 5q-20 15 -45 40q-172 154 -249 250q-90 112 -77 121l19 725q30 28 77 71t142.5 117.5t132.5 82.5v-2q6 2 10 -1q23 -14 92 -72.5t136.5 -117.5t73.5 -64q12 -9 16 -19.5t2 -16.5
l-2 -5q-52 -308 -73 -340q-20 -31 -383 -125q-10 -3 -10 -13q-11 -246 -11 -252q1 -25 86.5 -120.5t105.5 -94.5q19 1 87 63.5t68 76.5q0 12 -42 102q-15 32 -19 42q-22 34 -46 34q-43 0 -126 -51q-15 -9 -25 1q-8 8 4 18q115 96 159 143q24 26 62 52t64 39l26 14
q21 6 25 -2q1 -3 -6 -14.5t-5 -26.5v-2q6 -24 16 -53zM486 1004q-47 66 -72 99q-9 11 -20 2q-108 -90 -110 -136q-9 -183 -11 -368q12 -12 75 1q32 7 63 19.5t46 21.5l15 9l52 289q-17 33 -38 63z" />
    <glyph glyph-name="e" unicode="&#xea;" horiz-adv-x="784" 
d="M718 383q72 -189 73 -220q0 -16 -78 -98t-166.5 -158.5t-111.5 -76.5q-7 0 -16 6l-1 -1l-5 5q-20 15 -45 40q-172 154 -249 250q-90 112 -77 121l19 725q30 28 77 71t142.5 117.5t132.5 82.5v-2q6 2 10 -1q23 -14 92 -72.5t136.5 -117.5t73.5 -64q12 -9 16 -19.5t2 -16.5
l-2 -5q-52 -308 -73 -340q-20 -31 -383 -125q-10 -3 -10 -13q-11 -246 -11 -252q1 -25 86.5 -120.5t105.5 -94.5q19 1 87 63.5t68 76.5q0 12 -42 102q-15 32 -19 42q-22 34 -46 34q-43 0 -126 -51q-15 -9 -25 1q-8 8 4 18q115 96 159 143q24 26 62 52t64 39l26 14
q21 6 25 -2q1 -3 -6 -14.5t-5 -26.5v-2q6 -24 16 -53zM486 1004q-47 66 -72 99q-9 11 -20 2q-108 -90 -110 -136q-9 -183 -11 -368q12 -12 75 1q32 7 63 19.5t46 21.5l15 9l52 289q-17 33 -38 63z" />
    <glyph glyph-name="e" unicode="&#xe9;" horiz-adv-x="784" 
d="M718 383q72 -189 73 -220q0 -16 -78 -98t-166.5 -158.5t-111.5 -76.5q-7 0 -16 6l-1 -1l-5 5q-20 15 -45 40q-172 154 -249 250q-90 112 -77 121l19 725q30 28 77 71t142.5 117.5t132.5 82.5v-2q6 2 10 -1q23 -14 92 -72.5t136.5 -117.5t73.5 -64q12 -9 16 -19.5t2 -16.5
l-2 -5q-52 -308 -73 -340q-20 -31 -383 -125q-10 -3 -10 -13q-11 -246 -11 -252q1 -25 86.5 -120.5t105.5 -94.5q19 1 87 63.5t68 76.5q0 12 -42 102q-15 32 -19 42q-22 34 -46 34q-43 0 -126 -51q-15 -9 -25 1q-8 8 4 18q115 96 159 143q24 26 62 52t64 39l26 14
q21 6 25 -2q1 -3 -6 -14.5t-5 -26.5v-2q6 -24 16 -53zM486 1004q-47 66 -72 99q-9 11 -20 2q-108 -90 -110 -136q-9 -183 -11 -368q12 -12 75 1q32 7 63 19.5t46 21.5l15 9l52 289q-17 33 -38 63z" />
    <glyph glyph-name="e" unicode="&#xe8;" horiz-adv-x="784" 
d="M718 383q72 -189 73 -220q0 -16 -78 -98t-166.5 -158.5t-111.5 -76.5q-7 0 -16 6l-1 -1l-5 5q-20 15 -45 40q-172 154 -249 250q-90 112 -77 121l19 725q30 28 77 71t142.5 117.5t132.5 82.5v-2q6 2 10 -1q23 -14 92 -72.5t136.5 -117.5t73.5 -64q12 -9 16 -19.5t2 -16.5
l-2 -5q-52 -308 -73 -340q-20 -31 -383 -125q-10 -3 -10 -13q-11 -246 -11 -252q1 -25 86.5 -120.5t105.5 -94.5q19 1 87 63.5t68 76.5q0 12 -42 102q-15 32 -19 42q-22 34 -46 34q-43 0 -126 -51q-15 -9 -25 1q-8 8 4 18q115 96 159 143q24 26 62 52t64 39l26 14
q21 6 25 -2q1 -3 -6 -14.5t-5 -26.5v-2q6 -24 16 -53zM486 1004q-47 66 -72 99q-9 11 -20 2q-108 -90 -110 -136q-9 -183 -11 -368q12 -12 75 1q32 7 63 19.5t46 21.5l15 9l52 289q-17 33 -38 63z" />
    <glyph glyph-name="f" unicode="f" horiz-adv-x="710" 
d="M764 1260l1 -13q-72 -307 -99 -367q-4 -11 -16.5 -12.5t-19.5 7.5q-119 136 -149 178l-6 9q-1 1 -2 2.5t-1 2.5q-39 57 -27 70q9 9 25 -6l8 -4q0 -1 1 -2q35 -20 64 -13l1 1q29 8 45.5 64t19.5 98q2 25 -48 70t-83 46q-20 1 -56 -58t-74 -135l-1 -2l-1 -2q-6 -451 3 -460
q4 -4 54 -8.5t119 -9t84 -5.5q52 -5 49 -17q1 -7 -20.5 -16.5t-57 -18.5t-69 -16.5t-69.5 -15t-46 -9.5q-22 -5 -33.5 -28t-11.5 -43v-20q1 -28 2 -75t2 -170.5t0 -223.5t-7.5 -194.5t-17.5 -122.5t-39 -56.5t-69 -54.5t-72.5 -43.5t-76 -39t-53.5 -26.5q-84 -45 -86 -33
q-1 5 6 16q9 15 13 60.5t6.5 102t5.5 76.5q1 6 2.5 18.5t2.5 19t2.5 17t3 16t3 13.5t3.5 12.5l4 9t5 7t6 3.5q9 2 13.5 0.5t4.5 -4.5l1 -3l6 -87q11 -91 34 -88q35 5 56 80q1 2 1 6q1 50 5 410t3 387q-1 29 -15 38t-68 22q-23 6 -34.5 15.5t-11.5 19.5t3 18t8 14
q10 13 105 36q16 4 24 16.5t8 22.5v10q28 306 42 446h-2q5 113 24 130q2 2 8.5 8t11.5 11q200 178 227 189q14 5 23.5 4.5t14.5 -2.5l5 -3l106 -77q3 -1 7 -5l1 -1l3 -1l2 -3q153 -157 154 -207v-1z" />
    <glyph glyph-name="g" unicode="g" horiz-adv-x="815" 
d="M662 -178q-252 -313 -295 -314q-23 0 -113 65t-170 136.5t-80 87.5q0 24 52 189q12 44 15 88t-9 57q-5 3 -13 6t-11 5t-2 8t10 17q19 22 73.5 7t80.5 -47q8 -10 19 -20t19 -16.5t25.5 -17.5t23.5 -15t30.5 -18t29.5 -17q58 -34 86 -81q5 -8 -1 -15t-17 -1q-48 27 -119 16
q-39 -6 -63 -34l-1 -2q-2 -2 -4.5 -5.5t-3.5 -5.5q-39 -97 -39 -109q0 -14 75 -89t94 -75t88.5 109t68.5 134q0 17 -6 85q-16 318 -19 319q-2 -2 -24 -22t-50 -46.5t-44 -42.5q-15 -14 -19.5 -14.5t-21.5 9.5q-12 7 -35 23t-35 24t-57.5 36.5t-69.5 44.5q-4 2 -58 44h-1
q2 30 10 138.5t11 166.5q2 32 4 95t4 94q4 66 14 184q1 14 5 40.5t5 34.5q2 18 18 30q104 69 133 87q12 8 29 4q11 -3 33 -13l66 -33q21 -10 62.5 -29t62.5 -29q8 -4 23 -11t23 -11q19 31 22 36q22 38 64 114q14 25 39 14q9 -18 18.5 -41.5t14 -38t13.5 -45.5t12 -41
q28 -94 51 -194q0 -2 1 -7t2 -7q3 -8 -2 -18t-15 -10l-2 -1q-3 0 -9 2.5t-10 9.5q-25 60 -38 60q-1 -1 -5 -6t-5 -9q-5 -25 -9 -102q-3 -44 -11 -278.5t-14 -446.5l-6 -213q-2 -2 -9.5 -12t-13.5 -17zM487 410q0 1 3 45.5t6 98.5t3 80l-4 336l-144 82q-2 0 -14.5 -14
t-27 -39.5t-14.5 -47.5q0 -1 -3 -112t-6 -234t-5 -197q2 -26 7.5 -54t20.5 -64t36 -42q5 4 14 10.5t32 26t41.5 38.5t35 43t19.5 44z" />
    <glyph glyph-name="h" unicode="h" horiz-adv-x="759" 
d="M760 -143l5 -11l-32 16h-2q-42 18 -69 33q-3 1 -9 4.5t-9 5.5l-99 48v-2l-112 54l68 833q4 23 -33 85q-21 34 -50 41l-124 -65q0 -14 -1 -40t-2 -44.5t-1 -19.5v-5q-17 -587 -9 -634q7 -40 26 -71t35 -42l16 -11q-8 -4 -33 -10q-5 -1 -49.5 -15t-96 -30t-109.5 -32
t-90 -20.5t-37 3.5q0 13 20 30t49.5 48t46.5 72q9 21 15 85.5t7.5 107.5t1.5 56q-4 88 -4 1247q-2 37 -8 46q-5 7 -16.5 9.5t-20.5 0.5l-10 -1q-48 -4 -69 -18q-10 -7 -17.5 -3.5t-7 12t8.5 16.5q8 6 103 41t134 57q56 32 139.5 55.5t124.5 16.5q36 -6 36 -16q-1 -2 -11 -12
q-2 -2 -12.5 -3.5t-26.5 -4t-29 -6.5q-24 -8 -42.5 -25t-23.5 -39q-1 -2 -1 -5t-1 -4h1q0 -1 -1 -3.5t-1 -3.5q-6 -28 -7 -46q-4 -84 -23 -616q153 105 177 105q3 0 5 -2q2 0 4.5 0.5t3.5 0.5q32 -3 133 -101.5t110 -139.5v-1q6 -16 3 -43q-2 -11 -4 -33q-4 -93 -19.5 -282
t-28.5 -332l-13 -143l77 -164q5 -8 10 -19t4 -11z" />
    <glyph glyph-name="i" unicode="i" horiz-adv-x="462" 
d="M516 1262q8 -15 -7 -28q-40 -33 -52 -41q-99 -66 -101 -186q-2 -117 -14 -195q-12 -82 -14 -203q-1 -38 -2 -158t-3 -185q-1 -27 3 -79t4 -78q13 6 73 34.5t92 43.5q1 -1 1.5 -2t1.5 -2q-32 -34 -47 -52q-13 -15 -37 -45q-3 -4 -9 -11.5t-10.5 -13.5t-9.5 -10
q-30 -26 -94.5 -55t-114.5 -45t-50 -11q-3 95 -3 133q0 18 1 55.5t1 66.5t-3 55q-4 12 -2.5 77t1.5 76q-1 26 0 78.5t1 78.5q-4 269 -7 407q0 22 -3 43q-8 43 -50 31q-6 -2 -50 -19q0 48 30 66q38 22 55 24q12 1 27 8q33 14 99.5 42t100.5 42q11 5 31 13.5t36.5 15.5
t31.5 13q12 5 68 22q20 4 25 -6zM99 1223l-36 90q-8 21 -6 31q0 2 18 40q2 4 5 4q37 7 73 22t89 43.5t69 36.5q23 11 48 24t55 29t47 25q29 15 32 -28q-3 -10 -8 -15q-16 -16 -44.5 -46.5t-52 -55t-44.5 -45.5q-104 -108 -188 -175q-37 -31 -57 20z" />
    <glyph glyph-name="i" unicode="&#xef;" horiz-adv-x="462" 
d="M516 1262q8 -15 -7 -28q-40 -33 -52 -41q-99 -66 -101 -186q-2 -117 -14 -195q-12 -82 -14 -203q-1 -38 -2 -158t-3 -185q-1 -27 3 -79t4 -78q13 6 73 34.5t92 43.5q1 -1 1.5 -2t1.5 -2q-32 -34 -47 -52q-13 -15 -37 -45q-3 -4 -9 -11.5t-10.5 -13.5t-9.5 -10
q-30 -26 -94.5 -55t-114.5 -45t-50 -11q-3 95 -3 133q0 18 1 55.5t1 66.5t-3 55q-4 12 -2.5 77t1.5 76q-1 26 0 78.5t1 78.5q-4 269 -7 407q0 22 -3 43q-8 43 -50 31q-6 -2 -50 -19q0 48 30 66q38 22 55 24q12 1 27 8q33 14 99.5 42t100.5 42q11 5 31 13.5t36.5 15.5
t31.5 13q12 5 68 22q20 4 25 -6zM99 1223l-36 90q-8 21 -6 31q0 2 18 40q2 4 5 4q37 7 73 22t89 43.5t69 36.5q23 11 48 24t55 29t47 25q29 15 32 -28q-3 -10 -8 -15q-16 -16 -44.5 -46.5t-52 -55t-44.5 -45.5q-104 -108 -188 -175q-37 -31 -57 20z" />
    <glyph glyph-name="i" unicode="&#xee;" horiz-adv-x="462" 
d="M516 1262q8 -15 -7 -28q-40 -33 -52 -41q-99 -66 -101 -186q-2 -117 -14 -195q-12 -82 -14 -203q-1 -38 -2 -158t-3 -185q-1 -27 3 -79t4 -78q13 6 73 34.5t92 43.5q1 -1 1.5 -2t1.5 -2q-32 -34 -47 -52q-13 -15 -37 -45q-3 -4 -9 -11.5t-10.5 -13.5t-9.5 -10
q-30 -26 -94.5 -55t-114.5 -45t-50 -11q-3 95 -3 133q0 18 1 55.5t1 66.5t-3 55q-4 12 -2.5 77t1.5 76q-1 26 0 78.5t1 78.5q-4 269 -7 407q0 22 -3 43q-8 43 -50 31q-6 -2 -50 -19q0 48 30 66q38 22 55 24q12 1 27 8q33 14 99.5 42t100.5 42q11 5 31 13.5t36.5 15.5
t31.5 13q12 5 68 22q20 4 25 -6zM99 1223l-36 90q-8 21 -6 31q0 2 18 40q2 4 5 4q37 7 73 22t89 43.5t69 36.5q23 11 48 24t55 29t47 25q29 15 32 -28q-3 -10 -8 -15q-16 -16 -44.5 -46.5t-52 -55t-44.5 -45.5q-104 -108 -188 -175q-37 -31 -57 20z" />
    <glyph glyph-name="i" unicode="&#xed;" horiz-adv-x="462" 
d="M516 1262q8 -15 -7 -28q-40 -33 -52 -41q-99 -66 -101 -186q-2 -117 -14 -195q-12 -82 -14 -203q-1 -38 -2 -158t-3 -185q-1 -27 3 -79t4 -78q13 6 73 34.5t92 43.5q1 -1 1.5 -2t1.5 -2q-32 -34 -47 -52q-13 -15 -37 -45q-3 -4 -9 -11.5t-10.5 -13.5t-9.5 -10
q-30 -26 -94.5 -55t-114.5 -45t-50 -11q-3 95 -3 133q0 18 1 55.5t1 66.5t-3 55q-4 12 -2.5 77t1.5 76q-1 26 0 78.5t1 78.5q-4 269 -7 407q0 22 -3 43q-8 43 -50 31q-6 -2 -50 -19q0 48 30 66q38 22 55 24q12 1 27 8q33 14 99.5 42t100.5 42q11 5 31 13.5t36.5 15.5
t31.5 13q12 5 68 22q20 4 25 -6zM99 1223l-36 90q-8 21 -6 31q0 2 18 40q2 4 5 4q37 7 73 22t89 43.5t69 36.5q23 11 48 24t55 29t47 25q29 15 32 -28q-3 -10 -8 -15q-16 -16 -44.5 -46.5t-52 -55t-44.5 -45.5q-104 -108 -188 -175q-37 -31 -57 20z" />
    <glyph glyph-name="i" unicode="&#xec;" horiz-adv-x="462" 
d="M516 1262q8 -15 -7 -28q-40 -33 -52 -41q-99 -66 -101 -186q-2 -117 -14 -195q-12 -82 -14 -203q-1 -38 -2 -158t-3 -185q-1 -27 3 -79t4 -78q13 6 73 34.5t92 43.5q1 -1 1.5 -2t1.5 -2q-32 -34 -47 -52q-13 -15 -37 -45q-3 -4 -9 -11.5t-10.5 -13.5t-9.5 -10
q-30 -26 -94.5 -55t-114.5 -45t-50 -11q-3 95 -3 133q0 18 1 55.5t1 66.5t-3 55q-4 12 -2.5 77t1.5 76q-1 26 0 78.5t1 78.5q-4 269 -7 407q0 22 -3 43q-8 43 -50 31q-6 -2 -50 -19q0 48 30 66q38 22 55 24q12 1 27 8q33 14 99.5 42t100.5 42q11 5 31 13.5t36.5 15.5
t31.5 13q12 5 68 22q20 4 25 -6zM99 1223l-36 90q-8 21 -6 31q0 2 18 40q2 4 5 4q37 7 73 22t89 43.5t69 36.5q23 11 48 24t55 29t47 25q29 15 32 -28q-3 -10 -8 -15q-16 -16 -44.5 -46.5t-52 -55t-44.5 -45.5q-104 -108 -188 -175q-37 -31 -57 20z" />
    <glyph glyph-name="j" unicode="j" horiz-adv-x="776" 
d="M218 1289q-9 19 -27 59q-2 5 -4.5 12.5t-2.5 9.5q-1 12 9.5 26t21.5 17q81 23 125 44q40 19 115 51t95 41q18 8 25 -4q9 -17 -4 -30q-171 -156 -293 -242q-22 -17 -35.5 -13t-24.5 29zM722 1308q0 -14 -0.5 -41t-0.5 -40v-1105l-8 -186q-5 -5 -83.5 -111.5t-149.5 -191
t-93 -84.5q-23 0 -111.5 79t-166.5 163.5t-78 101.5q0 24 55 189q13 42 16 87.5t-8 57.5q-5 3 -12.5 6t-10.5 5t-2 8t10 17q19 21 73 5t80 -48q7 -9 15 -16.5t18.5 -16t18 -14t22 -15t21 -13.5t25 -15.5t25.5 -15.5q61 -38 84 -83q4 -8 -1 -14.5t-16 -0.5q-49 28 -119 18
q-36 -5 -63 -34l-2 -2q-2 -2 -4.5 -5.5t-3.5 -5.5q-41 -98 -41 -107q0 -15 74 -91.5t92 -76.5q19 0 90 107t71 133l-4 40l-45 930q-7 58 -7 99q0 19 -2 54t-2 46v28q-8 -4 -21 -11t-46.5 -27t-59.5 -37t-48 -36.5t-23 -31.5q-4 -31 14 -77.5t43 -72.5q15 -16 19 -29.5
t1 -20.5t-10 -10q-17 -8 -78 50q-2 -1 -19 17.5t-27 31.5q-35 39 -77.5 92.5t-41.5 55.5q-22 25 -54 87q-3 7 -11 18.5t-11 16.5q-11 21 -14 27q-8 24 14 35q18 8 30 -11q5 -8 10 -14.5t11.5 -13l11.5 -11.5t14 -11l13.5 -9t15 -9l14 -8t16 -8.5t14.5 -7.5q13 -7 33 4
q122 67 366 199q21 11 65 31q12 5 22 4q24 -4 56 -12q2 -30 2 -42z" />
    <glyph glyph-name="k" unicode="k" horiz-adv-x="737" 
d="M755 -161q8 -23 -138 54.5t-195 111.5q-12 8 -12.5 84t7 178.5t16.5 204t17 171.5l8 70q-69 65 -92 65q-18 0 -70 -87q-2 -63 -5.5 -154t-3.5 -97q0 -8 -0.5 -45t1.5 -93.5t6 -78.5q7 -40 26 -71.5t34 -42.5l16 -11q-8 -4 -33 -10q-5 -1 -49.5 -15t-96 -30t-109.5 -31.5
t-90 -20t-37 3.5q0 11 13 24t30 26.5t38.5 40t34.5 58.5q9 21 15.5 81t8.5 109l2 49q0 2 -0.5 5.5t-0.5 4.5q-4 88 -4 1247q-2 35 -9 46q-5 7 -16.5 9.5t-20.5 0.5l-9 -1q-49 -3 -70 -17q-10 -7 -17.5 -3.5t-7 12t8.5 16.5q7 6 103 40.5t135 56.5q56 32 139 55.5t124 16.5
q35 -6 36 -14q-2 -5 -11 -13q-2 -2 -12.5 -3.5t-26.5 -4t-29 -6.5q-24 -8 -42.5 -25t-23.5 -39q-1 -1 -1 -4t-1 -5h1q0 -1 -1 -4t-1 -4q-4 -21 -6 -45q-1 -22 -32 -847q58 59 113.5 125.5t64.5 97.5q5 18 6 40.5t-2.5 46t-7 41t-8.5 37.5l-6 24q-5 22 6 26.5t37 -12.5
q9 -6 22 -12t19 -10t17 -20t23 -45q55 -128 117 -185q34 -32 28 -89q-3 -24 -10 -23q-3 1 -11 19.5t-22.5 38.5t-34.5 25q-69 18 -141 -35q-19 -14 -39.5 -37t-32.5 -39l-11 -16l203 -74q5 0 12 -1.5t18.5 -15.5t11.5 -39q0 -35 -19 -305t-25 -341q-1 -14 60 -121t65 -120z
" />
    <glyph glyph-name="l" unicode="l" horiz-adv-x="440" 
d="M223 -62q-42 36 -96.5 143t-57.5 177q-2 59 -2 1273q-2 37 -9 48q-5 7 -16.5 9.5t-21.5 1.5l-9 -2q-49 -4 -71 -18q-11 -6 -18 -3t-7 12t9 17q8 7 105.5 42t136.5 57q58 32 143 56t126 17q37 -6 37 -16q-1 -2 -11 -12q-2 -2 -12.5 -3.5t-27.5 -4t-30 -6.5q-24 -8 -43 -26
t-24 -40q0 -2 -1 -5t-1 -4h1q-2 -4 -3 -7q-4 -21 -6 -47q-3 -59 -10 -398t-12 -648l-6 -309q20 -122 51 -164q4 -5 13.5 -17.5t13.5 -18.5q66 -47 110 -27q25 11 59.5 40.5t58.5 53.5t27 24q10 0 3 -43l-17.5 -24.5t-39 -46t-59.5 -59t-69 -45.5t-77 -23q-79 10 -124 37
q-2 1 -6.5 4t-6.5 5z" />
    <glyph glyph-name="m" unicode="m" horiz-adv-x="1097" 
d="M1071 66q1 -6 -57 -41t-92 -48q-70 -34 -157 -50q-41 -7 -38 2q1 3 43.5 47t47.5 77l2 51q0 24 2 100q4 516 6 516q1 72 1 132q-1 31 -33 83t-55 64q-10 4 -28 -4q-26 -17 -68 -57q20 -36 25 -59q3 -18 -1.5 -207t-2.5 -204q3 -24 8 -29.5t26 -7.5q12 -1 17 6t4.5 11.5
t5.5 -0.5q4 -5 4 -19.5t-4.5 -37t-21.5 -54.5t-44 -66q-28 -34 -72 -87.5t-69.5 -84.5t-35.5 -46q-19 -27 -43 -30q-13 -1 -12 9q0 4 2 8q27 57 46 169q0 8 6 135.5t9 196.5q6 259 2 328q-37 101 -59 125q-9 10 -40 -7t-57 -39l-27 -21q-37 -613 -43 -728q-5 -95 -16.5 -142
t-42.5 -71q-37 -29 -148 -57q-79 -20 -72 -6q1 3 43.5 47.5t47.5 77.5q7 42 3.5 471.5t-10.5 442.5q-9 7 -25 1.5t-40.5 -14.5t-32.5 -8q-20 3 -12 15q6 9 24 16q11 4 88.5 51t151.5 88.5t85 38.5t12.5 -35t-2.5 -63l-5 -30q97 99 145 130q46 30 44 18q74 -127 88 -133
q5 -2 52 32.5t100.5 70.5t72.5 36q20 0 75.5 -75t101.5 -149l45 -75q-2 -61 -6 -151h1q0 -10 -1.5 -33.5t-2.5 -36.5q-4 -99 -12.5 -247t-10.5 -149q-2 -37 -3 -56q-2 -30 -3 -43q3 -17 8 -36q6 -22 21 -35t27 -17.5t12 -6.5z" />
    <glyph glyph-name="n" unicode="n" horiz-adv-x="827" 
d="M810 53q8 -20 -21 -35v-1q-1 0 -3 -1h-1q-1 0 -2.5 -1t-2.5 -2h-3q-54 -21 -159 -47.5t-121 -31.5q-16 -4 -108 -25q-18 -3 -20 -3q-31 -3 -34 16q-7 31 22 40q18 7 31 13q79 67 98 113q16 41 46.5 371t28.5 411q-2 78 -42 171q-14 -8 -46 -25t-51.5 -27.5t-44.5 -26
t-42 -28.5q-13 -10 -20 -25.5t-8.5 -26.5t-2 -26.5t-0.5 -17.5q-4 -156 -2 -421q0 -34 -1.5 -119t-0.5 -132q0 -13 1.5 -27t13.5 -34t34 -20q27 0 30 -30l-258 -75q-52 -15 -85 -24q-3 5 -6 12t-2 22t14 22q27 13 36 21q14 17 23 24q21 31 18 77q-5 100 -14 807
q0 4 -0.5 10.5t-0.5 9.5q-1 29 -1 88q0 20 -12 31.5t-32 10.5q-9 -1 -24.5 0t-21.5 1q0 4 -0.5 11t-0.5 11q26 11 90 39t99 42q58 24 88 32q43 13 118 50l9 4.5t11 4.5q14 4 14 -9q-35 -30 -101 -88q-15 -13 -23 -32t-9.5 -33.5t-2.5 -38.5q-1 -15 8 -20t22 3q9 5 19.5 11.5
t23.5 15t20 12.5q132 78 199 116q5 3 43 17q2 -5 10.5 -23.5t13.5 -27.5q9 -18 47 -95.5t58 -119.5q1 -2 7.5 -12.5t11 -20t4.5 -13.5q-1 -11 -15.5 -107.5t-31 -210.5t-32 -244t-19.5 -207t7 -99q4 -3 14.5 -3.5t19.5 0.5t22.5 3.5t15.5 2.5l15 3q16 2 22 -13z" />
    <glyph glyph-name="n" unicode="&#xf1;" horiz-adv-x="827" 
d="M810 53q8 -20 -21 -35v-1q-1 0 -3 -1h-1q-1 0 -2.5 -1t-2.5 -2h-3q-54 -21 -159 -47.5t-121 -31.5q-16 -4 -108 -25q-18 -3 -20 -3q-31 -3 -34 16q-7 31 22 40q18 7 31 13q79 67 98 113q16 41 46.5 371t28.5 411q-2 78 -42 171q-14 -8 -46 -25t-51.5 -27.5t-44.5 -26
t-42 -28.5q-13 -10 -20 -25.5t-8.5 -26.5t-2 -26.5t-0.5 -17.5q-4 -156 -2 -421q0 -34 -1.5 -119t-0.5 -132q0 -13 1.5 -27t13.5 -34t34 -20q27 0 30 -30l-258 -75q-52 -15 -85 -24q-3 5 -6 12t-2 22t14 22q27 13 36 21q14 17 23 24q21 31 18 77q-5 100 -14 807
q0 4 -0.5 10.5t-0.5 9.5q-1 29 -1 88q0 20 -12 31.5t-32 10.5q-9 -1 -24.5 0t-21.5 1q0 4 -0.5 11t-0.5 11q26 11 90 39t99 42q58 24 88 32q43 13 118 50l9 4.5t11 4.5q14 4 14 -9q-35 -30 -101 -88q-15 -13 -23 -32t-9.5 -33.5t-2.5 -38.5q-1 -15 8 -20t22 3q9 5 19.5 11.5
t23.5 15t20 12.5q132 78 199 116q5 3 43 17q2 -5 10.5 -23.5t13.5 -27.5q9 -18 47 -95.5t58 -119.5q1 -2 7.5 -12.5t11 -20t4.5 -13.5q-1 -11 -15.5 -107.5t-31 -210.5t-32 -244t-19.5 -207t7 -99q4 -3 14.5 -3.5t19.5 0.5t22.5 3.5t15.5 2.5l15 3q16 2 22 -13z" />
    <glyph glyph-name="o" unicode="o" horiz-adv-x="813" 
d="M799 782q5 -20 -17.5 -276t-29.5 -308q-3 -24 -137 -118.5t-182 -113.5h-1v-1q-3 -2 -11 -2q-36 -10 -115.5 4.5t-153 52t-83.5 83.5q-21 97 -44 339t-6 304q25 93 99 275.5t100 183.5q9 0 47.5 5t80.5 10t88.5 9.5t73 4.5t34.5 -5q5 -8 -6 -23t-24 -26l-13 -10l-1 -1
q-8 -7 -22 -12q-27 -10 -75.5 -31.5t-66.5 -28.5q-23 -9 -30 -31q-4 -14 -13 -40.5t-13 -39.5q-10 -31 -29 -93.5t-28 -94.5q-6 -22 -2 -43q20 -112 37 -305q3 -29 7.5 -60.5t11.5 -73.5t10 -61q2 -8 4 -12l63 -123q8 -16 33 -59l19 8q0 1 1 1t2 1q3 2 53 44q7 6 29.5 25
t35.5 29q20 15 23 43q9 95 21 184q2 17 7.5 50.5t7.5 50.5q2 16 6 57.5t7 64.5q3 26 26 159q4 28 -11 51q-14 22 -41 65t-41 64q0 1 -3 5.5t-4.5 6l-4.5 4.5t-6.5 4t-7.5 1q-4 -5 -18.5 -22t-23 -29t-14.5 -25q-12 -25 -36 -62q-10 -16 0 -32q12 -20 34 -57t28 -47
q9 4 24 11.5l28 14t25.5 12.5t19.5 9t7 2q0 -2 -7.5 -38t-15.5 -75t-9 -45v-1q0 -1 1 -1q-1 0 -2.5 -0.5t-2.5 -0.5q-76 -40 -134 -67q-23 -10 -63.5 43t-70 110.5t-29.5 66.5q0 11 73 145.5t103 170.5q8 9 18.5 23.5t18.5 24.5t17.5 21.5t17.5 18t16 10.5t15.5 1.5
t13.5 -10.5l1 -1q39 -35 146.5 -190t113.5 -178z" />
    <glyph glyph-name="o" unicode="&#xf8;" horiz-adv-x="813" 
d="M799 782q5 -20 -17.5 -276t-29.5 -308q-3 -24 -137 -118.5t-182 -113.5h-1v-1q-3 -2 -11 -2q-36 -10 -115.5 4.5t-153 52t-83.5 83.5q-21 97 -44 339t-6 304q25 93 99 275.5t100 183.5q9 0 47.5 5t80.5 10t88.5 9.5t73 4.5t34.5 -5q5 -8 -6 -23t-24 -26l-13 -10l-1 -1
q-8 -7 -22 -12q-27 -10 -75.5 -31.5t-66.5 -28.5q-23 -9 -30 -31q-4 -14 -13 -40.5t-13 -39.5q-10 -31 -29 -93.5t-28 -94.5q-6 -22 -2 -43q20 -112 37 -305q3 -29 7.5 -60.5t11.5 -73.5t10 -61q2 -8 4 -12l63 -123q8 -16 33 -59l19 8q0 1 1 1t2 1q3 2 53 44q7 6 29.5 25
t35.5 29q20 15 23 43q9 95 21 184q2 17 7.5 50.5t7.5 50.5q2 16 6 57.5t7 64.5q3 26 26 159q4 28 -11 51q-14 22 -41 65t-41 64q0 1 -3 5.5t-4.5 6l-4.5 4.5t-6.5 4t-7.5 1q-4 -5 -18.5 -22t-23 -29t-14.5 -25q-12 -25 -36 -62q-10 -16 0 -32q12 -20 34 -57t28 -47
q9 4 24 11.5l28 14t25.5 12.5t19.5 9t7 2q0 -2 -7.5 -38t-15.5 -75t-9 -45v-1q0 -1 1 -1q-1 0 -2.5 -0.5t-2.5 -0.5q-76 -40 -134 -67q-23 -10 -63.5 43t-70 110.5t-29.5 66.5q0 11 73 145.5t103 170.5q8 9 18.5 23.5t18.5 24.5t17.5 21.5t17.5 18t16 10.5t15.5 1.5
t13.5 -10.5l1 -1q39 -35 146.5 -190t113.5 -178z" />
    <glyph glyph-name="o" unicode="&#xf6;" horiz-adv-x="813" 
d="M799 782q5 -20 -17.5 -276t-29.5 -308q-3 -24 -137 -118.5t-182 -113.5h-1v-1q-3 -2 -11 -2q-36 -10 -115.5 4.5t-153 52t-83.5 83.5q-21 97 -44 339t-6 304q25 93 99 275.5t100 183.5q9 0 47.5 5t80.5 10t88.5 9.5t73 4.5t34.5 -5q5 -8 -6 -23t-24 -26l-13 -10l-1 -1
q-8 -7 -22 -12q-27 -10 -75.5 -31.5t-66.5 -28.5q-23 -9 -30 -31q-4 -14 -13 -40.5t-13 -39.5q-10 -31 -29 -93.5t-28 -94.5q-6 -22 -2 -43q20 -112 37 -305q3 -29 7.5 -60.5t11.5 -73.5t10 -61q2 -8 4 -12l63 -123q8 -16 33 -59l19 8q0 1 1 1t2 1q3 2 53 44q7 6 29.5 25
t35.5 29q20 15 23 43q9 95 21 184q2 17 7.5 50.5t7.5 50.5q2 16 6 57.5t7 64.5q3 26 26 159q4 28 -11 51q-14 22 -41 65t-41 64q0 1 -3 5.5t-4.5 6l-4.5 4.5t-6.5 4t-7.5 1q-4 -5 -18.5 -22t-23 -29t-14.5 -25q-12 -25 -36 -62q-10 -16 0 -32q12 -20 34 -57t28 -47
q9 4 24 11.5l28 14t25.5 12.5t19.5 9t7 2q0 -2 -7.5 -38t-15.5 -75t-9 -45v-1q0 -1 1 -1q-1 0 -2.5 -0.5t-2.5 -0.5q-76 -40 -134 -67q-23 -10 -63.5 43t-70 110.5t-29.5 66.5q0 11 73 145.5t103 170.5q8 9 18.5 23.5t18.5 24.5t17.5 21.5t17.5 18t16 10.5t15.5 1.5
t13.5 -10.5l1 -1q39 -35 146.5 -190t113.5 -178z" />
    <glyph glyph-name="o" unicode="&#xf5;" horiz-adv-x="813" 
d="M799 782q5 -20 -17.5 -276t-29.5 -308q-3 -24 -137 -118.5t-182 -113.5h-1v-1q-3 -2 -11 -2q-36 -10 -115.5 4.5t-153 52t-83.5 83.5q-21 97 -44 339t-6 304q25 93 99 275.5t100 183.5q9 0 47.5 5t80.5 10t88.5 9.5t73 4.5t34.5 -5q5 -8 -6 -23t-24 -26l-13 -10l-1 -1
q-8 -7 -22 -12q-27 -10 -75.5 -31.5t-66.5 -28.5q-23 -9 -30 -31q-4 -14 -13 -40.5t-13 -39.5q-10 -31 -29 -93.5t-28 -94.5q-6 -22 -2 -43q20 -112 37 -305q3 -29 7.5 -60.5t11.5 -73.5t10 -61q2 -8 4 -12l63 -123q8 -16 33 -59l19 8q0 1 1 1t2 1q3 2 53 44q7 6 29.5 25
t35.5 29q20 15 23 43q9 95 21 184q2 17 7.5 50.5t7.5 50.5q2 16 6 57.5t7 64.5q3 26 26 159q4 28 -11 51q-14 22 -41 65t-41 64q0 1 -3 5.5t-4.5 6l-4.5 4.5t-6.5 4t-7.5 1q-4 -5 -18.5 -22t-23 -29t-14.5 -25q-12 -25 -36 -62q-10 -16 0 -32q12 -20 34 -57t28 -47
q9 4 24 11.5l28 14t25.5 12.5t19.5 9t7 2q0 -2 -7.5 -38t-15.5 -75t-9 -45v-1q0 -1 1 -1q-1 0 -2.5 -0.5t-2.5 -0.5q-76 -40 -134 -67q-23 -10 -63.5 43t-70 110.5t-29.5 66.5q0 11 73 145.5t103 170.5q8 9 18.5 23.5t18.5 24.5t17.5 21.5t17.5 18t16 10.5t15.5 1.5
t13.5 -10.5l1 -1q39 -35 146.5 -190t113.5 -178z" />
    <glyph glyph-name="o" unicode="&#xf4;" horiz-adv-x="813" 
d="M799 782q5 -20 -17.5 -276t-29.5 -308q-3 -24 -137 -118.5t-182 -113.5h-1v-1q-3 -2 -11 -2q-36 -10 -115.5 4.5t-153 52t-83.5 83.5q-21 97 -44 339t-6 304q25 93 99 275.5t100 183.5q9 0 47.5 5t80.5 10t88.5 9.5t73 4.5t34.5 -5q5 -8 -6 -23t-24 -26l-13 -10l-1 -1
q-8 -7 -22 -12q-27 -10 -75.5 -31.5t-66.5 -28.5q-23 -9 -30 -31q-4 -14 -13 -40.5t-13 -39.5q-10 -31 -29 -93.5t-28 -94.5q-6 -22 -2 -43q20 -112 37 -305q3 -29 7.5 -60.5t11.5 -73.5t10 -61q2 -8 4 -12l63 -123q8 -16 33 -59l19 8q0 1 1 1t2 1q3 2 53 44q7 6 29.5 25
t35.5 29q20 15 23 43q9 95 21 184q2 17 7.5 50.5t7.5 50.5q2 16 6 57.5t7 64.5q3 26 26 159q4 28 -11 51q-14 22 -41 65t-41 64q0 1 -3 5.5t-4.5 6l-4.5 4.5t-6.5 4t-7.5 1q-4 -5 -18.5 -22t-23 -29t-14.5 -25q-12 -25 -36 -62q-10 -16 0 -32q12 -20 34 -57t28 -47
q9 4 24 11.5l28 14t25.5 12.5t19.5 9t7 2q0 -2 -7.5 -38t-15.5 -75t-9 -45v-1q0 -1 1 -1q-1 0 -2.5 -0.5t-2.5 -0.5q-76 -40 -134 -67q-23 -10 -63.5 43t-70 110.5t-29.5 66.5q0 11 73 145.5t103 170.5q8 9 18.5 23.5t18.5 24.5t17.5 21.5t17.5 18t16 10.5t15.5 1.5
t13.5 -10.5l1 -1q39 -35 146.5 -190t113.5 -178z" />
    <glyph glyph-name="o" unicode="&#xf3;" horiz-adv-x="813" 
d="M799 782q5 -20 -17.5 -276t-29.5 -308q-3 -24 -137 -118.5t-182 -113.5h-1v-1q-3 -2 -11 -2q-36 -10 -115.5 4.5t-153 52t-83.5 83.5q-21 97 -44 339t-6 304q25 93 99 275.5t100 183.5q9 0 47.5 5t80.5 10t88.5 9.5t73 4.5t34.5 -5q5 -8 -6 -23t-24 -26l-13 -10l-1 -1
q-8 -7 -22 -12q-27 -10 -75.5 -31.5t-66.5 -28.5q-23 -9 -30 -31q-4 -14 -13 -40.5t-13 -39.5q-10 -31 -29 -93.5t-28 -94.5q-6 -22 -2 -43q20 -112 37 -305q3 -29 7.5 -60.5t11.5 -73.5t10 -61q2 -8 4 -12l63 -123q8 -16 33 -59l19 8q0 1 1 1t2 1q3 2 53 44q7 6 29.5 25
t35.5 29q20 15 23 43q9 95 21 184q2 17 7.5 50.5t7.5 50.5q2 16 6 57.5t7 64.5q3 26 26 159q4 28 -11 51q-14 22 -41 65t-41 64q0 1 -3 5.5t-4.5 6l-4.5 4.5t-6.5 4t-7.5 1q-4 -5 -18.5 -22t-23 -29t-14.5 -25q-12 -25 -36 -62q-10 -16 0 -32q12 -20 34 -57t28 -47
q9 4 24 11.5l28 14t25.5 12.5t19.5 9t7 2q0 -2 -7.5 -38t-15.5 -75t-9 -45v-1q0 -1 1 -1q-1 0 -2.5 -0.5t-2.5 -0.5q-76 -40 -134 -67q-23 -10 -63.5 43t-70 110.5t-29.5 66.5q0 11 73 145.5t103 170.5q8 9 18.5 23.5t18.5 24.5t17.5 21.5t17.5 18t16 10.5t15.5 1.5
t13.5 -10.5l1 -1q39 -35 146.5 -190t113.5 -178z" />
    <glyph glyph-name="o" unicode="&#xf2;" horiz-adv-x="813" 
d="M799 782q5 -20 -17.5 -276t-29.5 -308q-3 -24 -137 -118.5t-182 -113.5h-1v-1q-3 -2 -11 -2q-36 -10 -115.5 4.5t-153 52t-83.5 83.5q-21 97 -44 339t-6 304q25 93 99 275.5t100 183.5q9 0 47.5 5t80.5 10t88.5 9.5t73 4.5t34.5 -5q5 -8 -6 -23t-24 -26l-13 -10l-1 -1
q-8 -7 -22 -12q-27 -10 -75.5 -31.5t-66.5 -28.5q-23 -9 -30 -31q-4 -14 -13 -40.5t-13 -39.5q-10 -31 -29 -93.5t-28 -94.5q-6 -22 -2 -43q20 -112 37 -305q3 -29 7.5 -60.5t11.5 -73.5t10 -61q2 -8 4 -12l63 -123q8 -16 33 -59l19 8q0 1 1 1t2 1q3 2 53 44q7 6 29.5 25
t35.5 29q20 15 23 43q9 95 21 184q2 17 7.5 50.5t7.5 50.5q2 16 6 57.5t7 64.5q3 26 26 159q4 28 -11 51q-14 22 -41 65t-41 64q0 1 -3 5.5t-4.5 6l-4.5 4.5t-6.5 4t-7.5 1q-4 -5 -18.5 -22t-23 -29t-14.5 -25q-12 -25 -36 -62q-10 -16 0 -32q12 -20 34 -57t28 -47
q9 4 24 11.5l28 14t25.5 12.5t19.5 9t7 2q0 -2 -7.5 -38t-15.5 -75t-9 -45v-1q0 -1 1 -1q-1 0 -2.5 -0.5t-2.5 -0.5q-76 -40 -134 -67q-23 -10 -63.5 43t-70 110.5t-29.5 66.5q0 11 73 145.5t103 170.5q8 9 18.5 23.5t18.5 24.5t17.5 21.5t17.5 18t16 10.5t15.5 1.5
t13.5 -10.5l1 -1q39 -35 146.5 -190t113.5 -178z" />
    <glyph glyph-name="p" unicode="p" horiz-adv-x="798" 
d="M766 997q14 -14 11 -32q-18 -160 -25 -233q-5 -51 -11.5 -144t-8.5 -122q-2 -20 -6 -59.5t-6 -59.5t-17 -30q-11 -8 -34 -23t-34 -23q-61 -44 -71 -51q-27 -21 -118 -94q-21 10 -26 15q-5 4 -15.5 13t-15.5 13l-31 23q1 -113 2.5 -287.5t1.5 -215.5q2 -35 9 -46
q5 -7 16.5 -9.5t20.5 -1.5l9 2q49 5 70 19q10 7 17.5 3.5t7 -12t-8.5 -16.5q-8 -7 -103.5 -42.5t-133.5 -57.5q-57 -32 -139.5 -56.5t-123.5 -17.5q-36 6 -36 16q1 2 11 12q2 2 12.5 3.5t26.5 4t29 6.5q23 8 41.5 25.5t23.5 39.5q1 1 1 4t1 5q1 1 1.5 3.5t0.5 3.5q3 26 5 46
q2 43 24 786l-1 1q-3 155 -3 310q0 32 7 144q-16 44 -65 -10q-2 -6 -5 -16.5t-5 -15.5q-2 -8 -8 -24q-7 -20 -30 -20q-20 0 -17 19q4 30 9 45q61 187 79 241q28 84 52 152q10 28 16 38t23 26q3 -4 8.5 -13t8.5 -14q88 -162 114 -202q18 18 69.5 48t93.5 51l42 21v-1
q22 10 28 10q33 1 114 -108q8 -8 24.5 -24t25.5 -24q7 -7 21 -22t21 -22zM566 424q5 25 6 251.5t-9 273.5q-13 42 -86 88q-34 -6 -117 -77v-1q-2 -2 -3 -2q-4 -1 -4 -113q-1 -4 -1 -13t-1 -14q1 -25 1.5 -82.5t0.5 -87.5q2 -206 2 -328q9 -9 22 -16.5t21 -10.5l8 -4
q16 -2 86.5 59t73.5 77z" />
    <glyph glyph-name="q" unicode="q" horiz-adv-x="845" 
d="M953 -399q2 -17 -11 -23q-185 -100 -323 -161q-21 -9 -63 -25.5t-62 -25.5q-10 -5 -29.5 -16t-25.5 -14q-15 10 -15 37q0 19 1 57.5t2 57.5q0 6 1 42.5t1 39.5q1 52 2.5 157t2.5 158q4 264 6 395v61q-1 -1 -5 -3.5t-6 -4.5q-73 -77 -201 -179l-48 -39q-47 -38 -61 -45
q-11 -6 -46 -36q-12 -10 -23 -7t-14 18q-11 59 -11 83q-2 191 -1 287q1 189 -11 453v105q0 23 18 44q33 39 130 123q16 14 34 29t40 33t34 28q1 0 2 1l2 2q19 16 32 17q17 8 43 -27t158 -172q12 22 30 60.5t35 69t37 55.5q23 -5 36 -36q13 -30 37.5 -90t36.5 -90l6 -15
q28 -87 71 -149q6 -8 20 -44q7 -17 -10 -28q-21 -12 -35 2q-31 30 -45 58q-3 6 -13 22q-15 -2 -15 -20q-6 -105 -6 -107q-4 -47 -12 -141.5t-12 -141.5q-3 -27 -7 -95l-15 -189q-9 -130 -27 -257q-9 -69 -9 -140q0 -77 4 -229q3 -7 7 -8q16 -8 89 26t77 47q2 7 -4 51.5
t-13 85.5l-7 40l-5 20q-9 -5 -26 -14.5t-27.5 -15t-26 -12t-30.5 -9.5q-15 21 6 32q30 16 40 25l24 27q5 5 14.5 15.5t14.5 15.5q17 21 42.5 60t45.5 64.5t35 33.5q40 20 48 8q2 -3 0 -7q-5 -7 -4.5 -59t6.5 -106q2 -14 2 -23q9 -60 22 -158q4 -28 10 -84zM443 541
q2 56 5 169t5 169q1 15 -14 36q-20 29 -62 87.5t-62 87.5l-1 1v1q-100 -97 -107 -98q-5 -2 16.5 -332t31.5 -330q9 0 86 59.5t95 77.5q5 32 7 72z" />
    <glyph glyph-name="r" unicode="r" horiz-adv-x="860" 
d="M836 937q17 -17 -28 -68q-24 -27 -115 -71.5t-102 -51.5q-11 -6 -13 -7q-63 -42 -86 -57q-58 -39 -70 -40q-14 -2 -23 5.5t-2 17.5q4 6 23 16q0 1 1 1t2 1q1 0 11.5 10t17 16t19.5 19t22 24.5t21 27.5t20 31.5t15.5 33.5t10.5 37.5t3 38.5q-1 29 -16.5 60.5t-30 48.5
t-18.5 19q-10 3 -43 -21t-61 -50l-27 -25q2 -629 6 -805q1 -49 15.5 -92.5t33 -72t37 -50.5t28.5 -37t6 -23q-9 -13 -21 -11t-23 12l-11 9q-144 98 -226 164q-36 29 -56.5 55t-23.5 37l-2 11q29 466 42 740v1q1 11 1 32q2 77 -28 100q-16 12 -44.5 -5.5t-49.5 -41.5l-21 -23
q-14 -8 -23 7q-2 5 -2 10t1 8l2 4q113 191 134 226q9 16 18.5 23.5t13.5 6.5h5q122 -111 144 -135q10 -11 18.5 -13.5t12.5 0.5l3 3q179 151 219 153q36 2 223 -306q4 -3 8 -4q9 -3 18 0t11 1z" />
    <glyph glyph-name="s" unicode="s" horiz-adv-x="753" 
d="M351 949q0 30 64 -6q59 -33 66 -35q3 -1 5 -1q18 0 46.5 50t28.5 75q-81 73 -137 103q-6 -7 -52.5 -57.5t-77.5 -88t-44 -60.5q-10 -18 66 -105.5t173.5 -185t179.5 -192t82 -123.5q0 -30 -65 -104.5t-146.5 -147.5t-154.5 -129.5t-89 -56.5q-20 0 -91 85t-134 179
t-63 118q0 33 143 70t195 37q19 0 -18 -26q-69 -49 -81 -59q-19 -18 -19 -30q0 -31 56 -105t86 -74q31 0 89.5 65t58.5 95q0 22 -236 255t-236 243t4 99.5t4 106.5q0 14 68 86t146.5 149.5t88.5 90.5q14 17 27.5 25t20.5 7l7 -1q24 -18 63.5 -47.5t122.5 -92.5t135.5 -107.5
t47.5 -49.5q-11 -11 -80.5 -136t-75.5 -145q-12 -41 -65 11z" />
    <glyph glyph-name="t" unicode="t" horiz-adv-x="546" 
d="M1119 1420q191 -12 208 -23q7 -5 -5 -10q-29 -14 -925 -42q-1 -18 -2.5 -49.5t-1.5 -45.5q0 -15 -1.5 -49.5t-3 -62.5t-1.5 -31q-18 -473 -23 -605h1q-7 -178 -8 -221l-1 -132q12 -106 13.5 -201.5t-3.5 -162t-18.5 -127t-24.5 -94t-28.5 -66.5t-22.5 -40.5t-15 -19.5
l-2 -3q0 452 -73 587q-9 16 -19 27q-3 762 -3 1074v122v93q-548 -17 -566 -18q-50 -3 -89.5 17t-43.5 37q1 2 4 6t14.5 14.5t25.5 18.5t39 15.5t54 8.5q52 2 562 -3v116q-2 37 -9 48q-5 8 -17 10t-22 0l-9 -1q-49 -4 -71 -18q-11 -6 -18 -3t-6.5 12t9.5 17q8 7 105 43.5
t137 58.5q58 33 143 57.5t126 16.5q37 -7 36 -16q-2 -4 -11 -12q-2 -2 -12.5 -3.5t-27 -4t-29.5 -7.5q-25 -9 -44 -27t-24 -40v-5t-1 -4t-1.5 -4t-0.5 -4q-4 -23 -6 -47q-2 -36 -7 -186q665 -8 719 -11z" />
    <glyph glyph-name="u" unicode="u" horiz-adv-x="831" 
d="M810 298l6 -14q-70 -152 -122 -230q-23 -35 -38 -53t-18 -19h-4l-119 181q-114 -51 -191 -102q-38 -28 -79 -49.5t-66 -30t-29 -5.5q-16 12 -67.5 250t-47.5 267q48 418 59 495q5 57 2 61q-8 7 -24.5 2t-33.5 -15l-16 -9l-7 4q-9 11 14 42q19 25 120.5 63t150.5 46
q50 11 57 7q5 -3 -21 -169t-54 -346t-25 -207q3 -32 36 -298q162 90 175 111q0 1 4.5 7t9.5 13.5t10.5 17t9 20.5t3.5 21q0 11 2.5 96.5t5.5 191t5 213.5t-0.5 183.5t-9.5 81.5q-19 17 -17.5 38t21.5 23q276 32 295 24q16 -6 -11 -24q-2 -1 -30 -19q-33 -33 -39 -96
q-4 -41 -12.5 -222.5t-14.5 -342.5l-7 -160q23 -85 47 -101q13 6 47 40l1 1q12 18 22 12z" />
    <glyph glyph-name="u" unicode="&#xfc;" horiz-adv-x="831" 
d="M810 298l6 -14q-70 -152 -122 -230q-23 -35 -38 -53t-18 -19h-4l-119 181q-114 -51 -191 -102q-38 -28 -79 -49.5t-66 -30t-29 -5.5q-16 12 -67.5 250t-47.5 267q48 418 59 495q5 57 2 61q-8 7 -24.5 2t-33.5 -15l-16 -9l-7 4q-9 11 14 42q19 25 120.5 63t150.5 46
q50 11 57 7q5 -3 -21 -169t-54 -346t-25 -207q3 -32 36 -298q162 90 175 111q0 1 4.5 7t9.5 13.5t10.5 17t9 20.5t3.5 21q0 11 2.5 96.5t5.5 191t5 213.5t-0.5 183.5t-9.5 81.5q-19 17 -17.5 38t21.5 23q276 32 295 24q16 -6 -11 -24q-2 -1 -30 -19q-33 -33 -39 -96
q-4 -41 -12.5 -222.5t-14.5 -342.5l-7 -160q23 -85 47 -101q13 6 47 40l1 1q12 18 22 12z" />
    <glyph glyph-name="u" unicode="&#xfb;" horiz-adv-x="831" 
d="M810 298l6 -14q-70 -152 -122 -230q-23 -35 -38 -53t-18 -19h-4l-119 181q-114 -51 -191 -102q-38 -28 -79 -49.5t-66 -30t-29 -5.5q-16 12 -67.5 250t-47.5 267q48 418 59 495q5 57 2 61q-8 7 -24.5 2t-33.5 -15l-16 -9l-7 4q-9 11 14 42q19 25 120.5 63t150.5 46
q50 11 57 7q5 -3 -21 -169t-54 -346t-25 -207q3 -32 36 -298q162 90 175 111q0 1 4.5 7t9.5 13.5t10.5 17t9 20.5t3.5 21q0 11 2.5 96.5t5.5 191t5 213.5t-0.5 183.5t-9.5 81.5q-19 17 -17.5 38t21.5 23q276 32 295 24q16 -6 -11 -24q-2 -1 -30 -19q-33 -33 -39 -96
q-4 -41 -12.5 -222.5t-14.5 -342.5l-7 -160q23 -85 47 -101q13 6 47 40l1 1q12 18 22 12z" />
    <glyph glyph-name="u" unicode="&#xfa;" horiz-adv-x="831" 
d="M810 298l6 -14q-70 -152 -122 -230q-23 -35 -38 -53t-18 -19h-4l-119 181q-114 -51 -191 -102q-38 -28 -79 -49.5t-66 -30t-29 -5.5q-16 12 -67.5 250t-47.5 267q48 418 59 495q5 57 2 61q-8 7 -24.5 2t-33.5 -15l-16 -9l-7 4q-9 11 14 42q19 25 120.5 63t150.5 46
q50 11 57 7q5 -3 -21 -169t-54 -346t-25 -207q3 -32 36 -298q162 90 175 111q0 1 4.5 7t9.5 13.5t10.5 17t9 20.5t3.5 21q0 11 2.5 96.5t5.5 191t5 213.5t-0.5 183.5t-9.5 81.5q-19 17 -17.5 38t21.5 23q276 32 295 24q16 -6 -11 -24q-2 -1 -30 -19q-33 -33 -39 -96
q-4 -41 -12.5 -222.5t-14.5 -342.5l-7 -160q23 -85 47 -101q13 6 47 40l1 1q12 18 22 12z" />
    <glyph glyph-name="u" unicode="&#xf9;" horiz-adv-x="831" 
d="M810 298l6 -14q-70 -152 -122 -230q-23 -35 -38 -53t-18 -19h-4l-119 181q-114 -51 -191 -102q-38 -28 -79 -49.5t-66 -30t-29 -5.5q-16 12 -67.5 250t-47.5 267q48 418 59 495q5 57 2 61q-8 7 -24.5 2t-33.5 -15l-16 -9l-7 4q-9 11 14 42q19 25 120.5 63t150.5 46
q50 11 57 7q5 -3 -21 -169t-54 -346t-25 -207q3 -32 36 -298q162 90 175 111q0 1 4.5 7t9.5 13.5t10.5 17t9 20.5t3.5 21q0 11 2.5 96.5t5.5 191t5 213.5t-0.5 183.5t-9.5 81.5q-19 17 -17.5 38t21.5 23q276 32 295 24q16 -6 -11 -24q-2 -1 -30 -19q-33 -33 -39 -96
q-4 -41 -12.5 -222.5t-14.5 -342.5l-7 -160q23 -85 47 -101q13 6 47 40l1 1q12 18 22 12z" />
    <glyph glyph-name="v" unicode="v" horiz-adv-x="841" 
d="M824 1072q12 -19 -6 -22q-34 -6 -37 -81q-1 -22 -1 -66t-1 -66q-3 -264 -3 -482q0 -16 -190 -234.5t-208 -218.5q-19 0 -144 235t-125 275q0 63 -19 326.5t-31 271.5q-8 6 -18.5 7.5t-17.5 0.5l-7 -2q-1 1 -2 3.5t-1.5 10.5t2.5 15.5t13 17.5t27 19q8 4 31 17t41.5 23
t44.5 23.5t46.5 21t40.5 12.5t33 2t17 -15q3 -5 2 -18q0 -2 -0.5 -5.5t-0.5 -5.5l-16 -762q99 -242 121 -242q16 0 75 71q28 38 58 82q27 45 28 73v229v337q0 35 13 215q1 14 3 41.5t3 41.5l1 53q1 3 3.5 6t14.5 1t29 -18t62.5 -64.5t82.5 -88.5z" />
    <glyph glyph-name="w" unicode="w" horiz-adv-x="1021" 
d="M928 1288q28 5 52 6.5t40 1t27.5 -3t16.5 -6t4 -8.5q-1 -4 -18 -16t-38 -38t-31 -64q-10 -39 -65 -349t-106 -601l-50 -290q-1 -2 -3 -4.5t-9 -7t-14 -4.5t-18 8t-22 26l-1 1l1 -5l-4 8l-3 6l-241 506q-216 -504 -235 -498q-10 3 -16 16t-7 25l-2 12l1 2l-10 47
l-154 1143q-11 1 -29.5 2.5t-26.5 1.5q-6 20 -1.5 26.5t22.5 7.5q221 8 326 11l27 3q7 1 21.5 2.5t21.5 2.5q0 -5 -2 -8t-4 -4.5t-6.5 -3t-5.5 -1.5q-9 -5 -29 -13t-29 -13q-48 -24 -48 -74q0 -16 -2.5 -95.5t0.5 -96.5q2 -24 4.5 -85t5.5 -94l18 -183q3 -28 7 -77l-1 -1
l8 -135q286 731 302 753q11 11 23 8.5t23 -10.5l10 -8l-1 -1q6 -14 0.5 -38t-15.5 -46l-10 -23l-93 -294q0 -1 -0.5 -1t-0.5 -1q-4 -35 7 -75q15 -55 146 -367q48 498 73 690q7 63 1.5 103t-15.5 58l-11 18h3q-24 36 -53.5 57t-50.5 21q-15 0 -29 -4.5t-17.5 -6t-12.5 2.5
q-4 3 -5.5 10t2.5 15.5t13.5 16.5t31 14t51.5 7q20 0 56.5 0.5t53 1t43.5 2t51 4t52 7.5z" />
    <glyph glyph-name="x" unicode="x" horiz-adv-x="854" 
d="M886 168q12 5 20.5 -1.5t5.5 -19.5q-4 -15 -19 -32q-24 -24 -43 -36q-32 -20 -65.5 -46.5t-73 -59.5t-62.5 -51q-14 26 -33 55q-2 11 -7 20q-2 6 -7 16.5t-8 15.5l4 -11q-90 189 -192 403l-9 16q-119 -219 -131 -241q-33 -63 -46.5 -114.5t-10.5 -71.5l3 -20l-11 12
q3 -3 7.5 -9.5t6.5 -9.5q13 -17 4 -27q-9 -9 -26 1q-14 9 -70 43.5t-86 54.5q-16 11 -62 57q-16 16 -5 30q9 13 30 3q22 -10 30 -8t21 21l248 455q-238 449 -268 485q-9 13 -25 10t-29 -11t-26 -17t-16 -10q-14 -2 -19 9q-10 18 39 52q83 58 305 110q70 17 92 13q1 0 3 0.5
t3 0.5q6 -9 -6 -17q-28 -16 -84 -50q-14 -9 -16 -15.5t3 -22.5q5 -14 15 -38t13 -33q68 -173 75 -191t23.5 -49.5t19.5 -37.5l1 -1l216 396q-2 3 -6.5 11t-6.5 10q-8 13 -9 16q-10 21 2 33q10 12 31 4q67 -25 199 -77q6 -3 77 -38q2 -2 4 -7q-4 -1 -16.5 -2t-18.5 -3
q-43 -10 -65 -4q-20 5 -32 -15q-3 -6 -11 -18t-11 -18q-109 -196 -260 -473q7 -14 25.5 -58t29.5 -67q76 -153 166 -324q7 -14 25.5 -37t20.5 -26q49 12 96 47q18 14 28 18z" />
    <glyph glyph-name="y" unicode="y" horiz-adv-x="888" 
d="M872 874q3 -9 -1.5 -18.5t-14.5 -9.5q-8 -4 -18 6q-2 2 -4 5q-25 60 -38 60q-1 -2 -3.5 -4.5t-4 -5t-1.5 -5.5q-6 -34 -10 -102l-29 -936q-5 -6 -53 -69t-92 -118t-91 -104.5t-64 -49.5q-24 0 -118 64.5t-179 136t-85 87.5q0 21 29 115h-1q1 3 2.5 8.5t2.5 8.5h1
q12 43 14.5 88t-9.5 57q-5 3 -12.5 6t-10.5 5t-2 8t10 17q19 22 73 6.5t80 -47.5q10 -12 21 -22t28.5 -22t27.5 -18t36 -21t35 -20q56 -33 85 -81q5 -8 -0.5 -15t-16.5 -1q-48 27 -119 16q-37 -6 -63 -34l-1 -2q-2 -2 -4.5 -5.5t-3.5 -5.5q-2 -4 -5 -12t-5 -12h-1l-1 1
q-9 -27 -9 -29q1 -27 77.5 -67.5t102.5 -40.5q19 0 70 75t50 100q0 2 2 31.5t3.5 62t0.5 47.5q-2 272 -5 273q-2 -2 -23.5 -22t-50 -46t-44.5 -42q-14 -13 -19 -14t-22 9q-12 8 -35 23.5t-35 23.5q-15 10 -59.5 37.5t-68.5 43.5q-12 8 -34 26q-21 14 -32.5 25t-12.5 15l-1 4
l48 699q-4 -4 -59 -35q-59 -34 -82 -17q-11 8 -2 21q11 16 113.5 88t148.5 99q24 14 45 20.5t30 6.5l9 -1q6 -33 1.5 -217.5t-12.5 -398.5l-8 -214q15 -140 64 -155q5 4 14 10.5t32 26.5t41.5 39t35 43.5t19.5 43.5q0 7 3 44l-17 571l-2 1l1 1q0 2 1 2v2q103 187 137 213
q24 18 36 21.5t32 1.5q22 -2 53 -114q4 -12 8 -26t8.5 -31.5t7.5 -26.5q32 -109 52 -194q1 -2 2 -6.5t1 -7.5z" />
    <glyph glyph-name="y" unicode="&#xff;" horiz-adv-x="888" 
d="M872 874q3 -9 -1.5 -18.5t-14.5 -9.5q-8 -4 -18 6q-2 2 -4 5q-25 60 -38 60q-1 -2 -3.5 -4.5t-4 -5t-1.5 -5.5q-6 -34 -10 -102l-29 -936q-5 -6 -53 -69t-92 -118t-91 -104.5t-64 -49.5q-24 0 -118 64.5t-179 136t-85 87.5q0 21 29 115h-1q1 3 2.5 8.5t2.5 8.5h1
q12 43 14.5 88t-9.5 57q-5 3 -12.5 6t-10.5 5t-2 8t10 17q19 22 73 6.5t80 -47.5q10 -12 21 -22t28.5 -22t27.5 -18t36 -21t35 -20q56 -33 85 -81q5 -8 -0.5 -15t-16.5 -1q-48 27 -119 16q-37 -6 -63 -34l-1 -2q-2 -2 -4.5 -5.5t-3.5 -5.5q-2 -4 -5 -12t-5 -12h-1l-1 1
q-9 -27 -9 -29q1 -27 77.5 -67.5t102.5 -40.5q19 0 70 75t50 100q0 2 2 31.5t3.5 62t0.5 47.5q-2 272 -5 273q-2 -2 -23.5 -22t-50 -46t-44.5 -42q-14 -13 -19 -14t-22 9q-12 8 -35 23.5t-35 23.5q-15 10 -59.5 37.5t-68.5 43.5q-12 8 -34 26q-21 14 -32.5 25t-12.5 15l-1 4
l48 699q-4 -4 -59 -35q-59 -34 -82 -17q-11 8 -2 21q11 16 113.5 88t148.5 99q24 14 45 20.5t30 6.5l9 -1q6 -33 1.5 -217.5t-12.5 -398.5l-8 -214q15 -140 64 -155q5 4 14 10.5t32 26.5t41.5 39t35 43.5t19.5 43.5q0 7 3 44l-17 571l-2 1l1 1q0 2 1 2v2q103 187 137 213
q24 18 36 21.5t32 1.5q22 -2 53 -114q4 -12 8 -26t8.5 -31.5t7.5 -26.5q32 -109 52 -194q1 -2 2 -6.5t1 -7.5z" />
    <glyph glyph-name="y" unicode="&#xfd;" horiz-adv-x="888" 
d="M872 874q3 -9 -1.5 -18.5t-14.5 -9.5q-8 -4 -18 6q-2 2 -4 5q-25 60 -38 60q-1 -2 -3.5 -4.5t-4 -5t-1.5 -5.5q-6 -34 -10 -102l-29 -936q-5 -6 -53 -69t-92 -118t-91 -104.5t-64 -49.5q-24 0 -118 64.5t-179 136t-85 87.5q0 21 29 115h-1q1 3 2.5 8.5t2.5 8.5h1
q12 43 14.5 88t-9.5 57q-5 3 -12.5 6t-10.5 5t-2 8t10 17q19 22 73 6.5t80 -47.5q10 -12 21 -22t28.5 -22t27.5 -18t36 -21t35 -20q56 -33 85 -81q5 -8 -0.5 -15t-16.5 -1q-48 27 -119 16q-37 -6 -63 -34l-1 -2q-2 -2 -4.5 -5.5t-3.5 -5.5q-2 -4 -5 -12t-5 -12h-1l-1 1
q-9 -27 -9 -29q1 -27 77.5 -67.5t102.5 -40.5q19 0 70 75t50 100q0 2 2 31.5t3.5 62t0.5 47.5q-2 272 -5 273q-2 -2 -23.5 -22t-50 -46t-44.5 -42q-14 -13 -19 -14t-22 9q-12 8 -35 23.5t-35 23.5q-15 10 -59.5 37.5t-68.5 43.5q-12 8 -34 26q-21 14 -32.5 25t-12.5 15l-1 4
l48 699q-4 -4 -59 -35q-59 -34 -82 -17q-11 8 -2 21q11 16 113.5 88t148.5 99q24 14 45 20.5t30 6.5l9 -1q6 -33 1.5 -217.5t-12.5 -398.5l-8 -214q15 -140 64 -155q5 4 14 10.5t32 26.5t41.5 39t35 43.5t19.5 43.5q0 7 3 44l-17 571l-2 1l1 1q0 2 1 2v2q103 187 137 213
q24 18 36 21.5t32 1.5q22 -2 53 -114q4 -12 8 -26t8.5 -31.5t7.5 -26.5q32 -109 52 -194q1 -2 2 -6.5t1 -7.5z" />
    <glyph glyph-name="z" unicode="z" horiz-adv-x="874" 
d="M838 1185q13 1 19.5 -9.5t0.5 -21.5q-230 -446 -344 -675q-139 -279 -185 -450q-3 -12 5 -20.5t20 -5.5l190 46q16 4 16 20l7 142q1 9 -5.5 15.5t-15.5 7.5l-38 1q-14 1 -19.5 14t4.5 23l259 260q10 10 23.5 4t13.5 -20l-11 -514q0 -18 -17 -21l-723 -134q-12 -2 -20 7
t-4 21q155 422 566 1144q6 11 -0.5 22t-19.5 10l-259 -9q-19 0 -21 -20l-10 -142q-1 -10 6 -17t17 -6q17 2 23 -14t-9 -25l-190 -115q-10 -6 -21 -0.5t-12 17.5l-24 404q-1 9 5.5 15t15.5 7z" />
    <glyph glyph-name="nonbreakingspace" unicode="&#xa0;" horiz-adv-x="536" 
 />
    <glyph glyph-name="softhyphen" unicode="&#xad;" 
 />
    </font>
</defs>
</svg>
